<svg id="Слой_1" xmlns="http://www.w3.org/2000/svg" viewBox="0 0 374.7 109"><style>.st0,.st1{fill:none;stroke:#38a70d;stroke-width:1.5;stroke-miterlimit:10}.st1{stroke:#fff}</style><path class="st0" d="M337.9 1.4h23.7c9.2 0 11.3 2.2 11.3 11.5v23.5M37 107.4H13.3C4 107.4 2 105.2 2 95.9V72.4"/><path class="st1" d="M309.1 36.2l29.5 36.5m-30.5 0l29.5-36.5m-224.8.1v36.1"/><circle class="st1" cx="112.8" cy="20.1" r="4.1"/><path class="st1" d="M267.7 54.1c0 16.1 2 18.4 15 18.4 11.2 0 15-2.5 15-18.4 0-14.5-1.4-17.9-14.5-17.9-12.4 0-15.5 3.5-15.5 17.9zm-42.5-38.9v56.4c3.8.4 9.1.8 13.5.8 11.8 0 14.8-2.2 14.8-18.8 0-14-2-17.5-9.7-17.5-5.3 0-16.1 4.1-18.6 5.1M133 36.3v36.1m.1-30.5c5.1-2 15.4-5.6 20.8-5.6 5.6 0 7.6 2.5 7.6 10.5v25.7M64.8 41.9c5.1-2 14.9-5.7 20.3-5.7 5.6 0 7.6 2.5 7.6 10.5v25.7M37.5 36.3v36.1"/><path class="st1" d="M37.5 41.9c5.1-2 14.6-5.6 20-5.6 5.6 0 7.6 2.5 7.6 10.5v25.7m140.7-57.3v57.2m0-35.5c-3.8-.4-9.1-.7-13.5-.7-11.8 0-14.8 2.2-14.8 18.8 0 14 2 17.5 9.7 17.5 5.3 0 16.1-4.1 18.6-5.1"/></svg>