<svg xmlns="http://www.w3.org/2000/svg" xmlns:xlink="http://www.w3.org/1999/xlink" preserveAspectRatio="xMidYMid" width="10" height="10" viewBox="0 0 10 10">
  <defs>
    <style>

      .cls-2 {
        fill: #b7b7b7;
      }
    </style>
  </defs>
  <path d="M10.010,9.280 C10.010,9.280 9.280,10.010 9.280,10.010 C9.280,10.010 5.000,5.729 5.000,5.729 C5.000,5.729 0.720,10.010 0.720,10.010 C0.720,10.010 -0.010,9.280 -0.010,9.280 C-0.010,9.280 4.270,4.999 4.270,4.999 C4.270,4.999 -0.010,0.719 -0.010,0.719 C-0.010,0.719 0.720,-0.011 0.720,-0.011 C0.720,-0.011 5.000,4.269 5.000,4.269 C5.000,4.269 9.280,-0.011 9.280,-0.011 C9.280,-0.011 10.010,0.719 10.010,0.719 C10.010,0.719 5.730,4.999 5.730,4.999 C5.730,4.999 10.010,9.280 10.010,9.280 Z" id="path-1" class="cls-2" fill-rule="evenodd"/>
</svg>
