<?xml version="1.0" encoding="utf-8"?>
<!-- Generator: Adobe Illustrator 19.0.0, SVG Export Plug-In . SVG Version: 6.00 Build 0)  -->
<svg version="1.1" id="Слой_1" xmlns="http://www.w3.org/2000/svg" xmlns:xlink="http://www.w3.org/1999/xlink" x="0px" y="0px"
	 viewBox="0 0 55 55" style="enable-background:new 0 0 55 55;" xml:space="preserve">
<style type="text/css">
	.st0{fill:#010202;}
</style>
<path class="st0" d="M54.428299,16.0077991c-0.391098-0.4187994-0.9482994-0.6827993-1.5677986-0.6827993H47.6152V0.8695
	c0-0.4808-0.3928986-0.8703-0.8777008-0.8703H8.2622995C7.7774-0.0008,7.3845,0.3887,7.3845,0.8695v14.4554996H2.1393001
	c-0.6195002,0-1.1767001,0.2639999-1.5677001,0.6824007c-0.3535,0.3788986-0.5717,0.8832989-0.5717,1.4386997v34.9672012
	c0,1.1697006,0.9597,2.1215019,2.1394,2.1215019h50.7212982c1.1796989,0,2.1393013-0.9518013,2.1393013-2.1215019V17.4461002
	C54.9999008,16.8906994,54.7817993,16.3862991,54.428299,16.0077991z M8.2622995,19.6653004
	c0.4848003,0,0.8776007-0.389101,0.8776007-0.8698997V1.7399h36.7200012v17.0555
	c0,0.4807987,0.3927994,0.8698997,0.8775978,0.8698997c0.4848022,0,0.8777008-0.389101,0.8777008-0.8698997V17.0653h4.4476013
	L28.4876995,41.4107018c-0.2640991,0.2727966-0.6149998,0.4229965-0.9877987,0.4229965
	c-0.3728008,0-0.7238007-0.1501999-0.9878006-0.4229965L2.937,17.0653H7.3845v1.7301006
	C7.3845,19.2761993,7.7775998,19.6653004,8.2622995,19.6653004z M52.8605995,52.7944984H2.1393001
	c-0.2082001,0-0.3841001-0.1749992-0.3841001-0.3811989V18.3582993l16.0477009,16.5716019L3.6824999,49.5112991
	c-0.3355999,0.3465004-0.3243999,0.8973007,0.0253,1.2308998c0.1701,0.1617012,0.3889999,0.2423019,0.6076002,0.2423019
	c0.2307,0,0.4608998-0.0897026,0.6332998-0.2677994l14.0709-14.5307007l6.2264004,6.4301987
	c0.5981998,0.6174011,1.3986988,0.9575005,2.2540989,0.9575005c0.8553009,0,1.6557007-0.3400993,2.2540016-0.9575005
	l6.2263985-6.4301987l5.5036011,5.6834984c0.1724014,0.1780014,0.4025002,0.2674026,0.6331978,0.2674026
	c0.2186012,0,0.4375-0.0803032,0.6076012-0.2423019c0.3498001-0.332901,0.3610001-0.8840981,0.0252991-1.2305984
	l-5.5529976-5.7341003l16.0473976-16.5716019v34.0550003C53.2445984,52.6194992,53.0686989,52.7944984,52.8605995,52.7944984z"/>
<path class="st0" d="M45.543499,43.5489006c-0.3358002-0.3469009-0.8913002-0.3578987-1.2409973-0.0255013
	c-0.3496017,0.3333015-0.3609009,0.8841019-0.0251999,1.230999l5.7737999,5.9623032
	c0.1723976,0.1780968,0.4025002,0.267498,0.633297,0.267498c0.218502,0,0.4375-0.0802994,0.6076012-0.2422981
	c0.3496017-0.3333015,0.3609009-0.8841019,0.0252991-1.2306023L45.543499,43.5489006z"/>
<path class="st0" d="M17.1313992,28.7754993h16.5816021c1.5119972,0,2.7420998-1.2199993,2.7420998-2.719099
	c0-0.5349007-0.1570015-1.0351009-0.4272995-1.4561996c0.718998-0.4906998,1.1909981-1.3120003,1.1909981-2.2409
	c0-0.5352001-0.1567993-1.0351009-0.4272003-1.4562016c0.7187996-0.4902992,1.1907997-1.3118992,1.1907997-2.2412987
	c0-0.5352001-0.1567993-1.0349998-0.4272995-1.4561005c0.7190018-0.4902992,1.1911011-1.3120003,1.1911011-2.2404995
	c0-1.4996004-1.2302017-2.7187004-2.7420998-2.7187004h-4.9783001c0.8309994-1.7651005,1.2791996-3.8599005,1.2791996-6.0472002
	c0-1.4987998-1.2301998-2.7190998-2.7420998-2.7190998s-2.7420998,1.2203-2.7420998,2.7190998
	c0,3.3341999-2.7357006,6.0472002-6.0983009,6.0472002h-3.5909996c-0.4848003,0-0.8777008,0.3891001-0.8777008,0.8695002v14.7890997
	C16.2537003,28.3855991,16.6466999,28.7754993,17.1313992,28.7754993z M28.5760002,6.1992998
	c0-0.5393996,0.4426003-0.9783998,0.9867992-0.9783998c0.5442009,0,0.9868011,0.4386001,0.9868011,0.9783998
	c0,2.441-0.6198997,4.7291002-1.7454014,6.4424c-0.1756992,0.2673998-0.1896,0.6090002-0.0362988,0.8894005
	c0.1534996,0.2806997,0.4496994,0.4556999,0.7716999,0.4556999h6.4644012c0.5439987,0,0.9867973,0.4389,0.9867973,0.9784002
	c0,0.5389996-0.4426003,0.9782991-0.9867973,0.9782991h-2.2909012c-0.4848022,0-0.8776016,0.3895998-0.8776016,0.8704004
	c0,0.4804001,0.3927994,0.8696003,0.8776016,0.8696003h1.527298c0.5441017,0,0.986702,0.4393005,0.986702,0.9787006
	c0,0.5393982-0.4425011,0.9783993-0.986702,0.9783993h-1.527298c-0.4848022,0-0.8776016,0.3894997-0.8776016,0.8706989
	c0,0.4805012,0.3927994,0.8696003,0.8776016,0.8696003h0.7636986c0.5438995,0,0.9866028,0.4390011,0.9866028,0.9787998
	c0,0.5398006-0.4426003,0.9784012-0.9866028,0.9784012h-0.7636986c-0.4848022,0-0.8776016,0.3894997-0.8776016,0.8703003
	c0,0.4807987,0.3927994,0.8703995,0.8776016,0.8703995c0.5440979,0,0.9868011,0.4386005,0.9868011,0.9783001
	c0,0.5398006-0.4427032,0.9780006-0.9868011,0.9780006H21.6000996V13.9365997
	C25.5188999,13.5024996,28.5760002,10.1988001,28.5760002,6.1992998z M18.0090008,13.9868002h1.8358002v13.0483007h-1.8358002
	V13.9868002z"/>
</svg>
