<svg xmlns="http://www.w3.org/2000/svg" xmlns:xlink="http://www.w3.org/1999/xlink" preserveAspectRatio="xMidYMid" width="31" height="31" viewBox="0 0 31 31">
  <defs>
    <style>

      .cls-2 {
        fill: #798085;
      }
    </style>
  </defs>
  <path d="M15.500,-0.002 C6.940,-0.002 -0.000,6.938 -0.000,15.498 C-0.000,24.058 6.940,30.999 15.500,30.999 C24.060,30.999 31.000,24.058 31.000,15.498 C31.000,6.937 24.060,-0.002 15.500,-0.002 ZM19.507,15.497 C19.507,15.497 16.966,15.498 16.966,15.498 C16.966,15.498 16.964,24.798 16.964,24.798 C16.964,24.798 13.479,24.798 13.479,24.798 C13.479,24.798 13.479,15.498 13.479,15.498 C13.479,15.498 11.154,15.498 11.154,15.498 C11.154,15.498 11.154,12.294 11.154,12.294 C11.154,12.294 13.479,12.292 13.479,12.292 C13.479,12.292 13.475,10.405 13.475,10.405 C13.475,7.789 14.184,6.199 17.263,6.199 C17.263,6.199 19.829,6.199 19.829,6.199 C19.829,6.199 19.829,9.405 19.829,9.405 C19.829,9.405 18.225,9.405 18.225,9.405 C17.025,9.405 16.966,9.852 16.966,10.688 C16.966,10.688 16.963,12.292 16.963,12.292 C16.963,12.292 19.846,12.292 19.846,12.292 C19.846,12.292 19.507,15.497 19.507,15.497 Z" id="path-1" class="cls-2" fill-rule="evenodd"/>
</svg>
