<?xml version="1.0" encoding="utf-8"?>
<!-- Generator: Adobe Illustrator 19.0.0, SVG Export Plug-In . SVG Version: 6.00 Build 0)  -->
<svg version="1.1" id="Слой_1" xmlns="http://www.w3.org/2000/svg" xmlns:xlink="http://www.w3.org/1999/xlink" x="0px" y="0px"
	 viewBox="0 0 38 58" style="enable-background:new 0 0 38 58;" xml:space="preserve">
<style type="text/css">
	.st0{fill:#010202;}
	.st1{fill-rule:evenodd;clip-rule:evenodd;fill:#010202;}
</style>
<path class="st0" d="M30.1222,0H6.973C3.128,0,0,3.1244,0,6.9647v44.0705C0,54.8756,3.128,58,6.973,58h24.054
	c3.8449,0,6.9729-3.1244,6.9729-6.9648V6.9647C37.9999,3.1244,33.9671,0,30.1222,0z M36.1946,51.2672
	c0,2.7187-2.2311,4.9304-4.9736,4.9304H6.779c-2.7426,0-4.9736-2.2117-4.9736-4.9304V6.7327c0-2.7187,2.231-4.9303,4.9736-4.9303
	h23.5372c2.7426,0,5.8784,2.2116,5.8784,4.9303V51.2672z"/>
<path class="st0" d="M18.9311,50.4021c1.2356,0,2.2374,1.0005,2.2374,2.2347c0,1.2341-1.0018,2.2346-2.2374,2.2346
	c-1.2356,0-2.2373-1.0005-2.2373-2.2346C16.6938,51.4026,17.6955,50.4021,18.9311,50.4021z"/>
<path class="st0" d="M18.9999,13.5866c-3.7066,0-7.092,1.4004-9.657,3.6992L8.4465,16.389c-0.3132-0.3133-0.8211-0.3133-1.1341,0
	c-0.3132,0.3133-0.3132,0.8214,0,1.1346l0.8964,0.8968c-2.298,2.5662-3.6978,5.9531-3.6978,9.6614
	c0,7.9926,6.4998,14.4952,14.4889,14.4952c7.9893,0,14.4889-6.5026,14.4889-14.4952
	C33.4888,20.0891,26.9892,13.5866,18.9999,13.5866z M18.9999,40.9724c-7.1047,0-12.8849-5.7827-12.8849-12.8906
	c0-3.2659,1.221-6.2514,3.2293-8.5254l1.2844,1.285c-2.8039,3.2495-3.4968,7.9117-1.6933,11.8523
	c0.1349,0.2946,0.4256,0.4684,0.7297,0.4684c0.1118,0,0.2252-0.0235,0.3335-0.073c0.4027-0.1844,0.5796-0.6606,0.3952-1.0635
	c-1.5259-3.3338-0.9617-7.2715,1.3726-10.0458l1.2903,1.2907c-2.4311,3.0011-2.2523,7.4291,0.5372,10.2197
	c1.4439,1.4448,3.364,2.2403,5.406,2.2403c2.0422,0,3.9623-0.7955,5.4062-2.2403c1.4438-1.4445,2.2392-3.3652,2.2393-5.4081
	c0-0.4431-0.3589-0.8024-0.802-0.8024l0,0c-0.4429,0-0.8019,0.3593-0.8019,0.8024c-0.0002,1.6143-0.6286,3.1321-1.7695,4.2736
	c-1.1411,1.1415-2.6583,1.7701-4.2721,1.7701c-1.6137,0-3.1308-0.6286-4.272-1.7701c-2.1632-2.1642-2.3382-5.5739-0.5283-7.9416
	l1.3005,1.301c-0.4705,0.6932-0.724,1.5104-0.724,2.3667c0,1.1288,0.4395,2.1899,1.2372,2.988
	c0.8234,0.8238,1.9049,1.2357,2.9865,1.2357c1.0817,0,2.1633-0.4119,2.9867-1.2357c0.7976-0.798,1.2371-1.8591,1.2371-2.9877
	c0-0.4431-0.359-0.8024-0.802-0.8024l0,0c-0.4429,0-0.802,0.3593-0.802,0.8024c0,0.7-0.2726,1.3581-0.7673,1.8531
	c-0.4948,0.495-1.1527,0.7676-1.8525,0.7676c-0.6997,0-1.3576-0.2725-1.8524-0.7676c-0.8235-0.824-0.982-2.0642-0.4774-3.0495
	l1.7628,1.7636c0.1566,0.1565,0.3618,0.235,0.567,0.235s0.4105-0.0783,0.5671-0.235c0.3132-0.3134,0.3132-0.8214,0-1.1346
	l-9.0886-9.0928c2.2731-2.0093,5.2572-3.2307,8.5216-3.2307c7.1049,0,12.885,5.7827,12.885,12.8906S26.1048,40.9724,18.9999,40.9724
	z"/>
<path class="st0" d="M15.845,37.01c-0.4177-0.1473-0.8756,0.0718-1.0229,0.4898c-0.1473,0.4179,0.0718,0.8761,0.4896,1.0234
	c1.1895,0.4197,2.4354,0.6312,3.6859,0.6312c0.7899,0,1.5818-0.0844,2.3622-0.2541c2.0709-0.4501,3.9608-1.484,5.4658-2.9895
	c2.0902-2.0911,3.2413-4.8714,3.2414-7.8286c0-0.4431-0.3589-0.8023-0.802-0.8023l0,0c-0.4429,0-0.8019,0.3592-0.8019,0.8023
	c-0.0001,2.5287-0.9845,4.906-2.7717,6.694C23.1294,37.3395,19.2643,38.2164,15.845,37.01z"/>
<path class="st0" d="M12.1564,34.1258c-0.9139,0-1.6573,0.7439-1.6573,1.6581c0,0.9144,0.7434,1.6582,1.6573,1.6582
	c0.914,0,1.6575-0.7438,1.6575-1.6582C13.8139,34.8697,13.0704,34.1258,12.1564,34.1258z M12.1564,35.8375
	c-0.0294,0-0.0534-0.024-0.0534-0.0536c0-0.0294,0.024-0.0534,0.0534-0.0534c0.0296,0,0.0535,0.024,0.0535,0.0534
	C12.2099,35.8135,12.186,35.8375,12.1564,35.8375z"/>
<path class="st1" d="M0,47.125h37.0952v0.9062H0V47.125z"/>
<path class="st1" d="M0.9048,46.2187h37.0951v0.9063H0.9048V46.2187z"/>
<path class="st1" d="M0,8.1562h37.0952v0.9062H0V8.1562z"/>
<path class="st1" d="M0.9048,7.25h37.0951v0.9062H0.9048V7.25z"/>
</svg>
