<?xml version="1.0" encoding="utf-8"?>
<!-- Generator: Adobe Illustrator 19.0.0, SVG Export Plug-In . SVG Version: 6.00 Build 0)  -->
<svg version="1.1" id="Слой_1" xmlns="http://www.w3.org/2000/svg" xmlns:xlink="http://www.w3.org/1999/xlink" x="0px" y="0px"
	 viewBox="0 0 116.00806 126.95865" style="enable-background:new 0 0 116.00806 126.95865;" xml:space="preserve">
<style type="text/css">
	.st0{fill:#81A1B0;}
</style>
<path class="st0" d="M73.50777,69.00011c0.41897,0.16759,0.8547,0.33517,1.32394,0.50276
	c0.2011-0.55304,0.35194-1.18987,0.41897-1.92726c-0.63683,0-1.25691-0.01676-1.86022-0.03352
	C73.44073,68.04486,73.47425,68.54762,73.50777,69.00011z M53.24639,18.37181c2.36299,0.60332,5.54716,1.29043,7.92691,1.32395
	c-4.23997-5.76502-11.12783-7.10573-17.41238-5.41309C47.91709,15.20439,50.98395,16.66241,53.24639,18.37181z M63.8547,19.22651
	c0.9385-0.46925,1.72615-1.30719,2.37975-2.22892c-1.37422-0.92173-3.1339-1.79319-5.41309-2.46354
	c-0.21786,0.25138-0.40221,0.46925-0.53628,0.63683C61.87716,16.4613,63.03352,17.8858,63.8547,19.22651z M67.32377,15.17088
	c0.73739-1.47477,1.12284-2.73168,1.12284-2.74844l0,0c-0.03352,0.13407-0.21786,1.40774-0.87146,2.91603
	c1.29043,0.88822,2.26244,1.82671,3.01659,2.68141c1.10608-1.10608,2.98306-3.36852,3.06686-6.08344
	c0.11732-3.65342-2.6814-3.93832-2.69817-3.93832c-0.21786-0.01676-0.38545-0.21786-0.36869-0.45249
	c0.03352-0.23462,0.23462-0.40221,0.46925-0.36869c0,0,3.58638,0.35193,3.43555,4.79301
	c-0.10056,3.03334-2.1954,5.5304-3.38528,6.68676c0.31841,0.40221,0.56979,0.78766,0.7709,1.12284l4.82653-3.50259
	c2.71492-3.9048,2.53058-7.94367,2.53058-7.96042c-0.01676-0.23462,0.16759-0.43573,0.40221-0.43573
	c0.23463-0.01676,0.41898,0.16759,0.41898,0.40221c0,0.01676,0.15083,3.20093-1.64236,6.73703l15.56892-11.3457L73.05527,22.44419
	c0.53629,1.50829,0.60332,2.83224,0.46925,4.12266l0.25139,0.08379c5.01087-3.28472,10.72562-5.5304,10.74238-5.5304l0,0
	c-0.01675,0-3.92155,3.26797-8.37939,6.48565c0.97202,0.41897,2.02782,0.88822,3.10038,1.45801
	c1.08932-0.62008,2.89927-1.57533,4.89356-2.21216c1.52505-1.82671,2.63113-2.49706,2.63113-2.49706
	c0.16759-0.10055,0.36869-0.05028,0.46925,0.11731c0.10055,0.15083,0.05028,0.35193-0.11731,0.45249
	c0,0-0.72063,0.43573-1.80995,1.59208c0.55304-0.13407,1.10608-0.25138,1.65912-0.30166
	c1.17312-0.13407,2.06133,0.01676,2.74844,0.30166c0.53628-0.67035,1.00552-1.39098,1.34071-2.14513
	c1.69263-3.67017-1.12284-2.07809-1.12284-2.06133c-0.16759,0.08379-0.3687,0.03352-0.46925-0.13407
	c-0.08379-0.16759-0.01676-0.36869,0.13407-0.45249c0.01675-0.01676,4.60867-2.63113,2.06133,2.93279
	c-0.33517,0.75414-0.80442,1.49153-1.35746,2.17864c1.39098,0.90497,1.54181,2.43003,1.54181,2.44678
	c0.01676,0.21786-0.13407,0.43573-0.36869,0.45249c-0.23463,0.03352-0.43573-0.13407-0.46925-0.36869
	c0,0-0.11732-1.18987-1.25691-1.87698c-1.80995,2.02781-4.17294,3.6199-5.64771,4.49136
	c2.63113,1.84347,5.11143,4.12266,6.90462,6.88786c2.79871-2.34623,5.26226-2.94955,6.03316,1.12284l0,0v0.01676l0.05027,0.25138
	c0.20111-0.30166,0.38545-0.58656,0.58656-0.87146c0.53628-0.75415,1.03904-1.27367,1.50829-1.59209
	c0.0838-0.23462,0.11732-0.36869,0.11732-0.36869c0.05028-0.16759,0.23462-0.26814,0.41897-0.21786
	c0.10056,0.03352,0.18435,0.10055,0.21786,0.2011c2.02781-0.63683,3.25121,2.21216,3.25121,2.22892
	c0.06703,0.16759,0,0.35194-0.16759,0.43573c-0.16759,0.06704-0.3687,0-0.43573-0.16759
	c-0.01676-0.01676-1.08932-2.53058-2.88251-1.57533c-0.35193,0.92173-1.08932,2.66465-2.29595,4.60867
	c0.18435,2.39651,0.13407,5.88234-1.02229,9.16706l0.16759,0.08379c-0.18435,0.33518-0.36869,0.63683-0.5698,0.92173
	c-0.46925,1.07256-1.08932,2.11161-1.86022,3.06686c-3.58638,4.34053-7.79284,5.39633-9.9212,5.64771
	c0.2011,1.18987,0.21786,2.54734-0.03352,4.07238c2.39651-0.03352,4.89356-0.08379,7.30683-0.16759
	c4.03886-0.15083,7.84311-0.38545,10.65858-0.7709c1.86023-0.25138,2.89928-0.60332,3.40204-0.95525
	c-0.55304,0.05028-3.335-0.05027-1.49153-1.18987c0.87145-0.55304,1.82671-0.5698,2.46354-0.30166
	c0.46925,0.20111,0.78767,0.55304,0.90498,0.98877c0.13407,0.45249,0.03352,0.93849-0.38545,1.40774
	c-0.5698,0.65359-1.96078,1.34071-4.6757,1.7094c-2.86575,0.38545-6.72027,0.63683-10.80942,0.7709
	c-2.56409,0.10056-5.21198,0.15083-7.75932,0.18435c-0.46925,1.59209-1.17312,2.93279-1.96078,4.03886
	c3.88805,0.95525,8.4632,1.67588,13.32324,1.67588c13.94331,0,20.86469-2.49706,20.86469-2.49706s-8.32912,4.22321-18.66929,4.64218
	c-0.31842,1.10608-1.34071,2.79872-4.44109,2.79872c-3.30148,0-7.84311-2.24568-10.15582-3.53611
	c2.06133,2.94955,2.31271,6.93814,2.31271,6.9549c0.01675,0.23462-0.15083,0.43573-0.38545,0.45248
	c-0.21786,0.01676-0.41897-0.15083-0.43573-0.38545c-0.01676-0.01675-0.36869-5.4466-3.50259-7.97718l-0.68711-0.13407
	c-1.18987,1.10608-2.37975,1.82671-3.25121,2.26244l9.87093,11.8317l-0.8547,0.75415L75.71992,77.0946
	c-0.2011,0.18435-0.41897,0.40221-0.67035,0.62008c-0.68711,1.37422-1.84347,3.25121-3.67017,5.27901
	c1.37421,0.30166,3.55286,1.10609,5.39632,3.36852c3.0501,3.75397-0.82117,7.05545-0.83794,7.05545l-0.30166-0.2849
	c0.01676-0.01675,3.06686-3.06686,0.48601-6.23427c-1.94402-2.39651-4.27349-3.01658-5.41309-3.16741
	c-0.82118,0.8547-1.77643,1.72616-2.84899,2.59761c0.88821,1.32394,1.75967,2.81548,2.24567,4.15618
	c0.40221,1.07256,0.67036,2.36299,0.63683,3.6199c-0.13406,4.37404-4.12266,5.79854-7.99394,5.68123
	c-1.08932-0.03352-2.17864-0.23463-3.28473-0.53629c0.53628,2.44678,0.83794,5.41309,0.55304,8.8654
	c-0.98877,11.94902-11.21163,11.16135-11.24515,11.17812l0,0c0.01676,0,9.53575-0.72063,10.40721-11.24515
	c0.30165-3.58639-0.11731-6.63648-0.80442-9.13354c-1.74291-0.60332-3.45231-1.45802-5.06115-2.39651
	c-0.70387,1.15636-1.86023,2.02782-3.75397,1.97754c-0.43573-0.01676-0.83794-0.08379-1.24015-0.2011
	c-0.8547,0.23462-1.87698,0.06703-3.10038-0.75415c-0.83794-0.56979-1.55857-1.2569-2.16188-1.97753
	c-1.64236,2.43002-3.35176,4.89356-5.09467,7.30683c-0.26814,5.36281-0.7709,10.55804-1.59209,14.69746
	c-1.22339,6.08344-2.32947,10.40721-5.64771,9.18382l0,0c1.94402,0.38545,3.41879-3.26796,4.44108-8.37939
	c0.78766-3.90479,1.29042-8.7816,1.60884-13.87627c-2.53057,3.45231-5.12819,6.77055-7.69228,9.73685
	c-1.9105,2.22892-4.20646,4.60867-6.33482,5.26226l0,0c4.54163-4.30701,9.45196-10.39045,14.12766-16.82583
	c0.13407-2.44678,0.23462-4.91032,0.2849-7.30683c-4.54163,6.03316-9.3514,11.94902-13.69193,16.33982
	c-16.62472,15.50188-5.2455-4.91032-4.4746-4.05563l0,0c-0.01676,0.05028-7.156,13.60814,3.5361,2.79872
	c4.60867-4.65894,9.82065-10.96025,14.6807-17.26156l0.01676-0.50276c-1.10608-0.21786-2.26244-0.51952-3.41879-0.88821
	c-0.46925,0.53628-0.93849,1.0558-1.37422,1.54181c-1.15635,5.59743-4.74274,9.70334-4.75949,9.72009
	c-0.15083,0.16759-0.40221,0.18435-0.58656,0.03352c-0.16759-0.15083-0.18435-0.40221-0.03352-0.58656
	c0-0.01675,2.84899-3.25121,4.20646-7.85987c-0.46925,0.48601-0.88821,0.95525-1.29043,1.37422
	c-4.37404,6.11696-6.13372,3.98859-6.75379,3.38528c-0.15083-0.18435-0.13407-0.43573,0.03352-0.58656
	c0.18435-0.15083,0.43573-0.13407,0.58656,0.03352c0.01676,0,1.0558,1.32394,5.5304-3.40204
	c0.68711-0.72063,1.45801-1.55856,2.29595-2.49706c0.11731-0.60332,0.20111-1.2234,0.25138-1.86023l-0.40221-0.16759
	c-1.52505,1.00553-3.63666,1.65912-6.56945,1.4245c-0.38545-0.03352-0.75414-0.08379-1.12284-0.13407
	c-0.82118,1.15636-1.96078,2.01105-3.25121,2.49706c-1.44126,0.55304-3.08362,0.67035-4.69246,0.33517
	c-1.59209-0.33517-3.16741-1.1396-4.44108-2.41327c-1.45801-1.47477-2.56409-3.55286-2.93279-6.31806l0,0
	c-0.75415-5.63096,2.06133-8.73133,4.6757-10.35693c-0.50276-1.18987-0.75415-2.06133-0.83794-2.34623
	c-0.45249-0.3687-0.92173-0.75415-1.39098-1.15636l-0.25138,0.06703c0,0-0.03352-0.11731-0.06703-0.33517
	c-0.41897-0.36869-0.82118-0.73739-1.20663-1.10608H9.40539l-0.05028-0.06703c-2.26244-2.17864-4.17294-4.64219-4.72598-7.05545
	c-0.80442-3.6199,1.12284-6.67,3.30148-8.83188l0.06704-0.05028l0,0c0.63683-0.63683,1.29043-1.18987,1.89374-1.65912
	c0.2849-1.77643,0.7709-3.35176,1.40774-4.74274c-0.25138-1.92726-0.36869-3.88804-0.30166-5.84882
	c0.05028-0.95525,0.11731-1.89374,0.25138-2.83223c-0.78766,0.18435-1.59208,0.46925-2.43003,0.83794
	c-1.00553,0.45248-1.82671,0.97201-2.49706,1.52505c-1.25691,1.05581-1.9105,2.24568-2.12837,3.40203
	c-0.03352,0.20111-0.05028,0.38545-0.06704,0.58656c0.38545,0.05027,0.78766,0.15083,1.18987,0.26814
	c1.9105,0.5698,3.72045,1.72615,4.07239,3.11713c0.20111,0.83794,0.13407,1.52505-0.13407,2.04457
	c-0.21786,0.41897-0.55304,0.70387-0.97201,0.87146c-0.38545,0.15083-0.82118,0.18435-1.30719,0.10055v0.01676
	c-0.7709-0.15083-1.64236-0.62008-2.43002-1.47477c-1.1396,0-4.6757-0.18435-4.54163-3.08362
	c0.05028-0.75415,0.41897-1.25691,1.02229-1.59209l0,0c0.46925-0.25138,1.08932-0.36869,1.75967-0.38545
	c0.01676-0.23462,0.05028-0.46925,0.10055-0.72063c0.26814-1.44126,1.0558-2.89927,2.58085-4.1897
	c0.75415-0.62008,1.67588-1.18987,2.79872-1.7094c1.10608-0.50277,2.1954-0.82118,3.21769-1.02229
	c0.67035-3.335,2.02781-6.51917,4.37404-9.26761c-1.6256-1.54181-4.03887-3.50259-7.50794-5.56392v-0.01676
	c4.4746,0.46925,7.40739,2.21216,9.21733,3.83776c1.60884-1.44126,3.335-2.34623,5.09467-2.86575
	c0.5698-0.38545,1.1396-0.70387,1.7094-0.95525c-1.3407-1.94402-4.40756-5.31254-11.02728-8.78161l0,0
	c8.2956,1.94402,11.9155,5.59744,13.40703,7.85987c0.03352-0.03352,0.10055-0.0838,0.21786-0.16759l0,0h0.01676V22.6453
	l0.06704-0.03352l0,0l0.11731-0.08379c0.36869-0.45249,0.82118-0.93849,1.32394-1.47477
	c-1.49153-2.17864-4.35728-5.42985-9.70334-9.10002l0,0c6.21751,1.72616,9.68658,4.82653,11.56356,7.30683
	c6.04992-5.41309,13.69193-8.24532,21.53505-8.14477c3.77073,0.06704,6.8711,0.5698,9.4352,1.32395
	c2.02781-2.69817,4.79302-7.03869,3.68693-9.38492C64.30719,1.61302,63,0.79184,61.45819,0.84211
	c-1.4245,0.05028-3.01658,0.486-4.57515,1.24015c-1.4245,0.67035-2.81548,1.60884-3.95507,2.73168h0.01676
	c-1.22339,1.18987-1.52505,2.22892-1.29043,2.99982c0.10056,0.35193,0.31842,0.65359,0.60332,0.88822
	c0.30166,0.23462,0.67035,0.40221,1.07256,0.46925c3.80424,0.65359,1.94402-4.07239,0.98877-2.24568
	c-0.15083,0.2849-0.45249,0.43573-0.75415,0.35193c-3.15065-0.93849,5.76503-3.335,2.73168,1.37422
	c-0.75414,1.15636-1.99429,1.54181-3.11713,1.3407c-0.51952-0.08379-1.02229-0.30166-1.44125-0.63683
	c-0.41897-0.33518-0.73739-0.78766-0.88822-1.30719c-0.30166-1.03904,0.01676-2.37975,1.50829-3.83776l0,0
	c1.18987-1.17312,2.66465-2.16188,4.17294-2.88251c1.64236-0.78766,3.36852-1.27367,4.89357-1.32394
	c1.59208-0.05028,2.99982,0.35193,3.93831,1.30719l0,0c0.2849,0.2849,0.51952,0.63683,0.70387,1.03904
	c1.2569,2.59761-1.6256,7.30683-3.85452,10.35693C64.29043,13.39445,65.96631,14.2659,67.32377,15.17088z M66.55286,17.23221
	l-0.01675,0.01676c-0.70387,1.00553-1.4245,2.01105-2.32948,2.5641c0.16759,0.30166,0.31842,0.58656,0.45249,0.87146
	c0.92173,0.38545,1.87698,0.90498,2.73168,1.44126c0.40221,0.23462,0.7709,0.48601,1.1396,0.72063l1.72616-1.57533
	C69.7538,20.33258,68.68124,18.7405,66.55286,17.23221z M58.15671,20.0812c-1.25691-0.20111-2.56409-0.46925-3.75397-0.73739
	c0.486,0.43573,0.90498,0.87146,1.30719,1.32394C55.91103,20.68452,57.31878,20.14824,58.15671,20.0812z M62.93297,84.26737h0.25138
	l-0.08379-0.08379L62.93297,84.26737z M64.02229,84.25061c0.16759-0.01676,0.33517-0.03352,0.50276-0.05028
	c-0.13407-0.2011-0.26814-0.40221-0.40221-0.62007c-0.13407,0.10055-0.2849,0.18434-0.41897,0.26814
	C63.80442,83.98247,63.92174,84.11654,64.02229,84.25061z M65.24568,84.09978l0.15083-0.03352
	c-0.30166-0.36869-0.55304-0.67035-0.72063-0.88821l-0.01675,0.01676C64.87699,83.51322,65.07809,83.81488,65.24568,84.09978z
	 M66.10038,83.89867c0.82118-0.23462,1.60884-0.58656,2.31271-1.08932c0.46925-0.31842,0.87146-0.63683,1.24015-0.95525
	c0.41897-0.55304,0.82118-1.10608,1.17311-1.64236c-0.33517,0.11732-0.6871,0.23463-1.0558,0.31842l-0.36869,0.10056
	l-0.15083,0.15083c-1.07256,0.98877-2.49706,1.65912-3.97183,2.07809C65.4803,83.11102,65.76521,83.46294,66.10038,83.89867z
	 M65.37975,85.74214l-0.23463,0.03352l0.20111,0.31842l0.13406-0.10056L65.37975,85.74214z M64.39098,85.85945
	c-2.06133,0.16759-4.07239-0.13406-5.56392-0.46925c-1.52505,0.13407-3.01658,0-4.37404-0.25138
	c-1.32394,0.30166-2.79872,0.63683-4.23997,0.93849c1.9943,1.92726,6.63648,5.58068,13.37351,1.25691
	c0.43573-0.26814,0.83794-0.55304,1.24015-0.83794C64.69264,86.29518,64.54181,86.07732,64.39098,85.85945z M10.56175,68.24596
	c0.03352-0.13407,0.08379-0.26814,0.13407-0.40221c0.21786-0.53629,0.486-0.92174,0.80442-1.17312
	c-0.46925-1.45802-0.88822-3.01658-1.24015-4.64219c-0.2849-1.35746-0.46925-2.64789-0.55304-3.85452
	c-0.486,2.4803-0.82118,6.06668,0.36869,9.04975C10.22657,67.57561,10.39416,67.91079,10.56175,68.24596z M12.17059,68.63142
	c-0.16759,0.53629-0.18435,1.17312-0.15083,1.74291c0.486,0.5698,1.00553,1.07256,1.50829,1.50829
	c-0.23462-0.51952-0.46925-1.0558-0.70387-1.60884l-0.15083,0.03352c0,0-0.06703-0.26814-0.11731-0.68711
	C12.42197,69.28501,12.2879,68.96659,12.17059,68.63142z M33.21964,29.29854c0.10055,0.15083,0.26814,0.2849,0.486,0.35193
	c0.97201,0.2849,1.84347-0.30166,1.84347-0.30166s0,1.18987-1.02229,1.3407c-0.41897,0.05028-0.88821-0.01676-1.30718-0.11731
	c0.03352,0.33518,0.10055,0.65359,0.18435,0.92173c0.87146-0.08379,1.64236-0.10055,2.31271-0.10055
	c0.11731-0.87146,0.25138-1.77643,0.36869-2.68141c-0.75415-0.38545-1.55857-0.7709-2.41327-1.10608
	C33.42074,28.20922,33.26991,28.77901,33.21964,29.29854z M27.47137,30.79007c0,0-0.40221-1.60884-0.50276-4.64219h-0.06704
	c-2.17864,2.58085-2.39651,5.88234-2.29595,7.85987c0.20111-0.11731,0.41897-0.23462,0.63683-0.35194
	c1.15636-0.60332,2.37975-1.05581,3.58638-1.39098c-0.60332-1.27367-1.00553-3.13389-0.46925-5.76502
	c-0.20111,0.30166-0.38545,0.65359-0.55304,1.02229C27.2535,28.81253,27.47137,30.79007,27.47137,30.79007z M33.60509,24.50552
	c0.46925-0.55304,1.07256-1.24015,1.74291-1.9105c-1.75967-0.05028-2.73168,0.33518-4.22322,0.8547
	c0.30166,0.08379,0.60332,0.20111,0.88822,0.31842C32.54928,23.96924,33.08556,24.22062,33.60509,24.50552z M36.55463,23.75138
	c-0.5698,0.5698-1.07256,1.1396-1.49154,1.6256c0.43573,0.2849,0.87146,0.60332,1.30719,0.92173
	c0.08379-0.82118,0.15083-1.60884,0.16759-2.2792L36.55463,23.75138z M62.41344,21.75708
	c-0.53628-0.08379-1.10608-0.11731-1.69264-0.13407c0.70387,0.23462,1.37422,0.50276,1.97754,0.78766
	C62.61455,22.20957,62.514,21.9917,62.41344,21.75708z M61.6593,28.27625c0.13407-0.90497,0.13407-1.9943,0.10055-2.98306
	c-0.93849-0.11731-2.04457-0.20111-3.36852-0.23462c0.63684,1.54181,0.9385,3.01658,1.10608,4.22322
	C60.15101,29.01364,60.8884,28.64495,61.6593,28.27625z M67.60867,80.96589c-0.16759,0.03352-0.33517,0.05028-0.50277,0.06703
	c-0.16759,0.15083-0.31841,0.30166-0.486,0.45249C66.97184,81.33458,67.30701,81.16699,67.60867,80.96589z M71.88216,76.02204
	c0.65359-0.43572,1.12284-0.8547,1.44125-1.17311c0.30166-1.03905,0.46925-1.92726,0.51952-2.58086l-0.25138-0.06703
	c-0.31842,0.65359-0.82118,1.57533-1.52505,2.6814C72.03299,75.25114,71.96596,75.61983,71.88216,76.02204z M52.12355,91.99317
	c-0.11731,0.5698-0.30166,1.32394-0.5698,2.12836c0.38545,0.26814,0.78766,0.55304,1.18988,0.82118
	c0.36869-1.03905,0.45248-2.17864,0.45248-2.94955C52.86094,92.00993,52.49224,92.00993,52.12355,91.99317z M51.15154,95.14382
	c-0.35194,0.80443-0.78766,1.59209-1.35746,2.17864c1.22339-0.03352,1.9943-0.62007,2.51382-1.42449
	C51.90569,95.64659,51.52023,95.3952,51.15154,95.14382z M42.42021,94.72485c-0.30166-0.45248-0.5698-0.90498-0.80442-1.35746
	c-0.73739-0.06704-1.65912-0.18435-2.69817-0.3687l-0.65359,0.88822c-0.05028,2.34623-0.11731,4.75949-0.21786,7.13924
	C39.5377,98.93131,41.01247,96.8197,42.42021,94.72485z M40.94543,91.95966c-0.10055-0.25138-0.18435-0.48601-0.26814-0.70387
	c-0.18435,0.03352-0.36869,0.05028-0.53628,0.08379l-0.33517,0.45249C40.20805,91.8591,40.5935,91.90938,40.94543,91.95966z
	 M32.34818,88.323c-0.41897,0.38545-0.80442,0.72063-1.1396,0.97201l0.11731,0.06704
	C31.71134,89.02686,32.06328,88.67493,32.34818,88.323z M28.32607,87.35099c0.67035-0.13407,1.39098-0.43573,1.97754-1.10609
	c0.30166-0.35193,0.5698-0.70387,0.7709-1.02229c-1.6256-0.73738-3.08362-1.64236-4.35729-2.56409
	c-0.55304,0.63683-1.12284,1.32394-1.7094,2.01105C26.1977,85.70863,27.32054,86.59684,28.32607,87.35099z M22.8627,87.28395
	l-0.2849,0.36869c-0.70387,0.88822-1.35746,1.60885-1.97754,2.22892c1.27367,0.5698,2.74844,0.98877,4.44108,1.12284
	c2.14512,0.16759,3.77073-0.18435,5.01088-0.82118c-0.13407-0.06703-0.26814-0.15083-0.40221-0.23462l-0.01676,0.03352
	C26.6837,89.24473,25.41004,88.77548,22.8627,87.28395z M7.64572,63.50323c-0.13407-2.46354,0.25138-4.84329,0.63683-6.51917
	c-0.72063,1.4245-0.93849,3.50259-0.73739,5.68123C7.57868,62.95019,7.6122,63.21833,7.64572,63.50323z M47.09591,18.87457
	c-2.93279-0.25138-5.44661,1.05581-7.02193,2.21216c0.21786,0.10055,0.45249,0.20111,0.68711,0.30166
	c1.22339,0.58656,2.22892,1.27367,3.08362,2.02781c1.94402-1.20663,4.12266-2.11161,6.55268-2.51382
	C49.44214,20.13148,48.35282,19.44437,47.09591,18.87457z M38.90086,19.8801c1.08932-0.80442,2.56409-1.7094,4.34053-2.24568
	c-1.4245-0.26814-2.98307-0.41897-4.70922-0.40221C38.66624,17.93608,38.80031,18.84105,38.90086,19.8801z M87.90356,38.80077
	c-0.55304-0.01676-1.27367,0.10056-2.06133,0.65359c0.60332,1.00553,1.08932,2.09485,1.40774,3.28472
	c0.63684-0.73738,1.27367-1.45802,1.91051-2.12836C88.79178,39.97389,88.35606,39.37057,87.90356,38.80077z M84.11608,41.49894
	c-0.97202,1.9105-1.44126,4.62543-1.65912,6.16724c0.01675,0.2849,0,0.58656-0.01676,0.88821
	c0,0.21786-0.01676,0.43573-0.03352,0.63684c0.73738-1.08932,1.69263-2.43003,2.7652-3.83776
	C85.05457,43.94572,84.68587,42.67205,84.11608,41.49894z M81.73633,43.15806c0.35194-1.17311,0.82118-2.34623,1.4245-3.26797
	c-2.26244-3.21769-6.0164-5.37957-9.36816-6.78731c0.15083,0.35193,0.2849,0.72063,0.40221,1.10608
	C76.79249,35.83447,80.2448,38.70022,81.73633,43.15806z M84.9205,38.08014c0.5698-0.40221,1.1396-0.63683,1.67588-0.7709
	c-4.08915-4.25673-9.90445-6.90462-13.52435-8.24533c-0.06703,0.33518-0.15083,0.67035-0.21786,1.00553
	C76.75897,31.49394,81.82012,33.991,84.9205,38.08014z M91.3894,54.72162c1.39098-0.36869,2.9663-1.24015,4.00535-3.15065
	l0.10056,0.05028c0.8547-2.51382,1.03904-5.16171,0.98877-7.29007c-0.67036,0.93849-1.45802,1.87698-2.34624,2.7652
	l-0.30166,0.65359l0,0C93.90321,50.78331,92.96472,53.04574,91.3894,54.72162z M93.58479,55.24115
	c-1.52505,0.8547-3.10037,1.03904-4.12266,1.07256c-1.77644,1.12284-3.93832,1.86023-6.28455,2.29596v0.13407
	c0.06703,0.15083,0.15083,0.30166,0.21786,0.45249c1.57533,0.33517,4.32376,0.58656,6.97166-0.8547
	c1.00552-0.72063,2.01105-1.6256,2.98306-2.79872C93.41721,55.44225,93.501,55.3417,93.58479,55.24115z M78.51865,64.02275
	c1.07256-0.40221,2.21216-1.27367,2.86575-3.15065c-0.20111-0.5698-0.45249-1.0558-0.72063-1.47477
	c-0.13406,0.10056-0.2849,0.20111-0.41897,0.30166C79.97666,61.29107,79.28955,62.7826,78.51865,64.02275z M81.70281,55.19087
	c-0.11731-0.55304-0.23462-1.03904-0.38545-1.50829c-0.25138,0.63683-0.53628,1.24015-0.8547,1.82671
	c0.15083,0.11731,0.31842,0.25138,0.50276,0.41897C81.21681,55.69363,81.45143,55.44225,81.70281,55.19087z M82.13854,52.10725
	c0.21786,0.53628,0.43573,1.1396,0.60332,1.80995c0.46925-0.62008,0.87145-1.27367,1.24015-1.9943
	C83.34518,52.0067,82.7251,52.07373,82.13854,52.10725z M81.82012,63.01722c-1.15636,1.75967-2.79871,2.37975-4.07238,2.5641
	c0,0.11731,0.01675,0.23462,0.01675,0.35193c1.2234,0,2.51382,0,3.83777,0l0.01675-0.06703
	C81.83688,64.81042,81.88716,63.85516,81.82012,63.01722z M87.30025,60.0174c-1.37422,0.18435-2.63113,0.08379-3.60313-0.08379
	c0.11731,0.2849,0.21786,0.60332,0.30165,0.92173C84.80319,60.77155,85.9763,60.55368,87.30025,60.0174z M66.30148,87.51858
	c0.18435,0.25138,0.21786,0.45248,0.18435,0.56979c0.11731,0.35194-0.01676,0.3687-0.38545,0.08379
	c-0.10056-0.05027-0.21786-0.13407-0.35194-0.26814c-0.40221,0.2849-0.82118,0.56979-1.27367,0.83794
	c-2.89927,1.82671-5.64771,2.66465-8.0945,2.94955c0.70387,1.03905,1.94402,3.21769,2.79872,6.41862
	c1.17311,0.35194,2.34623,0.5698,3.48583,0.58656c3.56962,0.08379,7.27331-0.25138,7.40738-4.60867
	c0.03352-1.17312-0.21786-2.36299-0.58656-3.36852c-0.46925-1.27367-1.30719-2.69817-2.14513-3.97183
	C67.00536,86.99905,66.65342,87.26719,66.30148,87.51858z M55.03958,91.84235c-0.18435,0.01675-0.41897,0.05027-0.68711,0.06703
	c0,0.92173-0.10055,2.36299-0.58656,3.67017c1.3407,0.82118,2.78196,1.57533,4.23997,2.12836
	C57.03387,94.75837,55.72669,92.76408,55.03958,91.84235z M38.56569,91.42337l-0.26814-0.35193l-0.01676,0.46925l0.16759,0.03352
	L38.56569,91.42337z M42.68835,87.80347c0.88821,0.55304,1.82671,0.97201,2.54734,0.88821
	c0.7709-0.08379,1.35746-0.51952,1.79319-0.98877l0.72063-1.12283c-1.49153,0.2849-2.78196,0.51952-3.56962,0.62007
	c-0.36869,0.05028-0.7709,0.10056-1.15636,0.13407L42.68835,87.80347z M29.51594,79.54139
	c0.58656,0.62008,1.4245,1.44125,2.39651,2.11161c0.78766-0.67036,1.6256-1.67588,2.1954-3.20093l-1.6256-2.01105
	C31.57727,77.36275,30.5885,78.38503,29.51594,79.54139z M34.47654,82.84287c0.95525,0.18435,1.92726,0.05028,2.81548-0.67035
	c-0.01676-1.45802-0.03352-2.76521-0.03352-3.9048l-0.53628,0.31841C36.18594,80.5134,35.348,81.88762,34.47654,82.84287z
	 M38.26403,81.31783c0.67035-0.63684,1.1396-1.24015,1.45801-1.75967l-1.40774-1.91051l-0.10055,0.05028L38.26403,81.31783z
	 M40.14101,84.1333c0.60332,0.11731,2.01105,0.40221,3.41879,0.60332c0.63683-0.87146,1.25691-1.72616,1.86023-2.54734
	c-0.83794-0.35194-1.75967-0.82118-2.69817-1.42449c-0.50276,0.67035-1.00553,1.3407-1.50829,1.99429
	C40.86164,83.21156,40.50971,83.68081,40.14101,84.1333z M44.74968,84.88744c0.63684,0.06704,1.24015,0.10056,1.72616,0.08379
	c0.16759-0.01675,0.33517-0.03352,0.51952-0.06703c0.41897-0.11732,0.83794-0.25138,1.25691-0.38545
	c0.45248-0.20111,0.87146-0.43573,1.20663-0.65359l0.16759-0.25138c-0.46925-0.21786-0.78766-0.36869-0.90497-0.43573
	c-0.25138-0.03352-1.15636-0.21786-2.34623-0.63683C45.839,83.31212,45.30272,84.08302,44.74968,84.88744z M31.02423,36.45454
	l0.48601,3.51935l-0.72063,0.63683c-0.51952-0.15083-1.08932-0.30166-1.67588-0.45249
	c-0.72063-0.20111-1.37422-0.35194-1.9943-0.46925c0.65359-0.87146,1.49153-1.7094,2.56409-2.43002
	C30.13601,36.95731,30.57174,36.68916,31.02423,36.45454z M47.34729,28.76226c1.32394-0.13407,3.50259-0.35193,5.94937-0.46925
	c0.90497-0.03352,1.65912-0.05028,2.27919-0.03352c-0.35193-0.97201-0.83794-2.02781-1.47477-3.10038
	c-3.26796,0.21786-5.71475,0.97201-7.50794,1.84347C46.89481,27.6059,47.14619,28.19246,47.34729,28.76226z M55.79372,28.92984
	c-0.63683-0.01676-1.44126-0.01676-2.46354,0.03352c-1.37422,0.06704-2.68141,0.16759-3.78749,0.25138
	c2.64789,0.16759,4.80977,0.65359,6.55269,0.75415C56.01159,29.63371,55.91103,29.29854,55.79372,28.92984z M11.48348,56.56509
	c0.23462,0.55304,0.05028,1.18987-0.43573,1.52505c0.08379,1.15636,0.25138,2.36299,0.51952,3.65342
	c0.31842,1.47477,0.68711,2.88251,1.10608,4.20646c0.2849-1.45802,0.93849-3.06686,2.2792-4.44108
	c-0.63683-1.40774-1.30719-3.1339-1.9105-5.06116C11.31589,56.21315,11.48348,56.56509,11.48348,56.56509z M11.13155,54.30265
	c0.36869-0.0838,0.7709-0.11731,1.25691-0.13407c-0.06704-0.25138-0.13407-0.486-0.18435-0.73739
	c-0.30166,0.20111-0.67035,0.43573-1.0558,0.70387L11.13155,54.30265z M15.4218,54.41996
	c0.78766,0.11731,1.65912,0.30166,2.64789,0.53628c-0.40221-2.17864-0.40221-4.03887-0.08379-5.59743
	c0.45249-2.12837,1.50829-3.72045,2.9663-4.84329c-0.10055-0.31842-0.23462-0.70387-0.33517-1.1396
	C18.27079,45.31994,15.50559,48.80577,15.4218,54.41996z M19.86288,55.44225c0.35193,0.11731,0.68711,0.21786,1.02229,0.31842
	c-0.11731-1.60884,0.13407-3.65342,1.32394-5.93261c0.30166-0.55304,0.63683-1.05581,1.00553-1.50829
	c-0.06704-0.58656-0.11731-1.79319,0.08379-3.30148c-0.16759,0.08379-0.33518,0.16759-0.48601,0.26814
	c-1.59208,0.90498-2.74844,2.32947-3.18417,4.42432C19.30984,51.25255,19.34336,53.1463,19.86288,55.44225z M21.13655,58.45883
	L20.70082,58.308l0.06704,0.23462L21.13655,58.45883z M18.7568,57.72145c-0.25138-0.06704-0.51952-0.13407-0.78766-0.20111
	c-0.93849-0.25138-1.74291-0.43573-2.41327-0.58656c0.03352,0.36869,0.10055,0.7709,0.16759,1.15636
	c0.2849,0.75415,0.5698,1.45802,0.8547,2.11161c0.72063-0.46925,1.57533-0.88822,2.58085-1.22339
	C19.00818,58.55938,18.87411,58.14042,18.7568,57.72145z M32.71687,91.40662l-0.03352,0.40221l0.26814-0.31841L32.71687,91.40662z
	 M98.57892,39.30354c-0.11732,0.15083-0.23463,0.30166-0.35194,0.46925c-0.33517,0.46925-0.67036,0.97201-0.98877,1.49153
	c0.03352,0.16759,0.05028,0.35194,0.06703,0.55304C97.84153,40.87886,98.2605,40.02416,98.57892,39.30354z M96.38351,42.70557
	c-0.41897,0.73738-0.80442,1.49153-1.17312,2.21216c0.43573-0.5698,0.8547-1.12284,1.2234-1.67588L96.38351,42.70557z
	 M93.73563,46.37574c0.70387-1.47477,1.57533-3.18417,2.53058-4.79301c-0.08379-0.7709-0.18435-1.27367-0.21786-1.37422l0,0
	v-0.01676v-0.01676c-0.53629-2.83223-2.36299-2.36299-4.54163-0.51952C92.66306,41.64977,93.46748,43.87868,93.73563,46.37574z
	 M19.00818,74.6981c0.72063-1.07256,1.86023-2.37975,3.56962-3.46907c-1.40774-1.12283-3.10038-2.69816-4.62543-4.69246
	c-1.52505,1.74291-1.87698,3.72045-1.80995,5.36282C16.61167,72.5027,17.65072,73.74285,19.00818,74.6981z M23.06381,71.91614
	c-1.60884,1.02229-2.68141,2.22892-3.36852,3.23445c1.24015,0.75414,1.94402,1.10608,2.29595,1.24015l0.35193-0.25138l0,0
	c0.05028-0.26814,0.10055-0.72063,0.20111-1.52505C22.64484,73.67581,22.8627,72.65353,23.06381,71.91614z M39.06845,23.38268
	c0,0.25138-0.01676,0.486-0.01676,0.73739c-0.05028,1.03905-0.16759,2.2792-0.31842,3.56962
	c0.90497-0.97201,1.9105-1.9105,2.98306-2.78196c-0.58656-0.45249-1.25691-0.88822-2.02781-1.24015
	C39.48742,23.56703,39.26956,23.46648,39.06845,23.38268z M38.33107,30.79007c-0.13407,0.90497-0.26814,1.77643-0.38545,2.56409
	c0.43573-0.51952,0.93849-1.03904,1.4245-1.50829L38.33107,30.79007z M36.42056,20.165
	c-0.10055-0.98877-0.23462-1.84347-0.35194-2.51382c-1.39098,0.87146-2.63113,1.80995-3.68693,2.71492
	C33.58833,20.11472,34.96255,19.99741,36.42056,20.165z M83.496,31.56097c1.37422-0.80442,3.77073-2.34623,5.6142-4.35729
	c-0.51952-0.18435-1.18987-0.25138-2.06133-0.16759c-0.90498,0.10055-1.82671,0.33518-2.71492,0.62008
	c-0.63683,0.82118-1.34071,1.84347-2.06133,3.10038C82.67482,31.02469,83.0938,31.27608,83.496,31.56097z M81.70281,30.42138
	c0.50276-0.90498,1.00553-1.67588,1.49153-2.34623c-1.18987,0.46925-2.26244,1.00553-3.06686,1.44126
	C80.64701,29.8013,81.16653,30.10296,81.70281,30.42138z M91.22181,49.4426c-1.25691,0.80442-2.68141,1.47477-4.29025,1.9105
	c-0.58656,1.7094-1.45802,3.18417-2.4803,4.4746C87.95384,54.83893,90.66877,52.91167,91.22181,49.4426z M79.22251,52.17429
	c-0.50276-0.01676-0.97201-0.05028-1.4245-0.10055c0.35194,0.36869,0.67036,0.7709,0.97202,1.22339
	C78.93761,52.92843,79.08844,52.55974,79.22251,52.17429z M76.99359,51.31959c0.72063,0.10055,1.52505,0.18435,2.43002,0.20111
	c0.2849-0.97201,0.46925-1.9943,0.51952-3.08362c0.23463-4.82653-2.17864-8.17829-4.6757-10.35693
	c0.33517,1.57533,0.45248,2.94955,0.43572,4.17294c0.20111,1.50829,0.30166,3.11713,0.26814,4.77626
	c-0.03352,1.22339-0.08379,2.36299-0.13407,3.43555C76.22269,50.71627,76.60814,51.00117,76.99359,51.31959z M82.08826,51.45366
	c0.70387-0.05028,1.44125-0.13407,2.21216-0.25138c0.51952-1.27367,0.8547-2.69816,0.90498-4.27349
	C83.81442,48.83929,82.67482,50.54868,82.08826,51.45366z M87.18294,50.59896c1.54181-0.46925,2.91603-1.17311,4.13942-2.01105
	c0-0.25138,0.01676-0.51952,0-0.7709c-0.05028-2.36299-0.68711-4.4746-1.67588-6.36834
	c-0.70387,0.7709-1.42449,1.60884-2.12836,2.46354c0.08379,0.43573,0.13407,0.88822,0.16759,1.34071
	C87.83653,47.23044,87.61867,49.00687,87.18294,50.59896z M75.15012,45.87298c-0.50276,1.54181-1.22339,2.61437-1.86022,3.31824
	c0.50276,0.18435,1.10608,0.45248,1.72616,0.78766c0.05027-0.92173,0.10055-1.92726,0.11731-2.98307
	C75.15012,46.62712,75.15012,46.25843,75.15012,45.87298z M71.54699,45.78919c0.08379,0.18435,0.18434,0.35193,0.26814,0.53628
	c0.06704,0.13407,0.13407,0.2849,0.20111,0.41897c0.30166-0.67035,0.80442-2.24568,0.25138-4.80977
	c-0.7709-3.55286-2.58086-0.65359-2.58086-0.65359C70.62525,42.32012,71.22857,44.41497,71.54699,45.78919z M73.22286,50.96765
	c0.31842,2.31271,0.08379,4.35729-0.16759,5.66447c0.45249,0.03352,0.90498,0.05027,1.35747,0.08379
	c0.16759-1.22339,0.35193-2.86575,0.50276-4.87681C74.32895,51.45366,73.74239,51.16876,73.22286,50.96765z M26.46584,37.86228
	c0.63683-0.70387,1.39098-1.37422,2.2792-1.99429c1.20663-0.80442,2.39651-1.37422,3.55286-1.75967
	c-0.50277,0.06704-1.03905,0.16759-1.55857,0.26814l-0.08379,0.11731c0,0-0.05028-0.01676-0.11731-0.06704
	c-1.37422,0.30166-2.79872,0.75415-4.12266,1.45802c-0.51952,0.26814-0.97201,0.53628-1.39098,0.78766
	C25.51059,37.05786,26.06363,37.49359,26.46584,37.86228z M23.68388,50.59896c-1.03905,1.97754-1.25691,3.70369-1.15636,5.0444
	c0.38545-1.30719,0.98877-2.93279,1.9105-4.72598c0.82118-1.57533,1.94402-2.7652,3.0501-3.65342
	C26.04687,47.83376,24.60562,48.83929,23.68388,50.59896z M15.77373,63.20157c-2.37975,2.94955-1.47477,6.72028-1.47477,6.73704
	l-0.15083,0.03352c0.21786,0.48601,0.43573,0.97201,0.65359,1.44125c0-1.87698,0.51952-4.05563,2.32947-5.98289
	C16.66195,64.72662,16.1927,63.98923,15.77373,63.20157z M18.48866,32.2816c-0.21786-0.31842-0.62008-0.83794-1.22339-1.52505
	c-1.89374,2.24568-3.0501,4.84329-3.67017,7.55821c2.51382-0.11731,4.59191,0.43573,5.83206,0.88822
	c0.13407-0.30166,0.30166-0.67035,0.5698-1.07256C19.42715,36.97406,18.53893,34.74514,18.48866,32.2816z M59.54769,14.6346
	l0.31842-0.36869c-0.41897-0.10055-0.8547-0.20111-1.30718-0.30166C58.91086,14.18211,59.24603,14.39997,59.54769,14.6346z
	 M75.70316,52.40891c-0.13406,1.75967-0.30166,3.20093-0.45248,4.32377c0.48601,0.01676,0.97201,0.01676,1.47478,0.01676
	c0.40221-0.53628,0.78766-1.10608,1.15635-1.7094C77.29525,53.9172,76.52435,53.0625,75.70316,52.40891z M74.96578,65.9165
	l0.25138-0.26814v-0.01676c-0.13407-1.15636-0.43573-2.14512-0.75415-2.9663l-0.13406,0.05028
	c-0.43573,0.36869-0.87146,0.68711-1.27367,0.98877c-0.01675,0.40221,0,0.87146,0.06704,1.39098
	c0.03352,0.23462,0.06703,0.50276,0.10055,0.7709C73.79266,65.88297,74.37922,65.89973,74.96578,65.9165z M81.13301,67.59238
	c-1.17311,0.01675-2.29595,0.01675-3.36852,0c-0.08379,1.02229-0.30166,1.94402-0.56979,2.71492
	c0.63683,0.2011,1.29042,0.41897,1.99429,0.60332C79.94314,70.03915,80.64701,68.94984,81.13301,67.59238z M77.21146,62.98371
	c0.3687-0.62008,0.72063-1.29043,0.97201-2.01105c-0.50276,0.2849-0.97201,0.51952-1.40774,0.73738
	C76.92656,62.09549,77.07738,62.53122,77.21146,62.98371z M76.00482,72.75408c-0.21786,0.33517-0.36869,0.50276-0.36869,0.50276
	l-0.95525-0.78767l-0.35193-0.08379l0.82117,1.50829c0.3687-0.16759,0.98877-0.45248,1.72616-0.93849L76.00482,72.75408z
	 M24.13637,78.21745l0.16759,0.16759c0.92173,0.73739,2.36299,0.48601,2.36299,0.48601s-0.73739-0.68711-1.25691-1.27367
	c-0.53628-0.5698-1.27367-2.09485-1.27367-2.09485S23.49953,77.36275,24.13637,78.21745z M36.78926,86.96554
	c-0.63684-0.11732-1.27367-0.25139-1.96078-0.43573c-0.35193,1.00552-1.00553,2.31271-2.16188,3.43555
	c0.40221,0.16759,0.80442,0.31842,1.22339,0.45249C34.81172,89.34528,35.80049,88.18893,36.78926,86.96554z M11.14831,84.09978
	c-0.03352-0.23463,0.13407-0.43573,0.36869-0.45249c0.23462-0.01675,0.43573,0.15083,0.45249,0.38545
	c0,0.03352,0.92173,10.34017,6.68676,6.35159c-4.3908-2.56409-6.16723-6.67-6.16723-6.68676
	c-0.15083-0.33517,0-0.73739,0.33518-0.88821c0.33518-0.15083,0.72063,0,0.87146,0.33517
	c0.01676,0.01675,1.74291,4.03886,6.06668,6.33482c0.67035-0.60332,1.37422-1.37422,2.16188-2.34623l0.21786-0.2849
	c-1.08932-0.67035-2.21216-1.50829-3.28472-2.4803c-2.59761-2.39651-4.27349-5.29578-5.27902-7.49118
	c-2.32947,1.50829-4.7595,4.30701-4.08914,9.30113l0,0c0.33518,2.51382,1.3407,4.42432,2.64789,5.73151
	c1.1396,1.1396,2.53058,1.86022,3.93832,2.14513c1.4245,0.30166,2.86575,0.2011,4.13942-0.2849
	c0.97201-0.36869,1.84347-0.97201,2.49706-1.77643c-1.17311-0.26814-2.22892-0.67035-3.18417-1.1396
	C12.27115,96.80295,11.14831,84.15005,11.14831,84.09978z M23.08056,85.67511l0.41897-0.53629
	c-2.4803-2.21216-5.21198-5.09467-7.60849-8.94919l-0.45249-0.30166c-0.18435,0.08379-0.36869,0.16759-0.55304,0.25138
	c0.93849,2.06133,2.51382,4.84328,4.99412,7.12248C20.91868,84.21709,22.008,85.02151,23.08056,85.67511z M24.33747,84.08302
	l1.35746-1.74291l-2.29595,0.88821C23.70064,83.51322,24.01906,83.81488,24.33747,84.08302z M28.64448,78.50234
	c0.90497-1.18987,1.74291-2.31271,2.49706-3.31824c-0.88821-0.55304-2.4803-1.22339-3.65342-0.10056
	C26.1977,76.3237,27.75627,77.83199,28.64448,78.50234z M24.15313,85.70863l-0.33518,0.40221
	c0.72063,0.41897,1.4245,0.75414,2.07809,1.0558C25.343,86.71415,24.75644,86.22815,24.15313,85.70863z M37.29202,87.68616
	c-0.87146,1.0558-1.72615,2.06133-2.54734,2.99982c0.83794,0.26814,1.69264,0.46925,2.49706,0.65359
	C37.2585,90.08267,37.27526,88.85928,37.29202,87.68616z M21.15331,36.63889c0.31842-0.33518,0.67035-0.67035,1.10608-1.02229
	c-0.21786-1.50829-0.51952-5.48012,1.39098-9.10002c-0.36869,0.10055-0.73739,0.21786-1.10608,0.35193
	C19.02494,29.91861,20.19805,34.35969,21.15331,36.63889z M30.15277,31.94643c0.53628-0.10055,1.0558-0.20111,1.57533-0.26814
	c-0.30166-1.15636-0.40221-2.78196,0.36869-4.62543c-0.7709-0.25138-1.55857-0.46925-2.36299-0.62008
	C29.11373,29.11419,29.56622,30.87386,30.15277,31.94643z M18.82383,40.40961c-1.17311-0.41897-3.13389-0.92173-5.49688-0.73738
	c-0.18435,1.0558-0.2849,2.14512-0.31842,3.21769c-0.03352,0.92173-0.03352,1.86023,0.01676,2.78196
	C15.00283,42.92344,17.38258,41.24755,18.82383,40.40961z M4.21017,47.69969c0.08379,0.45249,0.21786,0.88822,0.40221,1.27367
	c0.20111,0.45249,0.45249,0.8547,0.73739,1.20663c0.63683,0.73739,1.30719,1.15636,1.86023,1.25691l0,0
	c0.23462,0.03352,0.41897,0.03352,0.5698-0.03352c0.13407-0.05028,0.21786-0.13407,0.2849-0.25138
	c0.13407-0.23462,0.15083-0.60332,0.03352-1.08932c-0.23462-0.90498-1.64236-1.72616-3.16741-2.17864
	C4.69617,47.817,4.44479,47.74997,4.21017,47.69969z M3.38899,49.5264c-0.26814-0.60332-0.46925-1.27367-0.55304-1.96078
	c-0.486,0-0.88822,0.06703-1.17312,0.21786l0,0c-0.18435,0.10056-0.30166,0.26814-0.31842,0.48601
	c-0.05028,1.17311,1.22339,1.52505,2.22892,1.64236C3.5063,49.77778,3.43926,49.66047,3.38899,49.5264z M45.03458,24.63959
	c0.25138,0.30166,0.486,0.62008,0.70387,0.93849c1.80995-0.90498,4.1897-1.69264,7.27332-2.01105
	c-0.30166-0.40221-0.63683-0.78766-1.00553-1.17312c-0.21786,0.01676-0.45249,0.03352-0.67035,0.06704
	C49.00641,22.72909,46.91156,23.53351,45.03458,24.63959z M44.91727,29.38233c-0.13407-0.36869-0.2849-0.72063-0.46925-1.08932
	c-0.70387,0.51952-1.20663,1.00553-1.54181,1.39098C43.44249,29.58344,44.1296,29.46613,44.91727,29.38233z M57.57016,23.31565
	c0.98877-0.03352,1.9105-0.05028,2.7652-0.05028c-0.98877-0.33518-2.07809-0.60332-3.26797-0.78766
	C57.25174,22.76261,57.41933,23.03075,57.57016,23.31565z M95.00929,75.469c-0.30166,0.5698-0.78767,1.15636-1.50829,1.15636
	c-0.70387,0-1.30718-0.67035-1.7094-1.32394C92.89768,75.38521,93.98701,75.45225,95.00929,75.469z M11.73486,51.33635
	c-0.08379,0.31842-0.18435,0.63683-0.25138,0.97201l0.40221-0.25138C11.83542,51.82235,11.78514,51.57097,11.73486,51.33635z
	 M6.74074,65.71539c-0.25138-0.95525-0.43573-1.94402-0.51952-2.93279c-0.10055-0.93849-0.10055-1.87698-0.03352-2.7652
	c-0.40221,1.12284-0.55304,2.34623-0.25138,3.63666C6.08715,64.34117,6.37205,65.02827,6.74074,65.71539z M70.65877,62.34687
	c0.35194-0.23462,0.73739-0.50276,1.1396-0.80442c0.06703-0.13407,0.11731-0.2849,0.13407-0.45249
	c0.16759-1.25691-1.08932-1.69264-1.08932-1.69264s0.13407,1.77643-0.31841,2.56409
	C70.37387,62.2128,70.47443,62.34687,70.65877,62.34687z M29.56622,68.41355c1.40774,0.08379,2.74844-0.26814,2.74844-0.26814
	s-0.31842,0.97201-1.08932,1.02229C30.45443,69.23473,29.56622,68.41355,29.56622,68.41355z M61.82689,76.05556
	c0.15083,0.03352,1.89374,0.70387,3.48582-1.02229c1.59209-1.72616,0.95525-3.97184,0.95525-3.97184
	s-0.50276,1.79319-2.07809,3.16741C62.63131,75.60307,61.82689,76.05556,61.82689,76.05556z M61.40792,72.97195
	c0,0,0.98877,0.35194,2.04457-0.43573c1.0558-0.80442,0.45249-2.14513,0.45249-2.14513L61.40792,72.97195z M66.36852,76.97729
	c0,0,1.54181-0.46925,2.04457-2.07809c0.51952-1.59209,0.45248-2.46355,0.45248-2.46355s1.30719,1.97754,0.48601,3.20093
	C68.51365,76.85999,66.36852,76.97729,66.36852,76.97729z M67.80978,48.20245c0,0,0.35194,1.0558,0.98877,1.22339
	c0.62007,0.16759,1.02229,0.01676,1.02229,0.01676s0.26814,1.47477-0.83794,1.17311
	C67.87681,50.31406,67.80978,48.20245,67.80978,48.20245z M67.1059,44.54904c1.18988,1.10608,2.31271,3.30148,2.31271,3.30148
	s-1.39098-0.2849-2.06133-0.98877C66.68694,46.15788,67.1059,44.54904,67.1059,44.54904z M68.09467,39.90685l-3.10037-3.80424
	c0,0,2.07809-0.35194,2.91603,0.63683C68.73151,37.72821,68.09467,39.90685,68.09467,39.90685z M62.81566,39.45436
	c0,0,0.21786-1.9105-1.65912-3.9048c-1.89374-1.99429-3.68693-0.13407-3.68693-0.13407s2.49706,0.90497,3.36852,1.74291
	C61.69282,37.97959,62.81566,39.45436,62.81566,39.45436z M27.60544,54.58755c0.13407-0.58656,1.07256-1.55857,1.07256-1.55857
	s-1.08932-0.15083-1.27367,0.38545C27.23675,53.95072,27.60544,54.58755,27.60544,54.58755z M23.7174,65.58132
	c0,0,0.98877,0.55304,1.94402,0.70387c0.95525,0.16759,1.65912,0.10056,1.65912,0.10056s-2.1954,1.29043-3.11714,0.58656
	C23.29843,66.26842,23.7174,65.58132,23.7174,65.58132z M28.99642,63.40268c0,0-0.45249,1.08932-0.41897,2.46354
	s1.08932,1.89375,1.08932,1.89375S28.97966,66.06732,28.99642,63.40268z M40.15777,74.89921c0,0,1.65912,1.22339,3.43555,1.69263
	c0.33518,0.10056,0.65359,0.16759,0.9385,0.23463h0.01676h0.01676l0,0l0.01676,0.01675l0,0h0.01676h0.01676h0.01676h0.01676h0.01676
	v0.01676h0.01676h0.01676h0.01676h0.01676l0,0h0.01676v0.01675h0.01676h0.01676h0.01676l0,0h0.01676h0.01676l0.01676,0.01676
	h0.01676l0,0h0.01676l0,0h0.01676h0.01676h0.01676v0.01676h0.01676h0.01676h0.01676l0,0h0.01676l0,0h0.01676l0.01676,0.01675
	h0.01676l0,0h0.01676l0,0h0.01676h0.01676h0.01676l0,0l0.01676,0.01676h0.01676l0,0h0.01676h0.01676l0,0h0.01676h0.01676l0,0
	l0.01676,0.01675l0,0h0.01676h0.01676h0.01676l0,0h0.01676l0,0h0.01676h0.01676v0.01676H45.353l0,0h0.01676h0.01676l0,0h0.01676
	h0.01676l0,0h0.01676c0.68711,0.10056,1.08932,0.10056,1.08932,0.10056s-0.65359,0.45248-1.64236,0.68711h-0.01676l0,0h-0.01676l0,0
	l-0.01676,0.01675h-0.01676H44.7832h-0.01676l0,0l-0.01676,0.01676h-0.01676h-0.01676h-0.01676l0,0h-0.01676h-0.01676
	l-0.01676,0.01675h-0.01676h-0.01676h-0.01676h-0.01676l-0.01676,0.01676h-0.01676h-0.01676l0,0h-0.01676H44.4983h-0.01676h-0.01676
	l-0.01676,0.01676l0,0h-0.01676h-0.01676h-0.01676h-0.01676h-0.01676l0,0h-0.01676l-0.03352,0.01675H44.2972h-0.01676l0,0h-0.01676
	h-0.01676h-0.01676H44.2134h-0.01676l0,0h-0.01676h-0.01676l-0.01676,0.01676H44.1296h-0.01676h-0.01676l0,0h-0.01676h-0.01676
	h-0.03352h-0.01676l0,0h-0.01676h-0.01676h-0.01676h-0.01676H43.9285l0,0h-0.01676h-0.01676h-0.01676h-0.03352h-0.01676l0,0
	h-0.01676h-0.01676h-0.01676c-0.36869,0-0.7709-0.05028-1.17311-0.16759C40.49295,77.11137,40.15777,74.89921,40.15777,74.89921z
	 M53.34694,81.40162c0,0,0.53628,0.82117,1.22339,1.1396c0.68711,0.33517-0.2011,0.60332-1.00553,0.11731
	C52.77714,82.18928,53.34694,81.40162,53.34694,81.40162z M54.62061,79.74249c0,0,2.81548,0.73739,4.77625-0.2011
	c1.94402-0.92173,2.68141-1.84347,2.68141-1.84347s-1.65912,4.72598-3.58638,4.6757
	C56.58139,82.30659,54.62061,79.74249,54.62061,79.74249z"/>
</svg>
