<?xml version="1.0" encoding="utf-8"?>
<!-- Generator: Adobe Illustrator 19.0.0, SVG Export Plug-In . SVG Version: 6.00 Build 0)  -->
<svg version="1.1" id="Слой_1" xmlns="http://www.w3.org/2000/svg" xmlns:xlink="http://www.w3.org/1999/xlink" x="0px" y="0px"
	 viewBox="0 0 60 54" style="enable-background:new 0 0 60 54;" xml:space="preserve">
<style type="text/css">
	.st0{fill:#010202;}
</style>
<path class="st0" d="M9.8613,48.1263c0-0.6096-0.495-1.1057-1.1034-1.1057c-0.6084,0-1.1034,0.4961-1.1034,1.1057
	c0,0.6097,0.495,1.1057,1.1034,1.1057C9.3663,49.232,9.8613,48.736,9.8613,48.1263z"/>
<path class="st0" d="M60,24.6188c0-2.8045-2.2769-5.0859-5.0757-5.0859H43.1485c2.1746-4.5613,3.1666-9.6196,2.875-14.7352
	c-0.0772-1.3563-0.6771-2.6013-1.6888-3.5056C43.323,0.3879,42.0198-0.0676,40.6669,0.01
	c-1.3536,0.0774-2.5959,0.6785-3.4984,1.6923s-1.3568,2.3191-1.2794,3.6753c0.2414,4.2375-0.8233,8.3516-3.0797,11.8973
	c-0.5654,0.8888-2.3348,2.3816-3.9318,2.7938c-3.6522,0.9426-6.9231,3.1123-9.2648,6.1335H14.62v-5.6328
	c0-0.5725-0.4632-1.0367-1.0346-1.0367H1.0344C0.4632,19.5327,0,19.9969,0,20.5694c0,0.5724,0.4632,1.0366,1.0344,1.0366H12.551
	v30.3209H1.0344C0.4632,51.9269,0,52.391,0,52.9635c0,0.5725,0.4632,1.0366,1.0344,1.0366h12.551
	c0.5714,0,1.0346-0.4641,1.0346-1.0366v-5.6328h4.9931c3.2484,4.1857,8.2868,6.6694,13.5847,6.6694h12.6231
	c0.5714,0,1.0345-0.4641,1.0345-1.0366c0-0.5725-0.4631-1.0366-1.0345-1.0366H33.1978c-4.8164,0-9.3894-2.334-12.2329-6.2433
	c-0.1947-0.2677-0.5053-0.4261-0.836-0.4261H14.62v-16.982h5.5089c0.3307,0,0.6413-0.1584,0.836-0.4261
	c2.0771-2.856,5.0705-4.9063,8.4288-5.7731c2.0801-0.5369,4.2983-2.3319,5.1603-3.687c2.4912-3.915,3.6671-8.4553,3.4006-13.1301
	c-0.0458-0.8034,0.2234-1.5766,0.7579-2.1771c0.5345-0.6006,1.2705-0.9566,2.0722-1.0025c0.8014-0.0456,1.5734,0.2238,2.1728,0.7595
	c0.5992,0.5355,0.9546,1.273,1.0004,2.0765c0.2909,5.1028-0.7881,10.1428-3.1221,14.617h-2.139
	c-0.5713,0-1.0345,0.4641-1.0345,1.0366s0.4632,1.0366,1.0345,1.0366h2.7473c0.0033,0,0.0066,0,0.0099,0h13.4703
	c1.658,0,3.0067,1.3514,3.0067,3.0127c0,1.6612-1.3487,3.0127-3.0067,3.0127h-1.6551h-3.3104c-0.5712,0-1.0344,0.4641-1.0344,1.0365
	c0,0.5725,0.4632,1.0366,1.0344,1.0366h3.3104c1.658,0,3.0066,1.3515,3.0066,3.0128c0,1.6612-1.3486,3.0126-3.0066,3.0126H51.614
	h-1.6552c-0.5712,0-1.0344,0.4641-1.0344,1.0366s0.4632,1.0366,1.0344,1.0366h1.6552c1.6579,0,3.0066,1.3514,3.0066,3.0127
	c0,1.6612-1.3487,3.0126-3.0066,3.0126h-1.6552c-0.5712,0-1.0344,0.4641-1.0344,1.0366c0,0.5725,0.4632,1.0366,1.0344,1.0366
	c1.658,0,3.0067,1.3514,3.0067,3.0127c0,1.6612-1.3487,3.0127-3.0067,3.0127c-0.5712,0-1.0344,0.4641-1.0344,1.0366
	c0,0.5724,0.4632,1.0365,1.0344,1.0365c2.7988,0,5.0757-2.2814,5.0757-5.0858c0-1.3321-0.5138-2.5461-1.3532-3.4539
	c1.7712-0.7947,3.0083-2.5776,3.0083-4.6446c0-1.3319-0.5138-2.5462-1.3531-3.4539c1.7712-0.7947,3.0083-2.5777,3.0083-4.6446
	c0-1.332-0.5138-2.5461-1.3531-3.4539C58.7628,28.4687,60,26.6858,60,24.6188z"/>
</svg>
