<?xml version="1.0" encoding="utf-8"?>
<!-- Generator: Adobe Illustrator 19.0.0, SVG Export Plug-In . SVG Version: 6.00 Build 0)  -->
<svg version="1.1" id="Слой_1" xmlns="http://www.w3.org/2000/svg" xmlns:xlink="http://www.w3.org/1999/xlink" x="0px" y="0px"
	 viewBox="0 0 74 66" style="enable-background:new 0 0 74 66;" xml:space="preserve">
<style type="text/css">
	.st0{fill:#010202;}
</style>
<path class="st0" d="M73.1065,18.2041c-0.9479-1.738-2.5288-3.0091-4.4513-3.5798c-1.9224-0.5711-3.9565-0.3729-5.727,0.5577
	s-3.0661,2.4819-3.6477,4.3687c-0.3877,1.2568-0.4192,2.5611-0.1226,3.806l-8.1193,4.2666c-2.4695-3.4025-6.319-5.773-10.742-6.3192
	v-6.7999c3.2008-0.8472,5.5633-3.7197,5.5633-7.1247c0-4.0691-3.3731-7.3796-7.5194-7.3796c-4.1461,0-7.5197,3.3105-7.5197,7.3796
	c0,3.4054,2.363,6.2778,5.5634,7.125v6.7993c-5.6491,0.6979-10.3656,4.3719-12.4611,9.3692l-8.8861-2.3496
	c0.002-1.2787-0.3299-2.542-0.9975-3.6801c-1.0019-1.7084-2.6218-2.9318-4.5609-3.4449c-4.0047-1.059-8.1382,1.2769-9.2169,5.2059
	c-0.5226,1.9036-0.2587,3.8926,0.7432,5.6006c1.0019,1.7085,2.6218,2.9322,4.561,3.445l0,0
	c0.6509,0.1722,1.3114,0.2574,1.9684,0.2574c1.2991,0,2.5819-0.3337,3.7386-0.9867c1.1596-0.6552,2.0934-1.5833,2.7464-2.6898
	l8.8863,2.35c-0.0958,0.685-0.1496,1.3826-0.1496,2.0932c0,3.5262,1.2254,6.7751,3.276,9.3649l-6.5153,6.3943
	c-2.8734-1.6203-6.6095-1.2348-9.0624,1.1719c-2.9318,2.8772-2.9318,7.5591,0,10.4366C11.9203,65.2808,13.8458,66,15.7715,66
	c1.9255,0,3.8512-0.7192,5.3172-2.1583c2.4526-2.4072,2.8455-6.0739,1.1943-8.8935l6.5153-6.394
	c2.639,2.0123,5.949,3.2152,9.5422,3.2152c3.5934,0,6.9033-1.2029,9.5424-3.2152l6.5153,6.394
	c-1.6509,2.8199-1.2584,6.4867,1.1942,8.8935C57.0584,65.2808,58.9838,66,60.9096,66c1.9257,0,3.8511-0.7196,5.3172-2.1583
	c2.9317-2.8771,2.9317-7.5591,0-10.4366c-2.4525-2.4071-6.189-2.7922-9.0622-1.1719l-6.5153-6.3943
	c2.0506-2.5898,3.2762-5.8384,3.2762-9.3649c0-1.9264-0.3685-3.7693-1.0339-5.4687l8.1134-4.2637
	c0.8914,0.9327,2.0148,1.6296,3.2957,2.0101c0.7199,0.2136,1.4556,0.3193,2.1873,0.3193c1.2218,0,2.4322-0.2956,3.5397-0.8774
	c1.7709-0.9303,3.0661-2.4819,3.6477-4.3687C74.2571,21.9381,74.0546,19.9416,73.1065,18.2041z M68.1803,24.8084
	c-0.8494,0.4466-1.8251,0.5419-2.7473,0.2675c-0.9223-0.2736-1.6806-0.8835-2.1354-1.7174
	c-0.4551-0.8336-0.5517-1.7915-0.2726-2.6966c0.2787-0.9051,0.9004-1.6491,1.7501-2.0957c0.5313-0.2791,1.1119-0.4208,1.6981-0.4208
	c0.3508,0,0.7039,0.0507,1.0492,0.1532c0.9222,0.2733,1.6805,0.8835,2.1353,1.7175c0.4552,0.8335,0.5516,1.7911,0.2726,2.6962
	C69.6515,23.6181,69.0298,24.3621,68.1803,24.8084z M50.0127,36.474c0,6.3163-5.2363,11.4552-11.6724,11.4552
	S26.6678,42.7903,26.6678,36.474c0-6.3167,5.2364-11.4556,11.6725-11.4556S50.0127,30.1573,50.0127,36.474z M34.7329,7.3795
	c0-1.9522,1.6183-3.5402,3.6074-3.5402c1.989,0,3.6072,1.5883,3.6072,3.5402c0,1.9523-1.6182,3.5402-3.6072,3.5402
	C36.3512,10.9197,34.7329,9.3318,34.7329,7.3795z M6.5836,31.7428c-0.9305-0.246-1.7073-0.8332-2.1878-1.6527
	c-0.481-0.8195-0.6074-1.7735-0.3567-2.6869c0.5174-1.885,2.5012-3.0051,4.4217-2.4974c0.9304,0.246,1.7073,0.8328,2.1881,1.6524
	c0.4805,0.8198,0.6071,1.7738,0.3564,2.6872C10.4879,31.1304,8.5048,32.2505,6.5836,31.7428z M18.3223,61.1264
	c-1.4061,1.3805-3.6951,1.3805-5.1017,0c-1.4065-1.3802-1.4065-3.6262,0-5.0067c0.7031-0.6904,1.627-1.0352,2.5509-1.0352
	c0.9236,0,1.8475,0.3452,2.5508,1.0352C19.7286,57.5002,19.7286,59.7462,18.3223,61.1264z M63.4599,56.1197
	c1.4064,1.3802,1.4064,3.6262,0,5.0067c-1.406,1.3805-3.6949,1.3805-5.1017,0c-1.4063-1.3802-1.4063-3.6262,0-5.0067
	c0.7032-0.6904,1.6272-1.0352,2.5511-1.0352C61.8328,55.0845,62.7567,55.4293,63.4599,56.1197z"/>
</svg>
