<?xml version="1.0" encoding="utf-8"?>
<!-- Generator: Adobe Illustrator 19.0.0, SVG Export Plug-In . SVG Version: 6.00 Build 0)  -->
<svg version="1.1" id="Слой_1" xmlns="http://www.w3.org/2000/svg" xmlns:xlink="http://www.w3.org/1999/xlink" x="0px" y="0px"
	 viewBox="0 0 28 38" style="enable-background:new 0 0 28 38;" xml:space="preserve">
<style type="text/css">
	.st0{fill:#010202;}
</style>
<path class="st0" d="M27.2761002,9.6391001c-0.0785007-2.4310999-0.1222-5.7150002-0.0988998-8.1478004
	c0.0009003-0.109-0.0160999-0.2041-0.0403004-0.2941C27.1832008,0.667,26.8778992,0.1083,26.2112999,0.1256
	C17.7959003,0.3505,9.3824997,0.0149,0.9674,0.0015c-0.7-0.0013-1.0065,0.6253-0.9204,1.175
	C0.0194,1.2725-0.0003,1.3749,0.0011,1.4917001C0.1279,11.7160997,0.4732,26.4071007,0.484,36.6328011
	c0,0.229599,0.064,0.4160004,0.166,0.5634995c0.0618,0.4328003,0.3679,0.8163986,0.9214001,0.8026009
	c3.6371999-0.0921021,7.2758994-0.1514015,10.9103003-0.3330002c3.2391996-0.1617012,7.2762995,0.0548973,10.3725004-1.0214005
	c1.0959988-0.3810005,2.0767994-0.9449005,2.917099-1.7603989c1.5372009-1.4915009,2.0615005-3.4941025,2.1944008-5.6035023
	c0.1264992-2.0271988-0.1077995-4.1530991-0.1541004-6.0202999C27.6914005,18.4370003,27.4319992,14.4611998,27.2761002,9.6391001z
	 M21.9515991,27.8761005c-0.5918999,0.0033989-1.164299,0.4743996-0.8997993,1.1973991
	c0.5324993,1.4547005,0.7758007,3.2614002-0.0429001,4.6530018c-0.9892998,1.6824989-2.7556992,1.6366997-4.4345989,1.8515968
	c-1.026701,0.1332016-2.1188011,0.0627022-3.153801,0.0921021c-0.8056993,0.0233994-11.0064001,0.2767982-11.0064001,0.3173981
	C2.3901,26.1455002,2.0704999,11.8359003,1.9414999,1.9937c7.7694006,0.0346,15.5363998,0.3062,23.3057995,0.1371
	c-0.0296001,8.0809002,0.6744003,19.7625999,0.7160015,26.1486988c-1.205101-0.3869991-2.450901-0.5503998-3.7375011-0.4626999
	C22.1247997,27.8232994,22.0352001,27.8467007,21.9515991,27.8761005z M22.7106991,34.6039009
	c0.7805004-1.3540001,0.9749012-3.0145016,0.5694008-4.8156013c0.9397011,0.0375996,1.8661995,0.2217999,2.743,0.6002007
	c0.0039005,0.0107994,0.0063992,0.0228996,0.0107002,0.033699C25.7488003,32.5563011,24.4235992,33.8652992,22.7106991,34.6039009z"
	/>
<path class="st0" d="M6.2181001,12.3227997c-0.4953003-0.0535994-0.7895002,0.2270002-0.8923001,0.5907001
	C5.2282,13.0597,5.1668,13.2421999,5.1672001,13.4661999c0.0095997,3.0067005,0.1043,6.0069008-0.2174001,9.0014992
	c-0.1373,1.2765007,1.8210001,1.262701,1.9566002,0c0.1399999-1.3007984,0.1987-2.6032982,0.2226996-3.9057999
	C8.6966,18.5125999,10.2511997,17.8169003,10.1636,15.8929996C10.0677996,13.7944002,8.0799999,12.5226002,6.2181001,12.3227997z
	 M8.1026001,16.3733997c-0.2648001,0.2075996-0.6127,0.2642002-0.9591999,0.2581997
	C7.1416998,15.9531002,7.1359,15.2736998,7.1307998,14.5948c0.5295,0.2768002,0.9482007,0.7363997,1.0804,1.3348999
	C8.2390003,16.0559998,8.1781998,16.3146,8.1026001,16.3733997z"/>
<path class="st0" d="M12.5653,12.2108002c-0.6018-0.1643-1.0312996,0.2200994-1.1674004,0.6919003
	c-0.1752996,0.1603994-0.2911997,0.3964996-0.2882996,0.7114c0.0264997,2.7121992,0.3394995,5.4075003,0.4348001,8.1162996
	c0.0124998,0.362299,0.1803999,0.6182995,0.4096003,0.7756996c0.2121992,0.2695007,0.5490999,0.4346008,0.9735994,0.332201
	C18.3798008,21.5244999,17.5517006,13.5712004,12.5653,12.2108002z M13.4424,20.4776001
	c-0.1086998-1.9528999-0.2891998-3.9018002-0.3541002-5.8572998C15.0320997,15.9686003,15.4347,19.1786003,13.4424,20.4776001z"/>
<path class="st0" d="M21.1460991,12.3227997c-0.7715988,0.0722008-1.5451984,0.0731001-2.3188,0.0740004
	c-0.4848995,0-0.7812996,0.2948999-0.8933983,0.6563997c-0.0645008,0.1349001-0.1003017,0.2948999-0.085001,0.4878006
	c0.2180004,2.7567005,0.3992004,5.5026989,0.1448994,8.2637005c-0.1175995,1.2791996,1.8397999,1.2678986,1.9566002,0
	c0.0964012-1.0456009,0.1274014-2.0890007,0.1202011-3.1316013c0.0527-0.0125999,0.1026993-0.0306988,0.1553993-0.0415001
	c0.0300999-0.0060997,0.0471001-0.0103989,0.0627995-0.0129986c0.0153008-0.0017014,0.0264015-0.0026016,0.0501003-0.0056
	c0.1240005-0.0130005,0.2480011-0.0165005,0.3724003-0.0178013c0.5328007-0.0068989,0.9783001-0.448,0.9783001-0.9962997
	c0-0.5375004-0.4445992-1.0028-0.9783001-0.9962997c-0.2334995,0.0030003-0.4666004,0.0242004-0.6984997,0.0575008
	C19.9762993,15.9012003,19.927,15.1414003,19.8701,14.3811998c0.4255009-0.0086994,0.8509998-0.026,1.2759991-0.0653
	c0.5311012-0.0496998,0.9783001-0.4159994,0.9783001-0.9962997C22.1243992,12.8132,21.6781006,12.2727003,21.1460991,12.3227997z"/>
</svg>
