<?xml version="1.0" encoding="utf-8"?>
<!-- Generator: Adobe Illustrator 19.0.0, SVG Export Plug-In . SVG Version: 6.00 Build 0)  -->
<svg version="1.1" id="Слой_1" xmlns="http://www.w3.org/2000/svg" xmlns:xlink="http://www.w3.org/1999/xlink" x="0px" y="0px"
	 viewBox="0 0 53 53" style="enable-background:new 0 0 53 53;" xml:space="preserve">
<style type="text/css">
	.st0{fill:#010202;}
</style>
<path class="st0" d="M26.5030003,53.0078011C11.8862,53.0078011-0.0039,41.1176987-0.0039,26.5028992
	C-0.0039,11.8872995,11.8862-0.0043,26.5030003-0.0043c14.6155987,0,26.5054989,11.8903999,26.5054989,26.5071983
	C53.0084991,41.1184998,41.1172981,53.0078011,26.5030003,53.0078011z M26.5030003,1.7934
	C12.8785,1.7934,1.7937,12.8786001,1.7937,26.5028992c0,13.6235008,11.0847998,24.7083015,24.709301,24.7083015
	c13.6230984,0,24.7079983-11.0848007,24.7079983-24.7083015C51.2109985,12.8786001,40.1260986,1.7934,26.5030003,1.7934z"/>
<path class="st0" d="M15.3409004,26.5016994h22.322998"/>
<path class="st0" d="M37.6638985,27.4006004h-22.322998c-0.4962006,0-0.8989-0.402401-0.8989-0.898901
	c0-0.4960003,0.4026995-0.8984985,0.8989-0.8984985h22.322998c0.4962006,0,0.8987999,0.4024982,0.8987999,0.8984985
	C38.5626984,26.9981995,38.160099,27.4006004,37.6638985,27.4006004z"/>
<path class="st0" d="M26.5030003,15.3409004v22.3223991"/>
<path class="st0" d="M26.5030003,38.5617981c-0.4962997,0-0.8987999-0.4027977-0.8987999-0.8984985V15.3409004
	c0-0.4964008,0.4025002-0.8993006,0.8987999-0.8993006c0.4960995,0,0.8986988,0.4028997,0.8986988,0.8993006v22.3223991
	C27.4016991,38.1590004,26.9990997,38.5617981,26.5030003,38.5617981z"/>
</svg>
