<?xml version="1.0" encoding="utf-8"?>
<!-- Generator: Adobe Illustrator 19.0.0, SVG Export Plug-In . SVG Version: 6.00 Build 0)  -->
<svg version="1.1" id="Слой_1" xmlns="http://www.w3.org/2000/svg" xmlns:xlink="http://www.w3.org/1999/xlink" x="0px" y="0px"
	 viewBox="0 0 54.9999237 44.0926018" style="enable-background:new 0 0 54.9999237 44.0926018;" xml:space="preserve">
<style type="text/css">
	.st0{fill:#010202;}
</style>
<path class="st0" d="M1.8845999,25.4626007h5.9495001l2.1359997,4.2357998
	c0.1485004,0.2947998,0.4525003,0.4811993,0.7849007,0.4811993c0.3324995,0,0.6363993-0.1861,0.7848997-0.4811993
	l2.1360998-4.2357998h0.4357996c0.4847002,0,0.8776007-0.3895016,0.8776007-0.8703003
	c0-0.4804001-0.3929005-0.8703995-0.8776007-0.8703995h-0.9782991c-0.3324003,0-0.6363001,0.1861-0.7848005,0.4811993
	l-1.5936995,3.1604004l-1.5934-3.1604004c-0.1487007-0.2947998-0.4526005-0.4811993-0.7850008-0.4811993H1.8845999
	c-0.0712999,0-0.1293-0.0574017-0.1293-0.1281013V1.8688999C1.7552999,1.7982,1.8133,1.7407,1.8845999,1.7407h17.7409248
	c0.0713005,0,0.1293011,0.0575,0.1293011,0.1281999v9.4341993c0,0.4809008,0.3929996,0.8700008,0.8776989,0.8700008
	c0.4848003,0,0.8778-0.3891001,0.8778-0.8700008V1.8688999C21.5103245,0.8384,20.6648254,0,19.6255245,0H1.8845999
	C0.8455,0,0,0.8384,0,1.8688999v21.7248993C0,24.6245995,0.8455,25.4626007,1.8845999,25.4626007z"/>
<path class="st0" d="M10.7551994,3.4809999c-2.4209995,0-4.3904996,1.9530001-4.3904996,4.3533001
	c0,2.4006996,1.9696002,4.3535995,4.3904996,4.3535995c2.4208002,0,4.3903999-1.9528999,4.3903999-4.3535995
	C15.1455994,5.434,13.1759996,3.4809999,10.7551994,3.4809999z M10.7551994,10.4471998
	c-1.4530993,0-2.6351995-1.1719999-2.6351995-2.6128998c0-1.4405999,1.1821003-2.6129999,2.6351995-2.6129999
	c1.4530001,0,2.6350002,1.1724,2.6350002,2.6129999C13.3901997,9.2751999,12.2079992,10.4471998,10.7551994,10.4471998z"/>
<path class="st0" d="M10.7551994,15.6686001c1.0319004,0,2.0374002,0.2853003,2.9073,0.8250008
	c0.4112005,0.2549,0.9525003,0.1316986,1.2095003-0.2757015c0.2572002-0.4077997,0.1324997-0.9448996-0.2783003-1.199399
	c-1.1494999-0.7133007-2.4769001-1.0906-3.8385-1.0906c-3.9948997,0-7.2445993,3.2230988-7.2445993,7.1837997
	c0,0.4804001,0.3929,0.8698997,0.8776,0.8698997h9.7235994c0.4847002,0,0.8776007-0.3894997,0.8776007-0.8698997
	c0-0.4808998-0.3929005-0.8708-0.8776007-0.8708H5.3358998C5.7574,17.6522999,8.0270996,15.6686001,10.7551994,15.6686001z"/>
<path class="st0" d="M53.1154251,0H35.374424c-1.039299,0-1.8848,0.8384-1.8848,1.8688999v9.4341993
	c0,0.4809008,0.3929024,0.8700008,0.8777008,0.8700008c0.4849014,0,0.8776016-0.3891001,0.8776016-0.8700008V1.8688999
	c0-0.0706999,0.0580978-0.1281999,0.1294975-0.1281999h17.7409019c0.0713005,0,0.1292,0.0575,0.1292,0.1281999v21.7248993
	c0,0.0706997-0.0578995,0.1281013-0.1292,0.1281013h-6.4920998c-0.3324013,0-0.6364021,0.1861-0.7849998,0.4811993
	l-1.593502,3.1599998l-1.5936012-3.1599998c-0.1486969-0.2950993-0.4524994-0.4811993-0.7849998-0.4811993h-0.9779968
	c-0.4848022,0-0.8776016,0.3899994-0.8776016,0.8703995c0,0.4807987,0.3927994,0.8703003,0.8776016,0.8703003h0.4357986
	l2.1358986,4.2357998c0.1487999,0.2947998,0.4526024,0.4811993,0.7849998,0.4811993
	c0.3325005,0,0.6365013-0.1863995,0.7849998-0.4811993l2.1361008-4.2357998h5.949501
	c1.0391006,0,1.8844986-0.8383999,1.8844986-1.8688011V1.8688999C54.9999237,0.8384,54.1544266,0,53.1154251,0z"/>
<path class="st0" d="M44.2448235,3.4809999c-2.4208984,0-4.3904991,1.9530001-4.3904991,4.3533001
	c0,2.4006996,1.9696007,4.3535995,4.3904991,4.3535995c2.4210014,0,4.3905029-1.9528999,4.3905029-4.3535995
	C48.6353264,5.434,46.6657257,3.4809999,44.2448235,3.4809999z M44.2448235,10.4471998
	c-1.4529991,0-2.6352005-1.1719999-2.6352005-2.6128998c0-1.4405999,1.1822014-2.6129999,2.6352005-2.6129999
	c1.4530029,0,2.6352005,1.1724,2.6352005,2.6129999C46.8799248,9.2751999,45.6978264,10.4471998,44.2448235,10.4471998z"/>
<path class="st0" d="M40.0105247,21.1117001c0,0.4804001,0.3927994,0.8698997,0.8776016,0.8698997h9.7235985
	c0.4847984,0,0.8776016-0.3894997,0.8776016-0.8698997c0-3.960701-3.2498016-7.1837997-7.244503-7.1837997
	c-1.3616982,0-2.6889992,0.3772993-3.8384972,1.0906c-0.4108009,0.2547998-0.5354996,0.7919998-0.2784996,1.199399
	c0.2571983,0.4074001,0.7983971,0.5306015,1.2096977,0.2757015c0.8699989-0.5394011,1.8753014-0.8247013,2.907299-0.8247013
	c2.7280998,0,4.9976997,1.9838009,5.4193001,4.572401h-8.775898C40.4034233,20.2409,40.0105247,20.6312008,40.0105247,21.1117001z"
	/>
<path class="st0" d="M16.7447243,15.7814999v21.7253017c0,1.0304985,0.8455009,1.8684998,1.8847008,1.8684998h5.9496002
	l2.1359005,4.2360992c0.1486988,0.2947998,0.4525986,0.4812012,0.7848988,0.4812012
	c0.3324013,0,0.6364002-0.1864014,0.7849998-0.4812012l2.1359997-4.2360992h5.9494991
	c1.0393028,0,1.8847008-0.8380013,1.8847008-1.8684998V15.7814999c0-1.0300999-0.8455009-1.8684998-1.8847008-1.8684998H18.629425
	C17.5902252,13.9130001,16.7447243,14.7514,16.7447243,15.7814999z M36.4997253,15.7814999v21.7253017
	c0,0.0706978-0.0579987,0.1281967-0.1292992,0.1281967h-6.4919014c-0.3323994,0-0.6364002,0.1860008-0.7849007,0.4808006
	l-1.5935993,3.1607018l-1.5935993-3.1603012c-0.1485004-0.2947998-0.4525013-0.4812012-0.7849007-0.4812012h-6.4920006
	c-0.0712986,0-0.1292992-0.0574989-0.1292992-0.1281967V15.7814999c0-0.0703001,0.0580006-0.1281996,0.1292992-0.1281996h17.7409019
	C36.4417267,15.6533003,36.4997253,15.7111998,36.4997253,15.7814999z"/>
<path class="st0" d="M27.5000248,26.1005993c2.4207993,0,4.3903999-1.9529991,4.3903999-4.3533001
	c0-2.4006996-1.9694996-4.3535995-4.3903999-4.3535995c-2.4209995,0-4.3904991,1.9528999-4.3904991,4.3535995
	C23.1095257,24.1476002,25.0790253,26.1005993,27.5000248,26.1005993z M27.5000248,19.1343994
	c1.4528999,0,2.6350994,1.1727009,2.6350994,2.6133003c0,1.4405003-1.1821995,2.6126003-2.6350994,2.6126003
	c-1.4531002,0-2.6352005-1.1721001-2.6352005-2.6126003C24.8648243,20.3071003,26.0469246,19.1343994,27.5000248,19.1343994z"/>
<path class="st0" d="M21.1330242,35.8945999h12.7337017c0.4848976,0,0.8775978-0.3890991,0.8775978-0.8703003
	c0-3.9606991-3.2497997-7.1830006-7.2442989-7.1830006c-3.9946003,0-7.2446003,3.2223015-7.2446003,7.1830006
	C20.2554245,35.5051003,20.648325,35.8945999,21.1330242,35.8945999z M27.5000248,29.5811996
	c2.7278996,0,4.9974995,1.9838009,5.4190998,4.5727005H22.080925C22.502224,31.5650005,24.771925,29.5811996,27.5000248,29.5811996z
	"/>
</svg>
