<?xml version="1.0" encoding="utf-8"?>
<!-- Generator: Adobe Illustrator 19.0.0, SVG Export Plug-In . SVG Version: 6.00 Build 0)  -->
<svg version="1.1" id="Слой_1" xmlns="http://www.w3.org/2000/svg" xmlns:xlink="http://www.w3.org/1999/xlink" x="0px" y="0px"
	 viewBox="0 0 73.9999 59.9998" style="enable-background:new 0 0 73.9999 59.9998;" xml:space="preserve">
<style type="text/css">
	.st0{fill:#010202;}
</style>
<path class="st0" d="M58.1254,43.3912c-0.0433-0.0118-0.0875-0.0211-0.1319-0.0276l-9.0373-1.3283
	c-1.4615-0.9264-1.5993-3.2237-1.6021-5.7115c2.854-2.8817,4.634-6.9386,4.634-11.4262v-0.3635
	c2.2152-1.927,3.4756-4.661,3.4756-7.581v-6.8096C55.4637,4.5505,50.8189,0,45.1096,0H30.0489
	c-2.1619,0-3.9774,1.4811-4.4448,3.4617c-3.9763,0.4706-7.0679,3.7967-7.0679,7.8168v5.6746c0,2.9205,1.2603,5.6542,3.4755,7.5811
	v0.3634c0,4.4876,1.7801,8.5445,4.6339,11.4262c-0.0026,2.4878-0.1406,4.785-1.6021,5.7115l-9.0373,1.3283
	c-0.0445,0.0065-0.0884,0.0158-0.1319,0.0276c-1.9876,0.5455-3.6787,1.7529-4.8907,3.4921
	c-1.1062,1.5873-1.7156,3.5037-1.7156,5.396v4.3963c0,1.8329,1.6692,3.3242,3.7207,3.3242h48.0222
	c2.0517,0,3.7208-1.4913,3.7208-3.3242v-4.3963c0-1.892-0.6094-3.8084-1.7157-5.3959
	C61.8042,45.1443,60.113,43.9367,58.1254,43.3912z M37,40.7157c3.0324,0,5.8566-0.9561,8.2182-2.5966
	c0.1044,1.9419,0.5149,4.0964,2.1269,5.3949C46.4733,47.862,42.1419,51.0721,37,51.0721c-5.142,0-9.4735-3.2101-10.3453-7.5581
	c1.6122-1.2985,2.0226-3.453,2.127-5.3949C31.1433,39.7596,33.9675,40.7157,37,40.7157z M24.1839,24.1446
	c0.0061-0.0649,0.0059-0.1296,0-0.1943v-5.8625c0-1.9165,1.5916-3.4757,3.5479-3.4757h19.6947c0.5999,0,1.0862-0.4763,1.0862-1.0639
	c0-0.5876-0.4863-1.0641-1.0862-1.0641H27.7318c-3.154,0-5.7201,2.5139-5.7201,5.6037v3.207
	c-0.8424-1.2776-1.3034-2.7751-1.3034-4.3419v-5.6746c0-3.1682,2.631-5.7457,5.865-5.7457c0.5998,0,1.0861-0.4761,1.0861-1.064
	c0-1.2906,1.0719-2.3408,2.3895-2.3408h15.0607c4.5114,0,8.1819,3.5959,8.1819,8.0156v6.8095c0,1.5664-0.4609,3.064-1.3034,4.3418
	v-4.3418c0-0.5877-0.4861-1.064-1.086-1.064c-0.5998,0-1.0861,0.4763-1.0861,1.064v7.9446c0,7.5486-5.7493,13.6901-12.816,13.6901
	c-7.0669,0-12.8161-6.1415-12.8161-13.6901V24.1446z M62.5596,56.6756c0,0.6485-0.7091,1.1962-1.5484,1.1962H12.9887
	c-0.8392,0-1.5484-0.5477-1.5484-1.1962v-4.3963c0-2.6967,1.7026-5.8936,4.9577-6.8216l8.1945-1.2044
	C25.8074,49.4231,30.9428,53.2,37,53.2c6.057,0,11.1924-3.7769,12.4073-8.9467l8.1946,1.2044
	c3.255,0.928,4.9577,4.1249,4.9577,6.8216V56.6756z"/>
<path class="st0" d="M6.8787,47.6672H2.7906c-0.3538,0-0.6185-0.2101-0.6185-0.3983v-2.8445c0-1.5976,0.9982-3.4884,2.9072-4.046
	l5.9121-0.8688c0.0257-0.0037,0.0504-0.0094,0.0755-0.0149c0.0109-0.0024,0.0219-0.0036,0.0328-0.0064
	c0.0405-0.0101,0.0798-0.0229,0.1181-0.0372c0.0092-0.0034,0.0184-0.0076,0.0275-0.0115c0.0316-0.0128,0.0623-0.0268,0.0923-0.0423
	c0.0049-0.0025,0.0103-0.0042,0.0152-0.0068c0.0095-0.0051,0.0183-0.0108,0.0278-0.0161c0.008-0.0046,0.0162-0.0092,0.0242-0.0139
	c1.316-0.7354,1.7714-2.0671,1.9282-3.3684c1.4418,0.838,3.0973,1.3166,4.8576,1.3166c1.4775,0,2.9017-0.3288,4.2327-0.9776
	c0.5371-0.2617,0.756-0.9002,0.4888-1.4265c-0.2671-0.5262-0.9191-0.7406-1.4562-0.4788c-1.0279,0.5008-2.1266,0.755-3.2653,0.755
	c-4.3611,0-7.9089-3.8051-7.9089-8.4821v-4.5385c0-1.0329,0.8577-1.8733,1.9121-1.8733h2.7944c0.5998,0,1.0861-0.4762,1.0861-1.064
	c0-0.5875-0.4863-1.064-1.0861-1.064h-2.7944c-2.2521,0-4.0843,1.795-4.0843,4.0013v0.5577
	c-0.0944-0.3749-0.1448-0.7632-0.1448-1.1592v-3.6715c0-1.8428,1.5303-3.3419,3.4112-3.3419c0.5999,0,1.0862-0.4764,1.0862-1.064
	c0-0.628,0.5214-1.1389,1.1626-1.1389h1.3635c0.5998,0,1.0861-0.4763,1.0861-1.0639c0-0.5878-0.4863-1.0641-1.0861-1.0641h-1.3635
	c-1.4875,0-2.7505,0.9589-3.179,2.2788c-2.6376,0.4352-4.6532,2.6883-4.6532,5.394v3.6715c0,1.971,0.8397,3.8166,2.317,5.1317
	v0.0085c0,3.0172,1.2049,5.742,3.1324,7.6758c-0.0118,1.353-0.1175,2.566-0.8003,3.064l-5.7555,0.846
	c-0.0444,0.0065-0.0884,0.0157-0.1319,0.0276C1.5642,39.1328,0,42.0082,0,44.4244v2.8445c0,1.3929,1.2518,2.5263,2.7906,2.5263
	h4.0881c0.5997,0,1.086-0.4763,1.086-1.064C7.9647,48.1436,7.4784,47.6672,6.8787,47.6672z"/>
<path class="st0" d="M69.4457,38.3122c-0.0433-0.0118-0.0875-0.0211-0.1319-0.0278l-5.7555-0.8458
	c-0.6829-0.498-0.7886-1.711-0.8005-3.064c1.9275-1.9337,3.1324-4.6585,3.1324-7.6759v-0.0085
	c1.4774-1.315,2.3171-3.1609,2.3171-5.1329V15.818c0-3.0898-2.5662-5.6037-5.7202-5.6037h-3.4756
	c-0.5998,0-1.0861,0.4763-1.0861,1.064s0.4863,1.0639,1.0861,1.0639h3.4756c1.9563,0,3.5479,1.5593,3.5479,3.4758v5.7405
	c0,0.3961-0.0504,0.7844-0.1448,1.1593V22.16c0-2.2064-1.8321-4.0013-4.0843-4.0013h-2.7943c-0.5997,0-1.086,0.4765-1.086,1.0641
	c0,0.5878,0.4863,1.064,1.086,1.064h2.7944c1.0544,0,1.9122,0.8403,1.9122,1.8732v4.5385c0,4.6771-3.5479,8.4821-7.9086,8.4821
	c-1.1389,0-2.2374-0.2541-3.2653-0.7549c-0.5373-0.2617-1.1891-0.0473-1.4562,0.4788c-0.2673,0.5261-0.0483,1.1647,0.4886,1.4264
	c1.3313,0.6486,2.7553,0.9777,4.2329,0.9777c1.7602,0,3.4158-0.4785,4.8575-1.3167c0.1568,1.3012,0.6124,2.633,1.9282,3.3684
	c0.0079,0.0048,0.0162,0.0093,0.0241,0.014c0.0094,0.0052,0.0183,0.0109,0.0278,0.016c0.005,0.0027,0.0103,0.0044,0.0152,0.0068
	c0.0299,0.0156,0.0606,0.0296,0.0922,0.0424c0.0093,0.0039,0.0183,0.0081,0.0276,0.0115c0.0384,0.0143,0.0774,0.0271,0.1181,0.0372
	c0.011,0.0028,0.022,0.0041,0.0329,0.0065c0.0248,0.0054,0.0496,0.0111,0.075,0.0147l5.9121,0.869
	c1.9091,0.5574,2.9073,2.4482,2.9073,4.0459v2.8445c0,0.1879-0.2646,0.3982-0.6185,0.3982h-4.0878
	c-0.5999,0-1.0862,0.4763-1.0862,1.0641c0,0.5877,0.48631,1.0639,1.0862,1.0639h4.0879c1.5388,0,2.7907-1.1332,2.7907-2.5262
	v-2.8445C73.9999,42.0082,72.4357,39.1328,69.4457,38.3122z"/>
</svg>
