<?xml version="1.0" encoding="utf-8"?>
<!-- Generator: Adobe Illustrator 19.0.0, SVG Export Plug-In . SVG Version: 6.00 Build 0)  -->
<svg version="1.1" id="Слой_1" xmlns="http://www.w3.org/2000/svg" xmlns:xlink="http://www.w3.org/1999/xlink" x="0px" y="0px"
	 viewBox="-234.7083 368.2423 61.617 80" style="enable-background:new -234.7083 368.2423 61.617 80;" xml:space="preserve">
<path d="M-197.6273,415.5253c8.139,0,14.264-2.073,18.374-6.218c4.107-4.147,6.162-9.952,6.162-17.424
	c0-7.468-2.055-13.277-6.163-17.421c-4.109-4.146-10.235-6.22-18.374-6.22h-30.692v38.32l0,0v8.963l0,0v6.2547h-6.388v8.962h6.388
	v17.5003h10.644V430.742h33.942v-8.962h-33.942v-6.2547H-197.6273z M-217.6763,377.2073h16.462c6.05,0,10.477,1.251,13.277,3.754
	c2.803,2.503,4.203,6.145,4.203,10.922c0,4.782-1.4,8.424-4.203,10.925c-2.8,2.503-7.227,3.754-13.277,3.754h-16.462V377.2073z"/>
</svg>
