<?xml version="1.0" encoding="utf-8"?>
<!-- Generator: Adobe Illustrator 19.0.0, SVG Export Plug-In . SVG Version: 6.00 Build 0)  -->
<svg version="1.1" id="Слой_1" xmlns="http://www.w3.org/2000/svg" xmlns:xlink="http://www.w3.org/1999/xlink" x="0px" y="0px"
	 viewBox="-234.7083 368.2423 61.617 80" style="enable-background:new -234.7083 368.2423 61.617 80;" xml:space="preserve">
<path d="M-175.4433,379.0563c-1.569-2.951-3.529-5.229-5.883-6.835c-2.352-1.605-4.893-2.67-7.618-3.193
	c-2.729-0.522-5.21-0.786-7.45-0.786h-29.685v40.112l0,0v4.259l0,0v9.8452h-8.629v4.259h8.629v21.5248h4.929v-21.5248h37.7128
	l-0.0313-4.259h-37.6816v-9.8452h22.961c8.068,0,14.268-1.907,18.6-5.716c4.33-3.808,6.498-9.223,6.498-16.247
	C-173.0913,385.8734-173.8753,382.0074-175.4433,379.0563z M-179.0283,396.8143c-0.672,2.093-1.756,3.996-3.25,5.713
	c-1.494,1.72-3.494,3.121-5.995,4.203c-2.503,1.084-5.546,1.625-9.13,1.625h-23.747v-35.854h24.418c4.033,0,7.264,0.655,9.692,1.961
	c2.426,1.306,4.313,2.911,5.659,4.818c1.344,1.904,2.24,3.884,2.688,5.938c0.45,2.055,0.673,3.828,0.673,5.322
	C-178.0203,392.6333-178.3563,394.7243-179.0283,396.8143z"/>
</svg>
