<?xml version="1.0" encoding="utf-8"?>
<!-- Generator: Adobe Illustrator 19.0.0, SVG Export Plug-In . SVG Version: 6.00 Build 0)  -->
<svg version="1.1" id="Слой_1" xmlns="http://www.w3.org/2000/svg" xmlns:xlink="http://www.w3.org/1999/xlink" x="0px" y="0px"
	 viewBox="0 0 48 45" style="enable-background:new 0 0 48 45;" xml:space="preserve">
<style type="text/css">
	.st0{fill:#010202;}
</style>
<path class="st0" d="M48,19.2625c0-2.9469-2.2188-5.3785-5.0548-5.6762V1.5632c0-0.4085-0.1995-0.7907-0.5329-1.0216
	c-0.3332-0.2308-0.7581-0.2801-1.1348-0.1323L17.9426,9.5761H5.1828c-0.3248,0-0.6362,0.1305-0.8661,0.3625
	c-0.0935,0.0949-2.3047,2.3578-3.4268,5.7643c-1.0613,3.2212-1.3285,8.0714,3.427,12.8825c0.2294,0.2323,0.541,0.3628,0.8659,0.3628
	h0.2833l9.662,15.4755c0.2243,0.3596,0.6152,0.5772,1.0352,0.5772h10.0202c0.0013,0.0003,0.0026,0.0003,0.0033,0
	c0.6762,0,1.2243-0.5542,1.2243-1.2381c0-0.2733-0.0875-0.5261-0.2359-0.7311l-8.6493-13.8541l22.7511,8.9525
	c0.1437,0.0564,0.2942,0.0841,0.4439,0.0841c0.2434,0,0.4848-0.0733,0.6914-0.2161c0.3336-0.2309,0.5331-0.6131,0.5331-1.022
	V24.9373C45.7814,24.6399,48,22.2087,48,19.2625z M5.7199,12.0523h11.2279v14.4194H5.7012
	C-0.3136,19.982,4.3649,13.6309,5.7199,12.0523z M16.8386,42.5247L8.3642,28.9514h7.1243l8.4741,13.5733H16.8386z M19.3965,11.6617
	l21.1002-8.289v31.7932l-21.1002-8.303V11.6617z M42.9454,22.4348v-6.3461c1.4808,0.2798,2.6061,1.5952,2.6061,3.1738
	C45.5513,20.8404,44.4262,22.1554,42.9454,22.4348z"/>
<path class="st0" d="M37.793,20.5081h0.1632c0.6762,0,1.2243-0.5545,1.2243-1.2384c0-0.684-0.5481-1.2381-1.2243-1.2381H37.793
	c-0.6764,0-1.2243,0.5541-1.2243,1.2381C36.5687,19.9536,37.1166,20.5081,37.793,20.5081z"/>
<path class="st0" d="M33.0589,20.5081h0.1633c0.6764,0,1.2243-0.5545,1.2243-1.2384c0-0.684-0.5479-1.2381-1.2243-1.2381h-0.1633
	c-0.6763,0-1.2243,0.5541-1.2243,1.2381C31.8346,19.9536,32.3826,20.5081,33.0589,20.5081z"/>
<path class="st0" d="M28.3249,20.5081h0.1633c0.6762,0,1.2243-0.5545,1.2243-1.2384c0-0.684-0.5481-1.2381-1.2243-1.2381h-0.1633
	c-0.6763,0-1.2243,0.5541-1.2243,1.2381C27.1006,19.9536,27.6486,20.5081,28.3249,20.5081z"/>
<path class="st0" d="M23.5908,20.5081h0.1634c0.6762,0,1.2243-0.5545,1.2243-1.2384c0-0.684-0.5481-1.2381-1.2243-1.2381h-0.1634
	c-0.6762,0-1.2243,0.5541-1.2243,1.2381C22.3665,19.9536,22.9146,20.5081,23.5908,20.5081z"/>
</svg>
