<?xml version="1.0" encoding="utf-8"?>
<!-- Generator: Adobe Illustrator 19.0.0, SVG Export Plug-In . SVG Version: 6.00 Build 0)  -->
<svg version="1.1" id="Слой_1" xmlns="http://www.w3.org/2000/svg" xmlns:xlink="http://www.w3.org/1999/xlink" x="0px" y="0px"
	 viewBox="0 0 60.999897 48.5862007" style="enable-background:new 0 0 60.999897 48.5862007;" xml:space="preserve">
<style type="text/css">
	.st0{fill:#010202;}
</style>
<path class="st0" d="M60.0265999,0H0.9734C0.4358,0,0,0.4306,0,0.9628v46.6609993c0,0.5314026,0.4358,0.9624023,0.9734,0.9624023
	h59.0531998c0.5374985,0,0.9732971-0.4309998,0.9732971-0.9624023v-4.3163986c0-0.5317993-0.4357986-0.961998-0.9732971-0.961998
	c-0.5376015,0-0.9734001,0.4301987-0.9734001,0.961998v3.3540001H1.9467V9.6239996h57.1064987v29.834198
	c0,0.5314026,0.4357986,0.9624023,0.9734001,0.9624023c0.5374985,0,0.9732971-0.4309998,0.9732971-0.9624023V0.9628
	C60.999897,0.4306,60.5640984,0,60.0265999,0z M1.9467,1.9248h36.0159988v5.7748003H1.9467V1.9248z M39.9095993,7.6996002V1.9248
	h19.1436005v5.7748003H39.9095993z"/>
<path class="st0" d="M49.5137978,3.7853c-0.5725975,0-1.0382996,0.4610999-1.0382996,1.0266998
	c0,0.5661001,0.4657021,1.0263004,1.0382996,1.0263004c0.5725021,0,1.0382996-0.4602003,1.0382996-1.0263004
	C50.5520973,4.2463999,50.0862999,3.7853,49.5137978,3.7853z"/>
<path class="st0" d="M44.1924973,3.7853c-0.5724983,0-1.0382996,0.4610999-1.0382996,1.0266998
	c0,0.5661001,0.4658012,1.0263004,1.0382996,1.0263004c0.5725021,0,1.0383034-0.4602003,1.0383034-1.0263004
	C45.2308006,4.2463999,44.7649994,3.7853,44.1924973,3.7853z"/>
<path class="st0" d="M54.8350983,3.7853c-0.5726013,0-1.0382996,0.4610999-1.0382996,1.0266998
	c0,0.5661001,0.4656982,1.0263004,1.0382996,1.0263004c0.5723991,0,1.0382996-0.4602003,1.0382996-1.0263004
	C55.8733978,4.2463999,55.4074974,3.7853,54.8350983,3.7853z"/>
<path class="st0" d="M19.3010998,26.1116009c0.3827991-0.0476017,0.7010994-0.3135014,0.8118-0.6786003l2.2392006-7.3908005
	c0.1540985-0.5088997-0.1381016-1.0452995-0.653101-1.1977997c-0.5147991-0.1526012-1.0575008,0.1364994-1.2119007,0.6455002
	l-1.6058998,5.3003998l-1.5481987-2.5547009c-0.1758003-0.2901993-0.4927998-0.4678993-0.835001-0.4678993
	c-0.3421993,0-0.6591997,0.1777-0.8350992,0.4678993l-1.5481005,2.5547009L12.5091,17.4909992
	c-0.1542006-0.5092983-0.6968002-0.798399-1.2118006-0.6462994c-0.5149994,0.1529999-0.8074999,0.6893005-0.6531,1.1987
	l2.2390003,7.3896008c0.1105995,0.365099,0.4291,0.6309986,0.8115997,0.6786003
	c0.0405006,0.0045986,0.0809002,0.0071983,0.1210003,0.0071983c0.3389997,0,0.6575003-0.1749992,0.8347998-0.4678993
	l1.8471994-3.0480995l1.8473015,3.0480995C18.5436993,25.9780998,18.9186993,26.1588001,19.3010998,26.1116009z"/>
<path class="st0" d="M26.7825985,26.1107998c0.0404015,0.0050011,0.080801,0.0069008,0.1210003,0.0069008
	c0.3390007,0,0.6574001-0.1750011,0.8346996-0.4675007l1.8473015-3.0482006l1.8472996,3.0482006
	c0.1980991,0.3267002,0.573101,0.5078011,0.9557991,0.4605999c0.3825989-0.0475006,0.7010002-0.3134003,0.8115997-0.6789989
	l2.2392006-7.3903008c0.1542015-0.5090008-0.1380997-1.0457001-0.6530991-1.1982994
	c-0.5149994-0.1525002-1.0574989,0.1365986-1.2117996,0.6458988l-1.6060009,5.3005009l-1.5480995-2.5548
	c-0.1758003-0.2902012-0.4927998-0.4679012-0.8351002-0.4679012c-0.3421001,0-0.6590996,0.1777-0.835001,0.4679012
	l-1.5478992,2.5548l-1.6056995-5.2996998c-0.1541004-0.5090008-0.6965008-0.7985001-1.2117996-0.6455002
	c-0.5150013,0.1525002-0.8074017,0.6889-0.6529999,1.1982002l2.2387981,7.3895988
	C26.0816002,25.7973995,26.3998985,26.0632992,26.7825985,26.1107998z"/>
<path class="st0" d="M47.8738976,16.8428001c-0.5149002-0.1529007-1.0574989,0.1362-1.2117996,0.6452007l-1.605999,5.3007984
	l-1.5480995-2.5546989c-0.1758995-0.2903004-0.4928017-0.4682999-0.8349991-0.4682999
	c-0.3423004,0-0.6593018,0.1779995-0.8350029,0.4682999l-1.5481987,2.5546989l-1.6058006-5.2996998
	c-0.1541977-0.5088997-0.6965981-0.798399-1.2117996-0.6458988c-0.5149994,0.1525993-0.8073006,0.6892986-0.6529999,1.1982994
	l2.2388992,7.3896008c0.1107025,0.365099,0.4291,0.6309986,0.8118019,0.6785984
	c0.3825989,0.0475006,0.7574005-0.1334991,0.9556007-0.4602985l1.8472977-3.0481014l1.8473015,3.0481014
	c0.1772995,0.2924995,0.4955978,0.4674988,0.8348007,0.4674988c0.0401001,0,0.0805969-0.0023003,0.1208992-0.0072002
	c0.3828011-0.0475998,0.7010994-0.3134995,0.8117981-0.6785984l2.2392006-7.3903999
	C48.6811981,17.5317001,48.3888969,16.9950008,47.8738976,16.8428001z"/>
<path class="st0" d="M17.7418995,31.5725994c0-0.5314999-0.4358997-0.9623985-0.9734001-0.9623985h-5.1915998
	c-0.5374994,0-0.9734001,0.4308987-0.9734001,0.9623985v5.1327c0,0.5317993,0.4359007,0.9620018,0.9734001,0.9620018h5.1915998
	c0.5375004,0,0.9734001-0.4302025,0.9734001-0.9620018V31.5725994z M15.7950001,35.7425003h-3.2446003v-3.2075005h3.2446003
	V35.7425003z"/>
<path class="st0" d="M47.5944977,33.1763H43.700798c-0.5374985,0-0.9733009,0.4309998-0.9733009,0.9627991
	c0,0.5314026,0.4358025,0.9620018,0.9733009,0.9620018h3.8936996c0.5376015,0,0.9734001-0.4305992,0.9734001-0.9620018
	C48.5678978,33.6072998,48.1320992,33.1763,47.5944977,33.1763z"/>
<path class="st0" d="M39.8071976,33.1763H20.6619987c-0.5375996,0-0.9734001,0.4309998-0.9734001,0.9627991
	c0,0.5314026,0.4358006,0.9620018,0.9734001,0.9620018h19.1453018c0.5375977,0,0.9734993-0.4305992,0.9734993-0.9620018
	C40.7807999,33.6072998,40.344799,33.1763,39.8071976,33.1763z"/>
</svg>
