<?xml version="1.0" encoding="utf-8"?>
<!-- Generator: Adobe Illustrator 19.0.0, SVG Export Plug-In . SVG Version: 6.00 Build 0)  -->
<svg version="1.1" id="Слой_1" xmlns="http://www.w3.org/2000/svg" xmlns:xlink="http://www.w3.org/1999/xlink" x="0px" y="0px"
	 viewBox="0 0 56.9348 43.5574" style="enable-background:new 0 0 56.9348 43.5574;" xml:space="preserve">
<style type="text/css">
	.st0{fill:#010202;}
</style>
<path class="st0" d="M48.1559,21.7787c0-0.9883-0.8016-1.7899-1.7899-1.7899H1.7898C0.8013,19.9888,0,20.7904,0,21.7787
	c0,0.9886,0.8013,1.7902,1.7898,1.7902H46.366C47.3543,23.569,48.1559,22.7673,48.1559,21.7787z"/>
<path class="st0" d="M33.8928,40.5018c-0.6991,0.6989-0.6991,1.8324,0,2.5313c0.3494,0.3494,0.8076,0.5243,1.2655,0.5243
	c0.4579,0,0.9161-0.1749,1.2655-0.5243l19.9866-19.9887c0.6992-0.6989,0.6992-1.8324,0-2.5314L36.4238,0.5242
	c-0.6988-0.699-1.8327-0.699-2.531,0c-0.6991,0.6991-0.6991,1.8324,0,2.5315l18.7211,18.7228L33.8928,40.5018z"/>
</svg>
