<?xml version="1.0" encoding="utf-8"?>
<!-- Generator: Adobe Illustrator 19.0.0, SVG Export Plug-In . SVG Version: 6.00 Build 0)  -->
<svg version="1.1" id="Слой_1" xmlns="http://www.w3.org/2000/svg" xmlns:xlink="http://www.w3.org/1999/xlink" x="0px" y="0px"
	 viewBox="13 -6.6 56.9 43.6" style="enable-background:new 13 -6.6 56.9 43.6;" xml:space="preserve">
<style type="text/css">
	.st0{fill:#010202;}
</style>
<path class="st0" d="M21.8,15.3c0,0.6,0.8,1.2,1.8,1.2h44.6c1,0,1.8-0.5,1.8-1.2c0-0.6-0.8-1.2-1.8-1.2H23.6
	C22.6,14.1,21.8,14.6,21.8,15.3z"/>
<path class="st0" d="M13,15.3l20.8,20.8c0.7,0.7,1.6,0.9,2.1,0.4c0.4-0.4,0.2-1.4-0.4-2.1L14.6,13.6"/>
<path class="st0" d="M14.6,16.9L35.4-4c0.7-0.7,0.9-1.6,0.4-2.1c-0.4-0.4-1.4-0.2-2.1,0.4L13,15.2"/>
</svg>
