<?xml version="1.0" encoding="utf-8"?>
<!-- Generator: Adobe Illustrator 19.0.0, SVG Export Plug-In . SVG Version: 6.00 Build 0)  -->
<svg version="1.1" id="Слой_1" xmlns="http://www.w3.org/2000/svg" xmlns:xlink="http://www.w3.org/1999/xlink" x="0px" y="0px"
	 viewBox="0 0 56.9348 43.5574" style="enable-background:new 0 0 56.9348 43.5574;" xml:space="preserve">
<style type="text/css">
	.st0{fill:#010202;}
</style>
<path class="st0" d="M10.5688,23.569H55.145c0.9885,0,1.7898-0.8016,1.7898-1.7902c0-0.9883-0.8013-1.7899-1.7898-1.7899H10.5688
	c-0.9883,0-1.7899,0.8016-1.7899,1.7899C8.7789,22.7673,9.5805,23.569,10.5688,23.569z"/>
<path class="st0" d="M4.3209,21.7785L23.042,3.0557c0.6991-0.6991,0.6991-1.8324,0-2.5315c-0.6983-0.699-1.8322-0.699-2.531,0
	L0.5244,20.513c-0.6992,0.699-0.6992,1.8325,0,2.5314L20.511,43.0331c0.3494,0.3494,0.8076,0.5243,1.2655,0.5243
	c0.4579,0,0.9161-0.1749,1.2655-0.5243c0.6991-0.6989,0.6991-1.8324,0-2.5313L4.3209,21.7785z"/>
</svg>
