<?xml version="1.0" encoding="utf-8"?>
<!-- Generator: Adobe Illustrator 19.0.0, SVG Export Plug-In . SVG Version: 6.00 Build 0)  -->
<svg version="1.1" id="Слой_1" xmlns="http://www.w3.org/2000/svg" xmlns:xlink="http://www.w3.org/1999/xlink" x="0px" y="0px"
	 viewBox="0 0 61 50" style="enable-background:new 0 0 61 50;" xml:space="preserve">
<style type="text/css">
	.st0{fill:#010202;}
	.st1{fill-rule:evenodd;clip-rule:evenodd;fill:#010202;}
</style>
<path class="st0" d="M60.0265,0.9486H0.9733c-0.5376,0-0.9734,0.4306-0.9734,0.9628v46.6609c0,0.5315,0.4358,0.9625,0.9734,0.9625
	h59.0532c0.5376,0,0.9734-0.431,0.9734-0.9625V44.256c0-0.5318-0.4358-0.962-0.9734-0.962c-0.5376,0-0.9734,0.4302-0.9734,0.962
	v3.3539H1.9467V10.5726h57.1064v29.8342c0,0.5314,0.4358,0.9623,0.9734,0.9623c0.5376,0,0.9734-0.4309,0.9734-0.9623V1.9114
	C60.9999,1.3792,60.5641,0.9486,60.0265,0.9486z M1.9467,2.8734h36.016v5.7748H1.9467V2.8734z M39.9096,8.6482V2.8734h19.1435
	v5.7748H39.9096z"/>
<path class="st0" d="M49.5138,4.7339c-0.5726,0-1.0383,0.461-1.0383,1.0267c0,0.566,0.4657,1.0263,1.0383,1.0263
	c0.5725,0,1.0383-0.4603,1.0383-1.0263C50.5521,5.1949,50.0863,4.7339,49.5138,4.7339z"/>
<path class="st0" d="M44.1924,4.7339c-0.5724,0-1.0383,0.461-1.0383,1.0267c0,0.566,0.4659,1.0263,1.0383,1.0263
	c0.5726,0,1.0383-0.4603,1.0383-1.0263C45.2307,5.1949,44.765,4.7339,44.1924,4.7339z"/>
<path class="st0" d="M54.835,4.7339c-0.5725,0-1.0383,0.461-1.0383,1.0267c0,0.566,0.4658,1.0263,1.0383,1.0263
	c0.5725,0,1.0383-0.4603,1.0383-1.0263C55.8733,5.1949,55.4075,4.7339,54.835,4.7339z"/>
<path class="st0" d="M11.2797,29.5952h2.3767l1.0803-3.2769H19.22l1.0983,3.2769h2.3767l-4.4833-12.7837H15.763L11.2797,29.5952z
	 M15.3128,24.4277l1.1524-3.421c0.2161-0.7202,0.5041-1.9806,0.5041-1.9806h0.0361c0,0,0.288,1.2604,0.5041,1.9806l1.1343,3.421
	H15.3128z"/>
<path class="st0" d="M20.7419,34.5211c0-0.5314-0.436-0.9624-0.9734-0.9624h-5.1916c-0.5375,0-0.9734,0.431-0.9734,0.9624v5.1327
	c0,0.5318,0.4359,0.9621,0.9734,0.9621h5.1916c0.5374,0,0.9734-0.4303,0.9734-0.9621V34.5211z M18.795,38.691h-3.2446v-3.2075
	h3.2446V38.691z"/>
<path class="st0" d="M41.6841,29.5952h4.6274c2.3587,0,4.4113-1.1522,4.4113-3.709c0-1.2964-0.6662-2.5928-2.0706-3.0069v-0.036
	c0.9722-0.5222,1.5484-1.5485,1.5484-2.7368c0-2.1067-1.6385-3.295-3.9612-3.295h-4.5553V29.5952z M44.0067,22.033v-3.2229h2.2147
	c1.0623,0,1.6205,0.6661,1.6205,1.5844c0,0.9183-0.5762,1.6385-1.5845,1.6385H44.0067z M44.0067,27.5967v-3.6911h2.4848
	c1.1704,0,1.8546,0.7742,1.8546,1.8365c0,1.0803-0.6662,1.8546-1.8546,1.8546H44.0067z"/>
<path class="st0" d="M48.7418,34.5211c0-0.5314-0.4359-0.9624-0.9733-0.9624h-5.1917c-0.5374,0-0.9733,0.431-0.9733,0.9624v5.1327
	c0,0.5318,0.4359,0.9621,0.9733,0.9621h5.1917c0.5374,0,0.9733-0.4303,0.9733-0.9621V34.5211z M46.7949,38.691h-3.2445v-3.2075
	h3.2445V38.691z"/>
<path class="st1" d="M30,14h2v31h-2V14z"/>
</svg>
