<?xml version="1.0" encoding="utf-8"?>
<!-- Generator: Adobe Illustrator 19.0.0, SVG Export Plug-In . SVG Version: 6.00 Build 0)  -->
<svg version="1.1" id="Слой_1" xmlns="http://www.w3.org/2000/svg" xmlns:xlink="http://www.w3.org/1999/xlink" x="0px" y="0px"
	 viewBox="0 0 106.999794 115.0000992" style="enable-background:new 0 0 106.999794 115.0000992;" xml:space="preserve">
<style type="text/css">
	.st0{fill:#010202;}
</style>
<path class="st0" d="M35.6254005,39.740799c-3.2170029,0-5.8342018,2.6183014-5.8342018,5.8367996
	c0,3.2182007,2.6171989,5.8369026,5.8342018,5.8369026c3.2168999,0,5.8339996-2.6187019,5.8339996-5.8369026
	C41.4594002,42.3591003,38.8423004,39.740799,35.6254005,39.740799z M35.6254005,47.6889
	c-1.1637001,0-2.110302-0.9472008-2.110302-2.1113014c0-1.1639977,0.9466019-2.1111984,2.110302-2.1111984
	c1.1635971,0,2.110199,0.9472008,2.110199,2.1111984C37.7355995,46.7416992,36.7889977,47.6889,35.6254005,47.6889z"/>
<path class="st0" d="M53.5000992,39.740799c-3.2169991,0-5.8342018,2.6183014-5.8342018,5.8367996
	c0,3.2182007,2.6172028,5.8369026,5.8342018,5.8369026c3.2168999,0,5.8339996-2.6187019,5.8339996-5.8369026
	C59.3340988,42.3591003,56.7169991,39.740799,53.5000992,39.740799z M53.5000992,47.6889
	c-1.1636009,0-2.110302-0.9472008-2.110302-2.1113014c0-1.1639977,0.946701-2.1111984,2.110302-2.1111984
	s2.110199,0.9472008,2.110199,2.1111984C55.6102982,46.7416992,54.6637001,47.6889,53.5000992,47.6889z"/>
<path class="st0" d="M71.3748016,39.740799c-3.2169037,0-5.8342056,2.6183014-5.8342056,5.8367996
	c0,3.2182007,2.6173019,5.8369026,5.8342056,5.8369026c3.2168961,0,5.8340988-2.6187019,5.8340988-5.8369026
	C77.2089005,42.3591003,74.5916977,39.740799,71.3748016,39.740799z M71.3748016,47.6889
	c-1.1636047,0-2.1102066-0.9472008-2.1102066-2.1113014c0-1.1639977,0.9466019-2.1111984,2.1102066-2.1111984
	c1.1635971,0,2.110199,0.9472008,2.110199,2.1111984C73.4850006,46.7416992,72.5383987,47.6889,71.3748016,47.6889z"/>
<path class="st0" d="M59.3340988,63.4608994c0-3.2186012-2.6170998-5.8372002-5.8339996-5.8372002
	c-3.2169991,0-5.8342018,2.6185989-5.8342018,5.8372002c0,3.2184982,2.6172028,5.837204,5.8342018,5.837204
	C56.7169991,69.2981033,59.3340988,66.6793976,59.3340988,63.4608994z M51.3897972,63.4608994
	c0-1.1643982,0.946701-2.1111984,2.110302-2.1111984s2.110199,0.9468002,2.110199,2.1111984
	s-0.9465981,2.1111984-2.110199,2.1111984S51.3897972,64.6252975,51.3897972,63.4608994z"/>
<path class="st0" d="M48.2110977,32.9854012c0.3637009,0.3635979,0.8404007,0.5457993,1.3167992,0.5457993
	c0.4764023,0,0.9531021-0.1818008,1.316803-0.5457993l2.6553993-2.6563015l2.6553993,2.6563015
	c0.3637009,0.3635979,0.8403015,0.5457993,1.3167,0.5457993c0.4765015,0,0.9530983-0.1818008,1.3167-0.5457993
	c0.7272987-0.7273026,0.7272987-1.9070015,0-2.6343002l-2.6556015-2.6567001l2.6556015-2.6570015
	c0.7272987-0.7276993,0.7272987-1.907299,0-2.6343002c-0.7272987-0.7276993-1.9061012-0.7276993-2.6332016,0l-2.6553993,2.6563015
	l-2.6553993-2.6563015c-0.7273979-0.7276993-1.9061012-0.7276993-2.6333008,0c-0.7271004,0.7273006-0.7271004,1.9069004,0,2.6343002
	l2.6557007,2.6570015l-2.6557007,2.6567001C47.4841995,31.0783997,47.4841995,32.2584,48.2110977,32.9854012z"/>
<path class="st0" d="M40.9141998,22.4030991c-0.7273026-0.7276993-1.9061012-0.7276993-2.6332016,0l-2.6553993,2.6563015
	l-2.6553993-2.6563015c-0.7274017-0.7276993-1.9062004-0.7276993-2.6333008,0c-0.7271004,0.7273006-0.7271004,1.9069004,0,2.6343002
	l2.6556015,2.6570015l-2.6556015,2.6567001c-0.7271004,0.7276993-0.7271004,1.907299,0,2.6343002
	c0.3637009,0.3635979,0.8404007,0.5457993,1.3168011,0.5457993s0.953001-0.1818008,1.3168011-0.5457993l2.6552963-2.6563015
	l2.6554031,2.6563015c0.3636971,0.3635979,0.8403969,0.5457993,1.3167992,0.5457993
	c0.4763985,0,0.9530983-0.1818008,1.3167992-0.5457993c0.7271004-0.7273026,0.7271004-1.9070015,0-2.6343002l-2.6562004-2.6567001
	l2.6556015-2.6570015C41.641098,24.3099995,41.641098,23.1301003,40.9141998,22.4030991z"/>
<path class="st0" d="M66.0858002,32.9854012c0.3637009,0.3635979,0.8404007,0.5457993,1.3167953,0.5457993
	c0.4764023,0,0.9531021-0.1818008,1.316803-0.5457993l2.6554031-2.6563015l2.6552963,2.6563015
	c0.3638,0.3635979,0.8404007,0.5457993,1.316803,0.5457993c0.4764938,0,0.9530945-0.1818008,1.3166962-0.5457993
	c0.7272034-0.7273026,0.7272034-1.9070015,0-2.6343002l-2.6556015-2.6567001l2.6557007-2.6570015
	c0.7271042-0.7276993,0.7271042-1.907299,0-2.6343002c-0.7274017-0.7276993-1.9061966-0.7276993-2.6333008,0L71.375,25.0594006
	l-2.6554031-2.6563015c-0.7274017-0.7276993-1.9060974-0.7276993-2.6333008,0c-0.7270966,0.7273006-0.7270966,1.9069004,0,2.6343002
	l2.6557007,2.6570015l-2.6557007,2.6567001C65.358902,31.0783997,65.358902,32.2584,66.0858002,32.9854012z"/>
<path class="st0" d="M65.4165955,65.3239975c11.9780045,0,21.722702-9.749897,21.722702-21.7334976v-4.0311012l0.4449005,0.8901024
	c0.3258972,0.6527977,0.9838028,1.030098,1.6667023,1.0298004c0.2798996,0,0.563797-0.0628014,0.8314972-0.196701
	c0.9195023-0.4603004,1.2925034-1.5789986,0.8326035-2.4988022l-3.9720001-7.9487991
	c-0.0029068-0.0052986-0.0063019-0.0098991-0.0090027-0.0147991c-0.0363007-0.0711994-0.0763016-0.1396999-0.1210022-0.2047005
	c-0.0051956-0.0079994-0.0112991-0.0147991-0.0166016-0.0228004c-0.0394974-0.0555992-0.0820999-0.1083984-0.1270981-0.1597996
	c-0.0133972-0.0143986-0.0266953-0.0296993-0.0406952-0.0440998c-0.1050034-0.1114998-0.2231064-0.2089005-0.3527069-0.2917995
	c-0.0151978-0.0091-0.0302963-0.0181999-0.0457993-0.027401c-0.0578003-0.0341988-0.1173935-0.0661983-0.1791992-0.0942993
	c-0.0090942-0.0046005-0.0178986-0.0091-0.0270996-0.0132999c-0.0714951-0.031599-0.145195-0.0582008-0.221199-0.0806999
	c-0.0130997-0.0034008-0.0264969-0.0060997-0.0396957-0.0098991c-0.0623016-0.0167007-0.1256027-0.0304012-0.1901016-0.0407009
	c-0.0195999-0.0030003-0.0391998-0.0063992-0.0588989-0.0086994c-0.0774994-0.009901-0.1559067-0.0164013-0.2360001-0.0164013
	c-0.0802994,0-0.158699,0.0065002-0.2362061,0.0164013c-0.0198975,0.0023003-0.0391998,0.0056992-0.0587997,0.0086994
	c-0.0645981,0.0107002-0.1280975,0.0240002-0.1902008,0.0407009c-0.0131989,0.0037994-0.0264969,0.0064983-0.0396957,0.0098991
	c-0.0756989,0.0228996-0.149498,0.0491009-0.2210007,0.0806999c-0.009201,0.0037994-0.0179977,0.0086994-0.0271988,0.0132999
	c-0.0618973,0.028101-0.1213989,0.0601006-0.1791,0.0939999c-0.0153046,0.0095005-0.0305023,0.0181999-0.0456009,0.0277004
	c-0.1294022,0.0825996-0.2478027,0.1802998-0.3527985,0.2917995c-0.0139008,0.0144005-0.027298,0.0293007-0.0407028,0.0440998
	c-0.0452957,0.0510006-0.0878983,0.1042004-0.1270981,0.1594009c-0.0054016,0.0079994-0.0113983,0.0147991-0.0167007,0.0228004
	c-0.044899,0.0650997-0.0846024,0.1334991-0.1207962,0.2046986c-0.0027008,0.0053005-0.0063019,0.009901-0.0090027,0.014801
	l-3.9721985,7.948801c-0.4599991,0.9202003-0.0871048,2.0388985,0.832695,2.4987984
	c0.9203033,0.4603004,2.0385056,0.087101,2.4981995-0.8326988l0.4449997-0.8905029v4.0311012
	c0,9.9295006-8.0741959,18.0075989-17.9988937,18.0075989c-1.0286026,0-1.8620033,0.8342018-1.8620033,1.8628006
	S64.3879013,65.3239975,65.4165955,65.3239975z"/>
<path class="st0" d="M105.1380997,79.4809036h-2.1100998V11.7980003c0-3.2185001-2.6173019-5.8372002-5.8342056-5.8372002
	H55.3619003v-4.098c0-1.0286-0.8333015-1.8628-1.8618011-1.8628c-1.0285988,0-1.8619995,0.8342-1.8619995,1.8628v4.098H9.8062
	c-3.2169003,0-5.8340001,2.6187-5.8340001,5.8372002v67.6829071H1.8619C0.8335,79.4809036,0,80.3151016,0,81.344101
	c0,1.0286026,0.8335,1.8628006,1.8619,1.8628006h27.1043987l-10.9730988,29.2756958
	c-0.3610001,0.9636002,0.1267986,2.0370026,1.0895996,2.3980026c0.2153988,0.0811005,0.4363995,0.1194992,0.6536999,0.1194992
	c0.7537003,0,1.4633999-0.4614029,1.7434998-1.2097015l11.4632988-30.5834961h18.6945992v29.9300003
	c0,1.028595,0.8333015,1.8623962,1.8619995,1.8623962c1.0285034,0,1.8618011-0.8338013,1.8618011-1.8623962V83.2069016h18.6945
	l11.4634018,30.5834961c0.2802963,0.7482986,0.9896011,1.2097015,1.7434998,1.2097015
	c0.2173004,0,0.4383011-0.0383987,0.6537018-0.1194992c0.9627991-0.3610001,1.4505997-1.4344025,1.0896988-2.3980026
	L78.0335999,83.2069016h27.1042938c1.0285034,0,1.8619003-0.834198,1.8619003-1.8628006
	C106.999794,80.3151016,106.1666946,79.4809036,105.1380997,79.4809036z M7.6960998,11.7980003
	c0-1.1640005,0.9466004-2.1112003,2.1101003-2.1112003h87.3875961c1.1636047,0,2.1102066,0.9471998,2.1102066,2.1112003v67.6829071
	H7.6960998V11.7980003L7.6960998,11.7980003z"/>
</svg>
