<?xml version="1.0" encoding="utf-8"?>
<!-- Generator: Adobe Illustrator 19.0.0, SVG Export Plug-In . SVG Version: 6.00 Build 0)  -->
<svg version="1.1" id="Слой_1" xmlns="http://www.w3.org/2000/svg" xmlns:xlink="http://www.w3.org/1999/xlink" x="0px" y="0px"
	 viewBox="0 0 101 101" style="enable-background:new 0 0 101 101;" xml:space="preserve">
<style type="text/css">
	.st0{fill:#010202;}
</style>
<path class="st0" d="M100.4811,7.8509c-0.6892-0.6894-1.8062-0.6894-2.4954,0L64.1062,41.7423l-4.8394-4.8412L93.1464,3.01
	c0.689-0.6897,0.689-1.8069,0-2.4967c-0.6891-0.6886-1.8062-0.6889-2.4956,0L56.771,34.4044l-2.5711-2.5718
	c-0.9971-0.9975-2.3265-1.5466-3.7435-1.5466c-1.4168,0-2.746,0.5491-3.7432,1.5466l-1.2477,1.2482
	c-1.4815,1.4819-1.8936,3.6297-1.2483,5.4881c-16.6736,8.0539-31.5305,14.637-43.0566,19.0765
	c-0.8855,0.3409-1.3429,1.3212-1.0353,2.2191c3.2388,9.4631,8.6879,18.2034,15.7581,25.2759
	c7.0702,7.0729,15.8077,12.524,25.2673,15.7635C41.3399,100.969,41.5326,101,41.7224,101c0.7107,0,1.3777-0.4326,1.6469-1.1317
	c4.4374-11.529,11.0174-26.3888,19.0669-43.0661c0.5533,0.192,1.1414,0.2927,1.7459,0.2927c1.4167,0,2.7461-0.5491,3.7433-1.5466
	l1.2476-1.2482c2.0638-2.0648,2.0638-5.4245,0-7.4893l-2.5711-2.5718l33.8792-33.8915
	C101.1702,9.6578,101.1702,8.5402,100.4811,7.8509z M46.3531,41.4579l1.366,1.3661l-14.2589,9.9475
	c-0.7994,0.5577-0.9955,1.6581-0.4378,2.4578c0.343,0.4919,0.8913,0.7555,1.4487,0.7555c0.3485,0,0.7005-0.1032,1.0078-0.3175
	l14.7748-10.3074l1.4505,1.4509L17.1497,81.3769c-2.4298-2.5747-4.6366-5.3648-6.5986-8.3185L29.2299,60.027
	c0.7993-0.5577,0.9954-1.6581,0.4378-2.4575c-0.5572-0.8001-1.6578-0.9964-2.4568-0.4383L8.6786,70.0604
	c-1.8234-3.1097-3.3849-6.3727-4.6441-9.745C15.5499,55.8047,30.1135,49.3154,46.3531,41.4579z M40.6995,96.993
	c-3.3711-1.2597-6.6328-2.8217-9.7417-4.6456l3.312-4.751c0.5575-0.7994,0.3616-1.8997-0.4377-2.4574
	c-0.7989-0.5581-1.8993-0.3618-2.4567,0.4379l-3.4143,4.8974c-2.9528-1.9631-5.7418-4.1703-8.3156-6.6011l34.5543-34.5664
	l1.4505,1.4513l-19.661,28.2005c-0.5575,0.7997-0.3615,1.9001,0.4378,2.4578c0.3076,0.2147,0.6593,0.3175,1.0078,0.3175
	c0.5571,0,1.106-0.2635,1.4488-0.7558l19.3009-27.6845l1.3661,1.3661C51.696,70.9055,45.2088,85.4737,40.6995,96.993z
	 M66.6772,51.8034l-1.2476,1.2482c-0.3304,0.3308-0.7735,0.5128-1.2475,0.5128c-0.4743,0-0.9174-0.182-1.2479-0.5128L55.45,45.5648
	c-0.0006-0.0007-0.0013-0.0018-0.0021-0.0021c-0.0006-0.0008-0.0014-0.0015-0.0021-0.0022l-7.4842-7.4868
	c-0.6883-0.6882-0.6883-1.808,0-2.4963l1.2475-1.2478c0.3305-0.3308,0.7735-0.5127,1.2474-0.5127
	c0.4744,0,0.9175,0.1819,1.2479,0.5127l14.9731,14.9779C67.3655,49.9954,67.3655,51.1152,66.6772,51.8034z"/>
</svg>
