<?xml version="1.0" encoding="utf-8"?>
<!-- Generator: Adobe Illustrator 19.0.0, SVG Export Plug-In . SVG Version: 6.00 Build 0)  -->
<svg version="1.1" id="Слой_1" xmlns="http://www.w3.org/2000/svg" xmlns:xlink="http://www.w3.org/1999/xlink" x="0px" y="0px"
	 viewBox="0 0 77 94" style="enable-background:new 0 0 77 94;" xml:space="preserve">
<style type="text/css">
	.st0{fill:#010202;}
</style>
<path class="st0" d="M57.5864,52.9884c3.1739-4.1871,4.8514-9.1847,4.8514-14.4532c0-6.4594-2.5322-12.5146-7.1303-17.0505
	c-4.5971-4.5345-10.6902-6.9833-17.1475-6.8902c-6.2576,0.0888-12.1532,2.6009-16.6007,7.0736
	c-4.4473,4.4726-6.9277,10.3844-6.9846,16.6456c-0.0487,5.3673,1.6388,10.4552,4.8797,14.7132
	c5.2614,6.9121,8.1592,15.3792,8.1592,23.8415v9.2592c0,4.1073,3.3398,7.4487,7.4451,7.4487h6.9251
	c4.1052,0,7.445-3.3418,7.445-7.4487v-9.2588C49.429,68.3133,52.2294,60.0556,57.5864,52.9884z M21.8956,51.1671
	c-2.8245-3.7107-4.2951-8.1456-4.2528-12.8253c0.1022-11.2428,9.3254-20.5185,20.5605-20.6774
	c5.6362-0.0759,10.9424,2.0536,14.9499,6.0066c4.0087,3.9541,6.2163,9.2333,6.2163,14.8646c0,4.5927-1.462,8.9489-4.228,12.598
	c-5.6444,7.4465-8.6835,16.1336-8.8079,25.158h-15.656C30.5494,67.3546,27.4422,58.4539,21.8956,51.1671z M30.6819,85.0873v-1.2428
	l15.6788,1.7973v0.4858c0,0.2557-0.0266,0.5052-0.0688,0.7487L30.6819,85.0873z M30.6819,80.7549v-1.3934h15.6788v3.1903
	L30.6819,80.7549z M35.0587,90.5064c-1.6482,0-3.0852-0.9166-3.8316-2.2669l13.2077,1.5139c-0.6998,0.475-1.5434,0.753-2.4509,0.753
	H35.0587L35.0587,90.5064z"/>
<path class="st0" d="M23.3349,40.8442c-0.1197-0.8033-0.1767-1.6286-0.1692-2.4524c0.0078-0.8476-0.6728-1.5409-1.5201-1.5488
	c-0.8415-0.0076-1.5402,0.6731-1.548,1.5207c-0.009,0.9842,0.0591,1.9713,0.2024,2.9332c0.1136,0.7617,0.7682,1.309,1.5156,1.309
	c0.0753,0,0.1517-0.0058,0.2283-0.0173C22.8817,42.4635,23.4598,41.6824,23.3349,40.8442z"/>
<path class="st0" d="M32.3634,64.1585c0.1587,0,0.3203-0.0251,0.4795-0.0773c0.8049-0.2646,1.2429-1.1324,0.9782-1.9375
	c-1.7003-5.1728-4.2343-9.9924-7.5318-14.3241c-0.545-0.7163-1.0279-1.479-1.4352-2.2676c-0.3891-0.753-1.3147-1.0478-2.0675-0.6584
	c-0.7525,0.3891-1.0472,1.3154-0.6582,2.0684c0.4889,0.9457,1.0674,1.8602,1.7199,2.7174c3.09,4.0595,5.4648,8.5757,7.058,13.4234
	C31.1186,63.7486,31.7186,64.1585,32.3634,64.1585z"/>
<path class="st0" d="M54.626,43.7911c-0.7781-0.3355-1.6808,0.0241-2.0159,0.8026c-0.486,1.1291-1.1151,2.2061-1.8695,3.2011
	c-0.512,0.6753-0.3796,1.6383,0.2954,2.1507c0.2772,0.2104,0.6028,0.3118,0.9258,0.3118c0.4637,0,0.922-0.2093,1.2238-0.6077
	c0.9039-1.1924,1.6582-2.4852,2.2425-3.8416C55.7633,45.0295,55.4043,44.1262,54.626,43.7911z"/>
<path class="st0" d="M38.5059,23.1877c8.4589,0,15.3405,6.8852,15.3405,15.3479c0,0.4811-0.022,0.9659-0.0656,1.4409
	c-0.0773,0.8443,0.5437,1.5912,1.3875,1.6689c0.0477,0.0043,0.0949,0.0064,0.142,0.0064c0.784,0,1.4529-0.598,1.5259-1.3945
	c0.052-0.5681,0.0785-1.1471,0.0785-1.7217c0-10.1553-8.2581-18.4177-18.4088-18.4177c-0.8473,0-1.5343,0.6872-1.5343,1.5351
	C36.9716,22.5005,37.6586,23.1877,38.5059,23.1877z"/>
<path class="st0" d="M38.5059,11.9446c0.8473,0,1.5342-0.6871,1.5342-1.5347V1.8145c0-0.8479-0.6869-1.5351-1.5342-1.5351
	c-0.8473,0-1.5343,0.6872-1.5343,1.5351v8.5954C36.9716,11.2575,37.6586,11.9446,38.5059,11.9446z"/>
<path class="st0" d="M22.9849,14.9775c0.2843,0.4926,0.7997,0.7681,1.33,0.7681c0.2602,0,0.524-0.0666,0.7657-0.2061
	c0.7338-0.424,0.9854-1.3625,0.5617-2.0968l-4.2937-7.4411c-0.4238-0.7343-1.3619-0.9856-2.0956-0.5617
	c-0.7338,0.4236-0.9854,1.3625-0.5618,2.0965L22.9849,14.9775z"/>
<path class="st0" d="M71.2921,55.9684l-7.4377-4.2957c-0.7339-0.424-1.6723-0.1723-2.0957,0.562
	c-0.4236,0.734-0.1723,1.6729,0.5618,2.0965l7.4376,4.2957c0.2416,0.1395,0.5054,0.206,0.7657,0.206
	c0.5302,0,1.0459-0.2754,1.3301-0.7681C72.2775,57.3309,72.0259,56.392,71.2921,55.9684z"/>
<path class="st0" d="M5.7194,21.6382l7.4377,4.2958c0.2416,0.1395,0.5053,0.2056,0.7657,0.2056c0.5302,0,1.0459-0.2754,1.33-0.7677
	c0.4236-0.7343,0.1723-1.6728-0.5617-2.0968l-7.4377-4.2957c-0.7338-0.424-1.6721-0.1723-2.0957,0.562
	C4.7341,20.2757,4.9855,21.2143,5.7194,21.6382z"/>
<path class="st0" d="M75.4774,37.2684H66.886c-0.8473,0-1.5343,0.6872-1.5343,1.5347c0,0.8476,0.687,1.5348,1.5343,1.5348h8.5914
	c0.8473,0,1.5341-0.6872,1.5341-1.5348C77.0115,37.9556,76.3248,37.2684,75.4774,37.2684z"/>
<path class="st0" d="M11.6596,38.8031c0-0.8475-0.687-1.5347-1.5342-1.5347H1.534c-0.8473,0-1.5342,0.6872-1.5342,1.5347
	c0,0.8476,0.6869,1.5348,1.5342,1.5348h8.5914C10.9728,40.3379,11.6596,39.6507,11.6596,38.8031z"/>
<path class="st0" d="M63.0888,26.1396c0.2601,0,0.5241-0.0661,0.7656-0.2056l7.4377-4.2958
	c0.7338-0.4239,0.9854-1.3625,0.5618-2.0968c-0.4237-0.7339-1.3622-0.9856-2.0957-0.562l-7.4377,4.2957
	c-0.7338,0.424-0.9854,1.3625-0.5618,2.0968C62.0429,25.8642,62.5587,26.1396,63.0888,26.1396z"/>
<path class="st0" d="M13.1571,51.6727l-7.4377,4.2957c-0.7337,0.4236-0.9853,1.3625-0.5617,2.0964
	c0.2841,0.4927,0.7998,0.7681,1.33,0.7681c0.2602,0,0.5241-0.0665,0.7657-0.206l7.4377-4.2957
	c0.7337-0.4236,0.9853-1.3625,0.5617-2.0965C14.8294,51.5004,13.8905,51.2487,13.1571,51.6727z"/>
<path class="st0" d="M51.931,15.5395c0.2416,0.1395,0.5052,0.2061,0.7656,0.2061c0.5303,0,1.0459-0.2755,1.33-0.7681l4.2937-7.4411
	c0.4236-0.734,0.172-1.6729-0.5617-2.0965c-0.7335-0.4239-1.6721-0.1726-2.0957,0.5617l-4.2936,7.4411
	C50.9457,14.177,51.1973,15.1155,51.931,15.5395z"/>
</svg>
