<?xml version="1.0" encoding="utf-8"?>
<!-- Generator: Adobe Illustrator 19.0.0, SVG Export Plug-In . SVG Version: 6.00 Build 0)  -->
<svg version="1.1" id="Слой_1" xmlns="http://www.w3.org/2000/svg" xmlns:xlink="http://www.w3.org/1999/xlink" x="0px" y="0px"
	 viewBox="0 0 41 55" style="enable-background:new 0 0 41 55;" xml:space="preserve">
<style type="text/css">
	.st0{fill:#010202;}
</style>
<path class="st0" d="M37.1445,3.8009h-7.0659c-0.3839-1.1032-1.46-1.9004-2.7251-1.9004h-2.9881
	c-0.907-1.1838-2.3434-1.9009-3.8655-1.9009c-1.5218,0-2.9586,0.7171-3.8656,1.9009h-2.988c-1.265,0-2.341,0.7972-2.7252,1.9004
	H3.8553c-2.1257,0-3.8551,1.679-3.8551,3.742v43.7152c0,2.063,1.7294,3.7416,3.8551,3.7416h33.2892
	c2.1258,0,3.8552-1.6786,3.8552-3.7416V7.5429C40.9997,5.4799,39.2703,3.8009,37.1445,3.8009z M13.6463,10.3348h13.7072
	c0.8596,0,1.6318-0.3686,2.1591-0.9504h5.7349v40.0322H5.7523V9.3844h5.7349C12.0146,9.9662,12.7868,10.3348,13.6463,10.3348z
	 M13.6463,3.6823h3.4804c0.3268,0,0.6289-0.1687,0.7933-0.4427c0.5475-0.913,1.5118-1.4578,2.5799-1.4578
	c1.0683,0,2.0325,0.5448,2.5798,1.4578c0.1643,0.274,0.4667,0.4427,0.7933,0.4427h3.4805c0.5737,0,1.0404,0.453,1.0404,1.0097
	v2.8509c0,0.557-0.4667,1.0097-1.0404,1.0097H13.6463c-0.5737,0-1.0403-0.4527-1.0403-1.0097V4.692
	C12.606,4.1353,13.0726,3.6823,13.6463,3.6823z M39.1639,51.2581c0,1.0806-0.9058,1.9598-2.0194,1.9598H3.8553
	c-1.1134,0-2.0194-0.8792-2.0194-1.9598V7.5429c0-1.0806,0.906-1.9598,2.0194-1.9598h6.9149v1.9598
	c0,0.0201,0.001,0.0395,0.0016,0.0597H4.8344c-0.5071,0-0.9179,0.3987-0.9179,0.8907v41.8144c0,0.4919,0.4108,0.8907,0.9179,0.8907
	h31.3311c0.507,0,0.9177-0.3988,0.9177-0.8907V8.4933c0-0.492-0.4107-0.8907-0.9177-0.8907h-5.9374
	c0.0004-0.0202,0.0015-0.0396,0.0015-0.0597V5.5831h6.9149c1.1136,0,2.0194,0.8792,2.0194,1.9598V51.2581z"/>
<path class="st0" d="M20.4999,5.5831c0.2422,0,0.4785-0.0953,0.6487-0.2615c0.1714-0.165,0.2692-0.3955,0.2692-0.6296
	S21.32,4.2278,21.1486,4.0623c-0.1702-0.1661-0.4064-0.2614-0.6487-0.2614s-0.4786,0.0953-0.6487,0.2614
	C19.68,4.2278,19.582,4.4568,19.582,4.692s0.098,0.4646,0.2692,0.6296C20.0213,5.4878,20.2576,5.5831,20.4999,5.5831z"/>
<path class="st0" d="M14.6254,18.8874h16.6445c0.5071,0,0.918-0.3988,0.918-0.8908c0-0.4922-0.4109-0.891-0.918-0.891H14.6254
	c-0.5071,0-0.9179,0.3988-0.9179,0.891C13.7075,18.4886,14.1183,18.8874,14.6254,18.8874z"/>
<path class="st0" d="M14.6254,28.3907h16.6445c0.5071,0,0.918-0.3988,0.918-0.891c0-0.492-0.4109-0.8908-0.918-0.8908H14.6254
	c-0.5071,0-0.9179,0.3988-0.9179,0.8908C13.7075,27.9919,14.1183,28.3907,14.6254,28.3907z"/>
<path class="st0" d="M14.6254,37.8941h2.9372c0.5071,0,0.9179-0.3991,0.9179-0.8911c0-0.4919-0.4108-0.8907-0.9179-0.8907h-2.9372
	c-0.5071,0-0.9179,0.3988-0.9179,0.8907C13.7075,37.495,14.1183,37.8941,14.6254,37.8941z"/>
<path class="st0" d="M14.6254,23.639h16.6445c0.5071,0,0.918-0.3987,0.918-0.8907c0-0.4923-0.4109-0.891-0.918-0.891H14.6254
	c-0.5071,0-0.9179,0.3987-0.9179,0.891C13.7075,23.2403,14.1183,23.639,14.6254,23.639z"/>
<path class="st0" d="M14.6254,33.1424h3.9163c0.5071,0,0.9179-0.3988,0.9179-0.8911c0-0.4919-0.4108-0.8907-0.9179-0.8907h-3.9163
	c-0.5071,0-0.9179,0.3988-0.9179,0.8907C13.7075,32.7436,14.1183,33.1424,14.6254,33.1424z"/>
<path class="st0" d="M14.6254,42.6454h3.9163c0.5071,0,0.9179-0.3988,0.9179-0.8907s-0.4108-0.8911-0.9179-0.8911h-3.9163
	c-0.5071,0-0.9179,0.3992-0.9179,0.8911S14.1183,42.6454,14.6254,42.6454z"/>
<path class="st0" d="M9.7299,18.8874h0.979c0.5071,0,0.918-0.3988,0.918-0.8908c0-0.4922-0.4109-0.891-0.918-0.891h-0.979
	c-0.5071,0-0.9179,0.3988-0.9179,0.891C8.812,18.4886,9.2228,18.8874,9.7299,18.8874z"/>
<path class="st0" d="M9.7299,28.3907h0.979c0.5071,0,0.918-0.3988,0.918-0.891c0-0.492-0.4109-0.8908-0.918-0.8908h-0.979
	c-0.5071,0-0.9179,0.3988-0.9179,0.8908C8.812,27.9919,9.2228,28.3907,9.7299,28.3907z"/>
<path class="st0" d="M9.7299,37.8941h0.979c0.5071,0,0.918-0.3991,0.918-0.8911c0-0.4919-0.4109-0.8907-0.918-0.8907h-0.979
	c-0.5071,0-0.9179,0.3988-0.9179,0.8907C8.812,37.495,9.2228,37.8941,9.7299,37.8941z"/>
<path class="st0" d="M9.7299,23.639h0.979c0.5071,0,0.918-0.3987,0.918-0.8907c0-0.4923-0.4109-0.891-0.918-0.891h-0.979
	c-0.5071,0-0.9179,0.3987-0.9179,0.891C8.812,23.2403,9.2228,23.639,9.7299,23.639z"/>
<path class="st0" d="M9.7299,33.1424h0.979c0.5071,0,0.918-0.3988,0.918-0.8911c0-0.4919-0.4109-0.8907-0.918-0.8907h-0.979
	c-0.5071,0-0.9179,0.3988-0.9179,0.8907C8.812,32.7436,9.2228,33.1424,9.7299,33.1424z"/>
<path class="st0" d="M9.7299,42.6454h0.979c0.5071,0,0.918-0.3988,0.918-0.8907s-0.4109-0.8911-0.918-0.8911h-0.979
	c-0.5071,0-0.9179,0.3992-0.9179,0.8911S9.2228,42.6454,9.7299,42.6454z"/>
<path class="st0" d="M26.3745,31.3606c-3.2055,0-5.8134,2.5312-5.8134,5.6424c0,3.1112,2.6079,5.6424,5.8134,5.6424
	c1.2952,0,2.4926-0.4135,3.4601-1.1115c0.0091-0.0061,0.0189-0.0104,0.0279-0.0169c0.0244-0.0176,0.0476-0.0367,0.0698-0.0561
	c1.3708-1.0331,2.2556-2.6466,2.2556-4.4579C32.1879,33.8918,29.5799,31.3606,26.3745,31.3606z M25.4566,33.2471v2.8652H22.505
	C22.8507,34.6977,23.9994,33.5829,25.4566,33.2471z M22.505,37.8941h3.4105l2.0462,2.6481
	c-0.4866,0.2064-1.0232,0.3214-1.5872,0.3214C24.4972,40.8636,22.9206,39.5943,22.505,37.8941z M29.4296,39.472l-2.1372-2.766
	v-3.4589c1.752,0.4034,3.0597,1.9339,3.0597,3.7559C30.3521,37.9412,30.0052,38.8024,29.4296,39.472z"/>
</svg>
