<?xml version="1.0" encoding="utf-8"?>
<!-- Generator: Adobe Illustrator 19.0.0, SVG Export Plug-In . SVG Version: 6.00 Build 0)  -->
<svg version="1.1" id="Слой_1" xmlns="http://www.w3.org/2000/svg" xmlns:xlink="http://www.w3.org/1999/xlink" x="0px" y="0px"
	 viewBox="0 0 114.9978333 115.0000992" style="enable-background:new 0 0 114.9978333 115.0000992;" xml:space="preserve">
<style type="text/css">
	.st0{fill:#010202;}
</style>
<path class="st0" d="M113.4483643,15.9657001c-1.002594-1.0077-2.3358002-1.5627003-3.7542953-1.5627003H89.791069v-4.1034002
	C91.8818665,9.5931997,93.392067,7.6148,93.392067,5.2887001C93.392067,2.3722,91.0194702,0,88.1031647,0H26.8876686
	c-2.9162006,0-5.2888012,2.3722-5.2888012,5.2887001c0,2.3260999,1.5102005,4.3044996,3.6007996,5.0108995v4.1034002H5.3035679
	c-1.4184999,0-2.7516999,0.5550003-3.7544,1.5627003c-1.0062,1.0111008-1.5562,2.3530998-1.5490999,3.7791996
	c0.0513,10.1151009,2.7614999,19.9091988,7.8374,28.3236008c5.0746007,8.4113007,12.0548,14.6996994,20.1859016,18.1844978
	c0.1675987,0.0718994,0.3404999,0.1141052,0.5128994,0.129303c4.5305996,9.1477966,13.2693005,15.8549957,23.670599,17.5755005
	v16.864502h-9.1148987c-2.9163017,0-5.2887993,2.3722-5.2887993,5.2878952v7.2016983
	c0,0.9327011,0.7556992,1.6882019,1.6879997,1.6882019h36.0089989c0.9321976,0,1.6880035-0.7555008,1.6880035-1.6882019v-7.2016983
	c0-2.9156952-2.3725052-5.2878952-5.2888031-5.2878952h-9.1147995v-16.864502
	c10.4009018-1.7205048,19.1394958-8.4277039,23.6702957-17.5751038c0.1747055-0.014801,0.3498001-0.0570984,0.5197067-0.1296997
	c8.1309967-3.4844971,15.1113968-9.7731972,20.185997-18.1844978c5.0758972-8.414402,7.7858963-18.2084999,7.8371964-28.3236008
	C115.0046692,18.3188,114.4546661,16.9768009,113.4483643,15.9657001z M26.8876686,3.3757h61.2154961
	c1.0549011,0,1.913002,0.8580999,1.913002,1.9130001c0,1.0548-0.8581009,1.9130001-1.913002,1.9130001H26.8876686
	c-1.0548,0-1.9130001-0.8582001-1.9130001-1.9130001C24.9746685,4.2337999,25.8328686,3.3757,26.8876686,3.3757z
	 M10.7281675,46.3246994C5.9663677,38.4310989,3.424068,29.2346992,3.375968,19.7278004
	c-0.0027001-0.5212002,0.1984999-1.0118999,0.5663998-1.3812008c0.3640001-0.3659992,0.8476999-0.5679989,1.3612001-0.5679989
	h19.8964005v34.3206024c0,3.4113998,0.5335999,6.7002983,1.5186005,9.7901993
	C20.3617687,58.526001,14.8725681,53.1946983,10.7281675,46.3246994z M73.8120651,106.110199v5.5139008H41.1788673v-5.5139008
	c0-1.0544968,0.8580017-1.9125977,1.912899-1.9125977h28.8074036
	C72.9538651,104.1976013,73.8120651,105.0557022,73.8120651,106.110199z M59.4083672,100.8223038h-3.8260002V84.3348007
	c0.6332016,0.0372009,1.2707024,0.058197,1.9131012,0.058197c0.6422997,0,1.2798996-0.0209961,1.912899-0.058197V100.8223038z
	 M57.4954681,81.0177002c-15.9464989,0-28.9199009-12.9730988-28.9199009-28.918499V10.5769997h57.8396988v41.5222015
	C86.4152679,68.0446014,73.4418716,81.0177002,57.4954681,81.0177002z M104.2696686,46.3246994
	c-4.1464005,6.8731003-9.6381989,12.2055016-15.9986038,15.5689011c0.9859009-3.0907021,1.5200043-6.3815002,1.5200043-9.7943993
	V17.7786007h19.9029999c0.5135956,0,0.9969025,0.2019997,1.3610992,0.5679989
	c0.367897,0.3693008,0.5689011,0.8600006,0.5663986,1.3812008
	C111.5734711,29.2346992,109.0312653,38.4310989,104.2696686,46.3246994z"/>
<path class="st0" d="M74.7360687,34.1300011H64.6513672l-3.1166-9.5902004
	c-0.5790977-1.7828999-2.1646004-2.9355011-4.0391006-2.9355011l0,0c-1.8745003,0-3.4601974,1.1526012-4.0396004,2.9355011
	l-3.1162987,9.5902004H40.2549667c-1.8746986,0-3.4603004,1.1525993-4.0394974,2.9351006
	c-0.5794029,1.7828979,0.0263977,3.6469002,1.5429993,4.7481003l8.1583977,5.9277992l-3.1162987,9.5909004
	c-0.5792999,1.7828979,0.0262985,3.6464996,1.5429993,4.7488976c0.7584,0.5508003,1.6273994,0.8262024,2.4966011,0.8262024
	s1.7382011-0.2754021,2.4964981-0.8262024l8.158802-5.9277l8.158699,5.9277c1.5167007,1.1016006,3.4764023,1.1016006,4.993103,0
	c1.5167007-1.1023979,2.1222992-2.9659996,1.5430984-4.7488976l-3.1164017-9.5909004l8.158699-5.9277992
	c1.5164032-1.1016006,2.1221008-2.9652023,1.5428009-4.7481003C78.1964645,35.2826004,76.6106644,34.1300011,74.7360687,34.1300011z
	 M75.2485657,39.0824013l-9.150795,6.6484985c-0.5917053,0.4299011-0.8392029,1.1917992-0.6133041,1.8871994L68.979866,58.375
	c0.1767044,0.5438995-0.1626968,0.8627014-0.316597,0.9744987c-0.1539993,0.1123009-0.5622025,0.3358994-1.0246048,0
	l-9.1509972-6.6484985c-0.5914001-0.4291-1.392601-0.4295006-1.9841003,0l-9.1509972,6.6484985
	c-0.4620018,0.3358994-0.8705025,0.1123009-1.0245018,0C46.1739693,59.2373009,45.8347664,58.918499,46.011467,58.375
	l3.4953995-10.7569008c0.2259026-0.6954002-0.021698-1.4572983-0.6133003-1.8871994l-9.1507988-6.6484985
	c-0.4623985-0.3359032-0.3754005-0.7932014-0.3167992-0.9742012c0.0587997-0.1814995,0.2574997-0.6021996,0.8289986-0.6021996
	h11.3111c0.7312012,0,1.379303-0.4709015,1.6053009-1.1667023l3.4953995-10.7567978
	c0.1767006-0.5431995,0.6385002-0.6021996,0.8288994-0.6021996l0,0c0.190403,0,0.6522026,0.059,0.8289032,0.6021996l0,0
	l3.4952965,10.7567978C62.0458679,37.035099,62.6940689,37.5056,63.4252663,37.5056h11.3110008
	c0.5716019,0,0.7701035,0.4211006,0.8290024,0.6021996C75.62397,38.2891998,75.7108688,38.7464981,75.2485657,39.0824013z"/>
</svg>
