<?xml version="1.0" encoding="utf-8"?>
<!-- Generator: Adobe Illustrator 19.0.0, SVG Export Plug-In . SVG Version: 6.00 Build 0)  -->
<svg version="1.1" id="Слой_1" xmlns="http://www.w3.org/2000/svg" xmlns:xlink="http://www.w3.org/1999/xlink" x="0px" y="0px"
	 viewBox="0 0 59 54" style="enable-background:new 0 0 59 54;" xml:space="preserve">
<style type="text/css">
	.st0{fill:#010202;}
</style>
<path class="st0" d="M58.0022,12.3366h-4.1635L38.6719,33.4642v19.5242c0,0.5587-0.4466,1.0117-0.9977,1.0117H21.3265
	c-0.5511,0-0.9977-0.453-0.9977-1.0117V33.4665L5.162,12.3366H0.9977C0.4466,12.3366,0,11.8836,0,11.3249V1.0115
	c0-0.5586,0.4466-1.0116,0.9977-1.0116h57.0045c0.5511,0,0.9977,0.453,0.9977,1.0116v10.3134
	C58.9999,11.8836,58.5533,12.3366,58.0022,12.3366z M22.3243,51.9768h14.3522V34.0381H22.3243V51.9768z M21.7548,32.0149h15.4896
	l14.1264-19.6784H7.6301L21.7548,32.0149z M57.0045,2.0231H1.9954v8.2901h55.0091V2.0231z"/>
<path class="st0" d="M7.1427,5.1566c0.2634,0,0.5201,0.1079,0.7065,0.2967c0.1849,0.1875,0.2912,0.4492,0.2912,0.715
	c0,0.2657-0.1064,0.5274-0.2912,0.7149C7.6629,7.072,7.4062,7.1799,7.1427,7.1799c-0.2621,0-0.5201-0.1079-0.7052-0.2967
	C6.2515,6.6957,6.1449,6.434,6.1449,6.1683c0-0.2658,0.1066-0.5275,0.2926-0.715C6.6226,5.2645,6.8807,5.1566,7.1427,5.1566z"/>
<path class="st0" d="M10.7452,5.1566c0.2634,0,0.5202,0.1079,0.7065,0.2967c0.1849,0.1875,0.2913,0.4479,0.2913,0.715
	c0,0.2657-0.1065,0.5274-0.2913,0.7149c-0.1862,0.1888-0.443,0.2967-0.7065,0.2967c-0.2621,0-0.5202-0.1079-0.7051-0.2967
	C9.8539,6.6957,9.7474,6.434,9.7474,6.1683c0-0.2671,0.1065-0.5275,0.2927-0.715C10.225,5.2645,10.4833,5.1566,10.7452,5.1566z"/>
<path class="st0" d="M53.3453,5.1566c0.262,0,0.5187,0.1079,0.705,0.2967c0.1862,0.1875,0.2927,0.4492,0.2927,0.715
	c0,0.2657-0.1065,0.5274-0.2927,0.7149c-0.185,0.1888-0.443,0.2967-0.705,0.2967c-0.2634,0-0.5202-0.1079-0.7052-0.2967
	c-0.1862-0.1875-0.2926-0.4492-0.2926-0.7149c0-0.2658,0.1064-0.5275,0.2926-0.715C52.8251,5.2645,53.0819,5.1566,53.3453,5.1566z"
	/>
<path class="st0" d="M47.9574,15.248l-1.4071,1.96c-0.3243,0.4518-0.9483,0.5513-1.3939,0.2226
	c-0.4456-0.3289-0.5437-0.9616-0.2194-1.4134l1.4071-1.96c0.1953-0.2721,0.4991-0.4164,0.8074-0.4164
	c0.2035,0,0.4092,0.063,0.5864,0.1938C48.1834,14.1636,48.2818,14.7964,47.9574,15.248z"/>
<path class="st0" d="M44.5991,19.9262l-7.796,10.8601c-0.3242,0.4517-0.948,0.5513-1.3939,0.2226
	c-0.4455-0.3289-0.5437-0.9615-0.2194-1.4134l7.796-10.8601c0.1953-0.272,0.4991-0.4164,0.8074-0.4164
	c0.2036,0,0.4091,0.0631,0.5864,0.1939C44.8252,18.8418,44.9235,19.4745,44.5991,19.9262z"/>
<path class="st0" d="M34.8011,50.782c-0.5512,0-0.9978-0.453-0.9978-1.0117v-1.0116c0-0.5587,0.4466-1.0117,0.9978-1.0117
	c0.5511,0,0.9977,0.453,0.9977,1.0117v1.0116C35.7988,50.329,35.3521,50.782,34.8011,50.782z"/>
<path class="st0" d="M34.8011,46.9378c-0.5512,0-0.9978-0.4529-0.9978-1.0116v-9.1044c0-0.5587,0.4466-1.0116,0.9978-1.0116
	c0.5511,0,0.9977,0.4529,0.9977,1.0116v9.1044C35.7988,46.4849,35.3521,46.9378,34.8011,46.9378z"/>
</svg>
