<?xml version="1.0" encoding="utf-8"?>
<!-- Generator: Adobe Illustrator 19.0.0, SVG Export Plug-In . SVG Version: 6.00 Build 0)  -->
<svg version="1.1" id="Слой_1" xmlns="http://www.w3.org/2000/svg" xmlns:xlink="http://www.w3.org/1999/xlink" x="0px" y="0px"
	 viewBox="0 0 59 45.5075989" style="enable-background:new 0 0 59 45.5075989;" xml:space="preserve">
<style type="text/css">
	.st0{fill:#010202;}
</style>
<path class="st0" d="M56.7602005,0H2.2395C1.0046,0,0,0.9982,0,2.2249v41.0578003c0,1.226799,1.0046,2.2248993,2.2395,2.2248993
	h20.5629997h13.3948994h20.5629005C57.9953995,45.5075989,59,44.5094986,59,43.282299V2.2249
	C58.9998016,0.9982,57.9950981,0,56.7602005,0z M24.6854992,45.5075989h9.6289005H24.6854992z M57.1169014,43.282299
	c0,0.1921005-0.1632996,0.3546028-0.3567009,0.3546028H2.2395c-0.1932001,0-0.3565-0.1625023-0.3565-0.3546028V2.2249
	c0-0.1921,0.1632999-0.3541,0.3565-0.3541h54.5206985c0.1934013,0,0.3567009,0.1619999,0.3567009,0.3541V43.282299z"/>
<path class="st0" d="M54.1640015,36.0262985H4.8358002c-0.52,0-0.9415002,0.4188004-0.9415002,0.9350014
	c0,0.5168991,0.4215999,0.9354019,0.9415002,0.9354019h49.3282013c0.5201988,0,0.9414978-0.4185028,0.9414978-0.9354019
	C55.1054993,36.4450989,54.6839981,36.0262985,54.1640015,36.0262985z"/>
<path class="st0" d="M13.8084002,32.9081001h5.0213003c0.5200005,0,0.9414997-0.4188004,0.9414997-0.9349995V18.4025002
	c0-0.516201-0.4214993-0.9349995-0.9414997-0.9349995h-5.0213003c-0.5200005,0-0.9414997,0.4187984-0.9414997,0.9349995v13.5706005
	C12.8669004,32.4892998,13.2883997,32.9081001,13.8084002,32.9081001z M14.7498999,19.3379002h3.1383009v11.6998005h-3.1383009
	V19.3379002z"/>
<path class="st0" d="M22.5956001,32.9081001h5.0212994c0.5200005,0,0.9414997-0.4188004,0.9414997-0.9349995v-17.9958
	c0-0.5165997-0.4214993-0.9354-0.9414997-0.9354h-5.0212994c-0.5200005,0-0.9414997,0.4188004-0.9414997,0.9354v17.9958
	C21.6541004,32.4892998,22.0755997,32.9081001,22.5956001,32.9081001z M23.5370998,14.9126997h3.1382999v16.125h-3.1382999
	V14.9126997z"/>
<path class="st0" d="M31.3827991,32.9081001h5.0212994c0.5200996,0,0.9415016-0.4188004,0.9415016-0.9349995V9.7932997
	c0-0.5169001-0.421402-0.9357996-0.9415016-0.9357996h-5.0212994c-0.5200996,0-0.9414997,0.4188995-0.9414997,0.9357996v22.1798019
	C30.4412994,32.4892998,30.8626995,32.9081001,31.3827991,32.9081001z M32.3242989,10.7283001h3.1383018v20.3094006h-3.1383018
	V10.7283001z"/>
<path class="st0" d="M40.1699982,32.9081001h5.0213013c0.5200996,0,0.9415016-0.4188004,0.9415016-0.9349995v-9.2657013
	c0-0.5161991-0.421402-0.9354-0.9415016-0.9354h-5.0213013c-0.5199966,0-0.9413986,0.4192009-0.9413986,0.9354v9.2657013
	C39.2285995,32.4892998,39.6500015,32.9081001,40.1699982,32.9081001z M41.1114998,23.6427994h3.1383018v7.3949013h-3.1383018
	V23.6427994z"/>
</svg>
