<?xml version="1.0" encoding="utf-8"?>
<!-- Generator: Adobe Illustrator 19.0.0, SVG Export Plug-In . SVG Version: 6.00 Build 0)  -->
<svg version="1.1" id="Слой_1" xmlns="http://www.w3.org/2000/svg" xmlns:xlink="http://www.w3.org/1999/xlink" x="0px" y="0px"
	 viewBox="0 0 59 60" style="enable-background:new 0 0 59 60;" xml:space="preserve">
<style type="text/css">
	.st0{fill:#010202;}
</style>
<path class="st0" d="M58.6112,0.3887c-0.3904-0.3904-1.0214-0.3904-1.4117,0l-3.7011,3.7012H30.2528L1.0297,33.5553
	c-0.6649,0.665-1.0314,1.5506-1.0314,2.4911c0,0.9406,0.3665,1.8262,1.0314,2.4912L21.4628,58.972
	c0.686,0.6859,1.5856,1.0293,2.4871,1.0293c0.9056,0,1.8111-0.3464,2.5049-1.0393l28.4554-29.2258V5.5018l3.701-3.7013
	C59.0015,1.4101,59.0015,0.779,58.6112,0.3887z M52.9134,28.9255L25.0332,57.5602c-0.5951,0.595-1.5636,0.595-2.1586,0
	L2.4415,37.1258c-0.5951-0.5951-0.5951-1.5636,0.0029-2.1617l28.641-28.8772h20.4162l-4.8252,4.8255
	c-0.7898-0.5232-1.7332-0.8317-2.7487-0.8317c-2.7525,0-4.9919,2.2395-4.9919,4.9923c0,2.7527,2.2394,4.9922,4.9919,4.9922
	c2.7526,0,4.992-2.2395,4.992-4.9922c0-1.0155-0.3085-1.9591-0.8316-2.7488l4.8253-4.8255V28.9255z M46.923,15.073
	c0,1.6514-1.3439,2.9953-2.9953,2.9953c-1.6513,0-2.9951-1.3439-2.9951-2.9953c0-1.6515,1.3438-2.9954,2.9951-2.9954
	c0.4614,0,0.8927,0.1138,1.283,0.3005l-1.9888,1.9889c-0.3903,0.3904-0.3903,1.0214,0,1.4119
	c0.1947,0.1946,0.4503,0.2925,0.7058,0.2925c0.2557,0,0.5112-0.0979,0.7059-0.2925l1.9888-1.989
	C46.8102,14.1803,46.923,14.6117,46.923,15.073z"/>
<path class="st0" d="M33.4945,39.5141l-10.591,10.5896c-0.3903,0.3904-0.3903,1.0214,0,1.4118
	c0.1948,0.1947,0.4503,0.2926,0.706,0.2926c0.2555,0,0.5111-0.0979,0.7058-0.2926l10.59-10.5896
	c0.3904-0.3904,0.3904-1.0214,0-1.4118S33.8839,39.1237,33.4945,39.5141z"/>
<path class="st0" d="M37.0189,35.9796c-0.1807,0.1897-0.2896,0.4493-0.2896,0.7089c0,0.2606,0.1089,0.5202,0.2896,0.7089
	c0.1887,0.1807,0.4493,0.2895,0.7088,0.2895c0.2696,0,0.5282-0.1088,0.7089-0.2895c0.1797-0.1887,0.2896-0.4383,0.2896-0.7089
	c0-0.2696-0.1099-0.5282-0.2896-0.7089C38.0772,35.6101,37.3883,35.6101,37.0189,35.9796z"/>
<path class="st0" d="M28.5525,27.5107c0.3903-0.3904,0.3903-1.0214,0-1.4118c-0.3904-0.3904-1.0214-0.3904-1.4117,0L16.5507,36.6894
	c-0.3903,0.3905-0.3903,1.0215,0,1.4119c0.1947,0.1947,0.4503,0.2925,0.7059,0.2925s0.5112-0.0978,0.7059-0.2925L28.5525,27.5107z"
	/>
<path class="st0" d="M25.0221,39.5141c0.1947,0.1947,0.4504,0.2926,0.7059,0.2926c0.2556,0,0.5112-0.0979,0.7059-0.2926
	l7.0597-7.0601c0.3903-0.3904,0.3903-1.0214,0-1.4118c-0.3905-0.3904-1.0214-0.3904-1.4118,0l-7.0597,7.0601
	C24.6328,38.4917,24.6328,39.1237,25.0221,39.5141z"/>
<path class="st0" d="M19.3742,43.7496l-1.4117,1.4128c-0.3904,0.3903-0.3904,1.0224,0,1.4118
	c0.1947,0.1946,0.4503,0.2925,0.7059,0.2925c0.2555,0,0.5112-0.0979,0.7058-0.2925l1.4118-1.4128
	c0.3903-0.3904,0.3903-1.0224,0-1.4118C20.3966,43.3591,19.7646,43.3591,19.3742,43.7496z"/>
<path class="st0" d="M20.0801,24.687c-0.3904-0.3903-1.0214-0.3903-1.4117,0L8.0794,35.2766c-0.3904,0.3905-0.3904,1.0215,0,1.4119
	c0.1947,0.1947,0.4502,0.2925,0.7059,0.2925c0.2555,0,0.5111-0.0978,0.7058-0.2925l10.589-10.5896
	C20.4704,25.7085,20.4704,25.0775,20.0801,24.687z"/>
<path class="st0" d="M22.9006,22.8609c0.2705,0,0.5201-0.1099,0.7089-0.2896c0.1806-0.1897,0.2894-0.4493,0.2894-0.7089
	c0-0.2696-0.1088-0.5292-0.2894-0.7089c-0.3685-0.3694-1.0484-0.3694-1.4068,0c-0.1897,0.1897-0.3006,0.4393-0.3006,0.7089
	c0,0.2596,0.1099,0.5192,0.2896,0.7089C22.3824,22.7501,22.642,22.8609,22.9006,22.8609z"/>
<path class="st0" d="M13.7263,39.5141c-0.1897,0.1807-0.2895,0.4393-0.2895,0.7089c0,0.2606,0.0998,0.5202,0.2895,0.6989
	c0.1887,0.1897,0.4383,0.2996,0.7088,0.2996c0.2597,0,0.5192-0.1089,0.7089-0.2996c0.1798-0.1887,0.2896-0.4383,0.2896-0.6989
	c0-0.2696-0.1098-0.5192-0.2995-0.7089C14.7646,39.1447,14.0957,39.1447,13.7263,39.5141z"/>
<path class="st0" d="M23.6095,42.3407c0.1896-0.1887,0.2894-0.4493,0.2894-0.7089c0-0.2596-0.0998-0.5192-0.2894-0.7089
	c-0.3685-0.3694-1.0484-0.3694-1.4178,0c-0.1797,0.1897-0.2896,0.4493-0.2896,0.7089c0,0.2596,0.1099,0.5202,0.2896,0.7089
	c0.1897,0.1808,0.4493,0.2896,0.7089,0.2896C23.1711,42.6303,23.4207,42.5204,23.6095,42.3407z"/>
</svg>
