<?xml version="1.0" encoding="utf-8"?>
<!-- Generator: Adobe Illustrator 19.0.0, SVG Export Plug-In . SVG Version: 6.00 Build 0)  -->
<svg version="1.1" id="Слой_1" xmlns="http://www.w3.org/2000/svg" xmlns:xlink="http://www.w3.org/1999/xlink" x="0px" y="0px"
	 viewBox="0 0 14 25" style="enable-background:new 0 0 14 25;" xml:space="preserve">
<style type="text/css">
	.st0{fill:#010202;}
</style>
<path class="st0" d="M6.3797,0.0029c0,0-1.9828,0.4047-2.8798,0.9407c-2.165,1.2934-3.5,3.6868-3.5,6.2743v10.5374
	c0,2.587,1.335,4.9797,3.5,6.2739c2.1649,1.2937,4.8352,1.2937,7,0C12.6649,22.735,14,20.3423,14,17.7553V7.2179
	c0-2.5875-1.3351-4.9809-3.5001-6.2743c-0.8869-0.5299-2.8456-0.938-2.8456-0.938L6.3797,0.0029z M6.3637,1.329v4.0421
	C6.2319,5.416,6.1036,5.4745,5.9809,5.548c-0.6296,0.3758-1.019,1.0742-1.019,1.8266v2.3212c0,0.752,0.3894,1.4501,1.019,1.8263
	c0.6297,0.3766,1.4086,0.3766,2.0383,0c0.6298-0.3762,1.019-1.0743,1.019-1.8263V7.3742c0-0.7524-0.3892-1.4504-1.019-1.8262
	C7.8965,5.4742,7.7683,5.416,7.6364,5.3711V1.329c0.7724,0.0894,1.5314,0.3397,2.2273,0.7554
	c1.7729,1.0591,2.8637,3.0147,2.8637,5.1335v10.5374c0,2.1184-1.0908,4.0736-2.8637,5.133s-3.9544,1.0594-5.7273,0
	s-2.8636-3.0146-2.8636-5.133V7.2179c0-2.1188,1.0907-4.0744,2.8636-5.1335C4.8322,1.6687,5.5913,1.4184,6.3637,1.329z
	 M7.0001,6.5822c0.1318,0,0.2638,0.035,0.3826,0.1062c0.2377,0.1419,0.3828,0.4017,0.3828,0.6858v2.3216
	c0,0.2838-0.1451,0.5436-0.3828,0.6855c-0.2375,0.1419-0.5276,0.1419-0.7653,0S6.2349,9.9796,6.2349,9.6958V7.3742
	c0-0.2841,0.1448-0.5439,0.3825-0.6858C6.7363,6.6172,6.8681,6.5822,7.0001,6.5822z M3.1913,18.4054
	c-0.3514-0.0073-0.6424,0.2807-0.6498,0.6447c-0.0022,0.1096,0.0222,0.2184,0.0711,0.3161
	c0.7882,1.6316,2.6268,2.3402,4.3875,2.3402s3.5993-0.7086,4.3874-2.3402c0.161-0.3233,0.0382-0.72-0.2745-0.887
	c-0.3125-0.1663-0.6962-0.0392-0.8572,0.2845c-0.0022,0.0046-0.0045,0.0095-0.0068,0.0141
	c-0.4846,1.0027-1.8278,1.6117-3.2489,1.6117c-1.4212,0-2.7644-0.609-3.2489-1.6117C3.647,18.5549,3.4307,18.4107,3.1913,18.4054z"
	/>
</svg>
