<?xml version="1.0" encoding="utf-8"?>
<!-- Generator: Adobe Illustrator 19.0.0, SVG Export Plug-In . SVG Version: 6.00 Build 0)  -->
<svg version="1.1" id="Слой_1" xmlns="http://www.w3.org/2000/svg" xmlns:xlink="http://www.w3.org/1999/xlink" x="0px" y="0px"
	 viewBox="0 0 64 64" style="enable-background:new 0 0 64 64;" xml:space="preserve">
<style type="text/css">
	.st0{fill:#010202;}
</style>
<path class="st0" d="M60.4584,17.3538c-2.2405-4.3468-5.5081-8.185-9.4487-11.0996c-0.5784-0.4276-1.3935-0.3055-1.8214,0.2727
	c-0.4276,0.5786-0.3053,1.3942,0.2728,1.8218c3.6215,2.6787,6.6238,6.2054,8.6827,10.1992
	c2.1573,4.1839,3.2511,8.7103,3.2511,13.4531c0,16.2087-13.1842,29.3963-29.3896,29.3963
	c-16.2053,0-29.3894-13.1876-29.3894-29.3967S15.8,2.6043,32.0053,2.6043c0.7191,0,1.3022-0.5835,1.3022-1.3025
	c0-0.7189-0.5831-1.3025-1.3022-1.3025c-17.6413,0-31.9937,14.3562-31.9937,32.0013c0,17.6458,14.3524,32.0013,31.9937,32.0013
	c17.6414,0,31.9939-14.3555,31.9939-32.0013C63.9992,26.912,62.7749,21.847,60.4584,17.3538z"/>
<path class="st0" d="M23.8188,17.1415c-0.4071,0.2321-0.6587,0.6642-0.6587,1.1321v28.583c0,0.7193,0.5831,1.3025,1.3022,1.3025
	c0.719,0,1.3021-0.5832,1.3021-1.3025V20.5647l19.2788,11.4796l-14.1767,9.1364c-0.6044,0.3892-0.779,1.1956-0.3894,1.8
	c0.3897,0.6049,1.1954,0.7791,1.8,0.3896l15.9436-10.2749c0.379-0.2442,0.6046-0.6672,0.5966-1.118s-0.2485-0.8654-0.6358-1.0959
	l-23.0532-13.727C24.7255,16.9152,24.226,16.9102,23.8188,17.1415z"/>
</svg>
