<?xml version="1.0" encoding="utf-8"?>
<!-- Generator: Adobe Illustrator 19.0.0, SVG Export Plug-In . SVG Version: 6.00 Build 0)  -->
<svg version="1.1" id="Слой_1" xmlns="http://www.w3.org/2000/svg" xmlns:xlink="http://www.w3.org/1999/xlink" x="0px" y="0px"
	 viewBox="0 0 31 53" style="enable-background:new 0 0 31 53;" xml:space="preserve">
<style type="text/css">
	.st0{fill:#010202;}
</style>
<path class="st0" d="M29.1697,47.7608v-6.3213c0-2.1863-0.8508-4.2418-2.3955-5.7875l-6.6279-6.6328
	c-0.6726-0.6728-1.0429-1.5675-1.0429-2.5194c0-0.9518,0.3703-1.8465,1.0429-2.5194l6.6279-6.6327
	c1.5448-1.5458,2.3955-3.6012,2.3955-5.7875V5.2388C30.2324,4.8795,31,3.8731,31,2.69c0-1.4834-1.2059-2.6901-2.6882-2.6901H2.6881
	c-1.4823,0-2.6883,1.2067-2.6883,2.6901c0,1.1831,0.7677,2.1895,1.8304,2.5488v6.3216c0,2.1863,0.8508,4.2415,2.3954,5.7875
	l6.6279,6.6325c0.6727,0.6731,1.043,1.5678,1.043,2.5196c0,0.9517-0.3703,1.8464-1.043,2.5194L4.2256,35.652
	c-1.5446,1.5457-2.3954,3.6012-2.3954,5.7875v6.3216c-1.0627,0.3592-1.8304,1.3656-1.8304,2.5488c0,1.4833,1.206,2.69,2.6883,2.69
	h25.6237c1.4823,0,2.6882-1.2067,2.6882-2.69C31,49.1265,30.2325,48.1201,29.1697,47.7608z M2.6882,1.717H28.312
	c0.5361,0,0.9722,0.4364,0.9722,0.973c0,0.5365-0.4361,0.9729-0.9722,0.9729H2.6882c-0.5362,0-0.9723-0.4364-0.9723-0.9729
	C1.7159,2.1534,2.152,1.717,2.6882,1.717z M5.4391,36.8661l6.6279-6.6325c0.9966-0.9973,1.5455-2.3232,1.5455-3.7336
	c0-1.4105-0.5489-2.7364-1.5455-3.7338l-6.6279-6.6325c-1.2208-1.2216-1.8931-2.8459-1.8931-4.5735V5.38h23.9079v6.1802
	c0,1.7276-0.6723,3.3519-1.8931,4.5733l-6.628,6.6325c-0.9965,0.9976-1.5454,2.3235-1.5454,3.7338
	c0,1.4103,0.5489,2.7362,1.5454,3.7336l6.628,6.6327c1.2208,1.2215,1.8931,2.8457,1.8931,4.5734v6.1802H3.546v-6.1802
	C3.5461,39.7118,4.2184,38.0876,5.4391,36.8661z M28.3118,51.2827H2.6881c-0.5362,0-0.9723-0.4365-0.9723-0.973
	s0.4361-0.973,0.9723-0.973h25.6237c0.5362,0,0.9723,0.4365,0.9723,0.973S28.8481,51.2827,28.3118,51.2827z"/>
<path class="st0" d="M6.3488,45.6737h18.3026c0.4739,0,0.8579-0.3843,0.8579-0.8586v-3.3756c0-1.2079-0.4699-2.3433-1.3233-3.1973
	l-3.1895-3.1918c-0.161-0.161-0.3791-0.2514-0.6068-0.2514H16.358V22.9736c0.3233-0.5768,0.7258-1.1091,1.1999-1.5834l4.3538-4.3567
	c0.2454-0.2456,0.3187-0.6148,0.1859-0.9356c-0.1328-0.3208-0.4456-0.5299-0.7926-0.5299H9.6954
	c-0.3469,0-0.6599,0.2091-0.7926,0.5299c-0.1329,0.3208-0.0596,0.69,0.1859,0.9356l4.3536,4.3567
	c0.4741,0.4745,0.8766,1.0066,1.1998,1.5834V34.799h-4.0317c-0.2275,0-0.4456,0.0904-0.6068,0.2514l-3.1894,3.1918
	c-0.8534,0.854-1.3234,1.9894-1.3234,3.1973v3.3756C5.4908,45.2894,5.8747,45.6737,6.3488,45.6737z M11.7665,17.285h7.467
	l-2.889,2.8908c-0.3057,0.3061-0.5878,0.6317-0.8446,0.9745c-0.2566-0.3428-0.5386-0.6684-0.8444-0.9745L11.7665,17.285z
	 M7.2066,41.4395c0-0.7492,0.2917-1.4535,0.8211-1.9832l2.9378-2.9402h9.0687l2.9383,2.9402
	c0.5293,0.5297,0.8208,1.234,0.8208,1.9832v2.5172H7.2065v-2.5172H7.2066z"/>
</svg>
