<?xml version="1.0" encoding="utf-8"?>
<!-- Generator: Adobe Illustrator 19.0.0, SVG Export Plug-In . SVG Version: 6.00 Build 0)  -->
<svg version="1.1" id="Слой_1" xmlns="http://www.w3.org/2000/svg" xmlns:xlink="http://www.w3.org/1999/xlink" x="0px" y="0px"
	 viewBox="0 0 62 49" style="enable-background:new 0 0 62 49;" xml:space="preserve">
<style type="text/css">
	.st0{fill:#010202;}
</style>
<path class="st0" d="M4.7925,5.7723c0.239,0,0.4744-0.0982,0.6431-0.2701c0.1698-0.1707,0.2669-0.4089,0.2669-0.6508
	c0-0.242-0.0971-0.4802-0.2669-0.6509C5.2669,4.0286,5.0315,3.9303,4.7925,3.9303c-0.2402,0-0.4743,0.0983-0.643,0.2702
	c-0.1698,0.1707-0.267,0.4089-0.267,0.6509c0,0.2419,0.0972,0.4801,0.267,0.6508C4.3182,5.6741,4.5535,5.7723,4.7925,5.7723z"/>
<path class="st0" d="M7.7044,5.7723c0.2391,0,0.4745-0.0982,0.6431-0.2701c0.1699-0.1707,0.2669-0.4089,0.2669-0.6508
	c0-0.242-0.097-0.4802-0.2669-0.6509c-0.1686-0.1719-0.404-0.2702-0.6431-0.2702c-0.239,0-0.4744,0.0983-0.643,0.2702
	C6.8915,4.3712,6.7945,4.6094,6.7945,4.8514c0,0.2419,0.097,0.4801,0.2669,0.6508C7.23,5.6741,7.4654,5.7723,7.7044,5.7723z"/>
<path class="st0" d="M10.6164,5.7723c0.239,0,0.4744-0.0982,0.6431-0.2701c0.1698-0.1707,0.2669-0.4089,0.2669-0.6508
	c0-0.242-0.0971-0.4802-0.2669-0.6509c-0.1687-0.1719-0.4041-0.2702-0.6431-0.2702c-0.2391,0-0.4744,0.0983-0.6431,0.2702
	C9.8035,4.3712,9.7064,4.6094,9.7064,4.8514c0,0.2419,0.0971,0.4801,0.2669,0.6508C10.142,5.6741,10.3773,5.7723,10.6164,5.7723z"/>
<path class="st0" d="M45.5596,27.5087c-1.1038,0-2.0019-0.909-2.0019-2.0263v-2.9473c0-2.133-1.7145-3.8683-3.822-3.8683h-0.9706
	c-0.5024,0-0.91,0.4124-0.91,0.921c0,0.5087,0.4076,0.921,0.91,0.921h0.9706c1.1039,0,2.002,0.909,2.002,2.0263v2.9473
	c0,1.1794,0.5242,2.2373,1.3491,2.9473c-0.8249,0.7101-1.3491,1.7679-1.3491,2.9473v2.9473c0,1.1172-0.8981,2.0263-2.002,2.0263
	h-0.9706c-0.5024,0-0.91,0.4123-0.91,0.9209c0,0.5088,0.4076,0.9211,0.91,0.9211h0.9706c2.1075,0,3.822-1.7353,3.822-3.8683V31.377
	c0-1.1173,0.8981-2.0262,2.0019-2.0262c0.5026,0,0.9099-0.4125,0.9099-0.9211C46.4695,27.9211,46.0622,27.5087,45.5596,27.5087z"/>
<path class="st0" d="M20.2622,25.4824v-2.9473c0-1.1173,0.8981-2.0263,2.0019-2.0263h0.9707c0.5025,0,0.91-0.4123,0.91-0.921
	c0-0.5086-0.4075-0.921-0.91-0.921h-0.9707c-2.1073,0-3.8219,1.7353-3.8219,3.8683v2.9473c0,1.1173-0.8981,2.0263-2.0019,2.0263
	c-0.5026,0-0.91,0.4124-0.91,0.921c0,0.5086,0.4074,0.9211,0.91,0.9211c1.1038,0,2.0019,0.9089,2.0019,2.0262v2.9473
	c0,2.133,1.7146,3.8683,3.8219,3.8683h0.9707c0.5025,0,0.91-0.4123,0.91-0.9211c0-0.5086-0.4075-0.9209-0.91-0.9209h-0.9707
	c-1.1038,0-2.0019-0.9091-2.0019-2.0263V31.377c0-1.1794-0.5241-2.2372-1.3491-2.9473
	C19.7381,27.7197,20.2622,26.6618,20.2622,25.4824z"/>
<path class="st0" d="M35.8532,32.4208c-0.239,0-0.4744,0.0983-0.6431,0.2702c-0.1699,0.1707-0.2669,0.4089-0.2669,0.6508
	c0,0.2419,0.097,0.4802,0.2669,0.6509c0.1687,0.1719,0.4041,0.2701,0.6431,0.2701c0.2402,0,0.4744-0.0982,0.6431-0.2701
	c0.1699-0.1707,0.2669-0.409,0.2669-0.6509c0-0.2419-0.097-0.4801-0.2669-0.6508C36.3276,32.5191,36.0922,32.4208,35.8532,32.4208z"
	/>
<path class="st0" d="M30.9999,32.4208c-0.2389,0-0.4743,0.0983-0.643,0.2702c-0.1699,0.1707-0.2669,0.4089-0.2669,0.6508
	c0,0.2432,0.097,0.4802,0.2669,0.6509c0.1687,0.1719,0.4041,0.2701,0.643,0.2701c0.2391,0,0.4744-0.0982,0.6431-0.2701
	c0.1699-0.1707,0.2669-0.409,0.2669-0.6509c0-0.2419-0.097-0.4801-0.2669-0.6508C31.4743,32.5191,31.239,32.4208,30.9999,32.4208z"
	/>
<path class="st0" d="M26.1467,32.4208c-0.2402,0-0.4744,0.0983-0.643,0.2702c-0.1699,0.1707-0.267,0.4089-0.267,0.6508
	c0,0.2419,0.0971,0.4802,0.267,0.6509c0.1686,0.1719,0.404,0.2701,0.643,0.2701s0.4745-0.0982,0.6431-0.2701
	c0.1699-0.1707,0.2669-0.409,0.2669-0.6509c0-0.2419-0.097-0.4801-0.2669-0.6508C26.6212,32.5191,26.3857,32.4208,26.1467,32.4208z"
	/>
<path class="st0" d="M14.499,5.7723h36.8845c0.5025,0,0.91-0.4123,0.91-0.9209c0-0.5087-0.4075-0.9211-0.91-0.9211H14.499
	c-0.5025,0-0.91,0.4124-0.91,0.9211C13.589,5.36,13.9965,5.7723,14.499,5.7723z"/>
<path class="st0" d="M55.2661,5.7723h1.9413c0.5025,0,0.91-0.4123,0.91-0.9209c0-0.5087-0.4075-0.9211-0.91-0.9211h-1.9413
	c-0.5026,0-0.91,0.4124-0.91,0.9211C54.3561,5.36,54.7635,5.7723,55.2661,5.7723z"/>
<path class="st0" d="M57.2074,0.0006H4.7925C2.1499,0.0006,0,2.1767,0,4.8514v39.2972c0,2.6746,2.1499,4.8507,4.7925,4.8507h52.4149
	C59.85,48.9993,62,46.8232,62,44.1486V4.8514C62,2.1767,59.85,0.0006,57.2074,0.0006z M4.7925,1.8426h52.4149
	c1.6391,0,2.9726,1.3498,2.9726,3.0088V7.86H1.8199V4.8514C1.8199,3.1924,3.1535,1.8426,4.7925,1.8426z M57.2074,47.1573H4.7925
	c-1.639,0-2.9726-1.3497-2.9726-3.0087V9.7021H60.18v34.4465C60.18,45.8076,58.8465,47.1573,57.2074,47.1573z"/>
</svg>
