<?xml version="1.0" encoding="utf-8"?>
<!-- Generator: Adobe Illustrator 19.0.0, SVG Export Plug-In . SVG Version: 6.00 Build 0)  -->
<svg version="1.1" id="Слой_1" xmlns="http://www.w3.org/2000/svg" xmlns:xlink="http://www.w3.org/1999/xlink" x="0px" y="0px"
	 viewBox="13 -6.6 56.9 43.6" style="enable-background:new 13 -6.6 56.9 43.6;" xml:space="preserve">
<style type="text/css">
	.st0{fill:#010202;}
</style>
<path class="st0" d="M61.2,15.2c0-0.6-0.8-1.2-1.8-1.2H14.8c-1,0-1.8,0.5-1.8,1.2c0,0.6,0.8,1.2,1.8,1.2h44.6
	C60.4,16.4,61.2,15.9,61.2,15.2z"/>
<path class="st0" d="M69.9,15.2L49.1-5.6c-0.7-0.7-1.6-0.9-2.1-0.4c-0.4,0.4-0.2,1.4,0.4,2.1l20.8,20.8"/>
<path class="st0" d="M68.3,13.6L47.5,34.5c-0.7,0.7-0.9,1.6-0.4,2.1c0.4,0.4,1.4,0.2,2.1-0.4l20.8-20.8"/>
</svg>
