<?xml version="1.0" encoding="utf-8"?>
<!-- Generator: Adobe Illustrator 19.0.0, SVG Export Plug-In . SVG Version: 6.00 Build 0)  -->
<svg version="1.1" id="Слой_1" xmlns="http://www.w3.org/2000/svg" xmlns:xlink="http://www.w3.org/1999/xlink" x="0px" y="0px"
	 viewBox="0 0 78 88" style="enable-background:new 0 0 78 88;" xml:space="preserve">
<style type="text/css">
	.st0{fill:#010202;}
</style>
<path class="st0" d="M21.8866,50.9359c0.807,0,1.5656,0.3154,2.1363,0.8886c0.3227,0.324,0.7456,0.4861,1.1687,0.4858
	c0.4229,0,0.8461-0.1618,1.1688-0.4858c0.6456-0.648,0.6456-1.6988,0-2.3471c-1.1951-1.1996-2.7838-1.8606-4.4736-1.8606
	c-1.6898,0-3.2786,0.661-4.4736,1.8606c-0.6457,0.648-0.6457,1.6987,0,2.3471c0.6456,0.648,1.6921,0.648,2.3373,0
	C20.3209,51.2513,21.0796,50.9359,21.8866,50.9359z"/>
<path class="st0" d="M51.6398,49.4774c-0.6457,0.648-0.6457,1.6987,0,2.3471c0.6454,0.648,1.6918,0.648,2.3373,0
	c1.1778-1.1831,3.0947-1.1827,4.2725,0c0.3227,0.324,0.7457,0.4858,1.1688,0.4858s0.846-0.1618,1.1688-0.4858
	c0.6456-0.648,0.6456-1.6988,0-2.3471C58.1208,47.0009,54.1069,47.0009,51.6398,49.4774z"/>
<path class="st0" d="M56.1046,65.8479c-9.4316,9.4693-24.7775,9.4693-34.2092,0c-0.6454-0.6479-1.6918-0.6479-2.3372,0
	c-0.6457,0.648-0.6457,1.6988,0,2.3468c5.3601,5.3817,12.4009,8.0725,19.4417,8.0725c7.0411,0,14.0819-2.6908,19.4422-8.0725
	c0.6456-0.648,0.6456-1.6984,0-2.3468C57.7965,65.2,56.7499,65.2,56.1046,65.8479z"/>
<path class="st0" d="M77.9989,52.7238c0-4.5075-3.2457-8.266-7.5135-9.0499V15.9128c0-3.6013-1.7843-6.9402-4.7732-8.9312
	c-2.8076-1.8699-6.2926-2.2946-9.444-1.1795l-10.377-3.5363c-7.9736-2.7174-16.3669-2.9965-24.2721-0.8065
	C11.2698,4.3263,5.3366,10.3884,4.4208,19.006c-0.8106,1.0731-1.4546,2.2788-1.8922,3.5791l-0.8048,2.392
	c-0.4321,1.2841,0.0441,2.6337,1.1854,3.3579c1.1412,0.7246,2.5599,0.5779,3.5301-0.3646c0.3313-0.3222,0.6937-0.5937,1.0751-0.8206
	v16.5241c-4.2675,0.7839-7.5134,4.542-7.5134,9.0499c0,4.6884,3.5105,8.5663,8.0304,9.1301
	c1.1351,6.2926,4.1177,12.0971,8.6786,16.742c5.9544,6.0642,13.8703,9.4042,22.2899,9.4042c0.0011,0,0.0021,0,0.0032,0
	c8.4089-0.0008,16.3144-3.2892,22.2605-9.2589c4.6447-4.6632,7.6594-10.5268,8.7571-16.8941
	C74.5153,61.2599,77.9989,57.3939,77.9989,52.7238z M63.8846,9.7472c2.0943,1.3949,3.2953,3.6423,3.2953,6.1656v21.7156
	c-5.1302-0.8005-9.0693-5.2652-9.0693-10.6368L57.9738,8.7461C59.9921,8.2121,62.0967,8.5562,63.8846,9.7472z M5.3393,24.6017
	l0.3212-0.9544c0.8416-2.5006,2.7103-4.5305,5.1269-5.5694c2.4165-1.0388,5.1695-0.9957,7.5526,0.1191
	c5.0052,2.3402,11.056,1.0748,14.7142-3.0771l0.4094-0.4646c0.6049-0.6865,0.5409-1.7354-0.1427-2.3424
	c-0.6839-0.6074-1.7284-0.543-2.3332,0.1431l-0.4095,0.465c-2.6958,3.0598-7.1544,3.9918-10.8425,2.2672
	c-3.234-1.5124-6.9701-1.571-10.2494-0.1611c-0.2986,0.1284-0.5889,0.2715-0.8747,0.4215c1.9213-5.1422,6.5711-8.7634,13.887-10.79
	c7.2643-2.0127,14.986-1.7531,22.3304,0.7497l9.8392,3.3532l0.1289,8.5746c-4.381,5.9804-10.7704,10.0287-18.0515,11.4207
	c-7.4558,1.4254-15.0617-0.0831-21.4172-4.2468C12.2229,22.4758,8.3076,22.5624,5.3393,24.6017z M3.3068,52.7238
	c0-2.6678,1.7786-4.9257,4.2076-5.6442v8.9949c0,0.7767,0.028,1.5495,0.0822,2.3172C5.1259,57.7006,3.3068,55.4222,3.3068,52.7238z
	 M58.9262,76.3941c-5.3216,5.3433-12.3971,8.2858-19.9234,8.2869c-0.0012,0-0.0013,0-0.0028,0c-7.5272,0-14.608-2.989-19.936-8.4152
	c-5.3162-5.4141-8.2439-12.5851-8.2439-20.1916V26.3677c0.936,0.0697,1.8649,0.3739,2.7013,0.922
	c7.0754,4.6351,15.5423,6.3145,23.8421,4.7276c6.7371-1.2881,12.7893-4.618,17.4412-9.5289v4.5032
	c0,7.2041,5.4165,13.1586,12.375,13.9828v15.4137C67.1799,63.9457,64.2488,71.0506,58.9262,76.3941z M70.4217,58.3863
	c0.0408-0.6623,0.0637-1.3287,0.0637-1.9982v-9.3085c2.4292,0.7185,4.2078,2.9764,4.2078,5.6442
	C74.6932,55.4154,72.8834,57.6891,70.4217,58.3863z"/>
</svg>
